# Blender v2.77 (sub 0) OBJ File: 'V1.5 Sail.blend'
# www.blender.org
mtllib V1.5 Sail_000033.mtl
o Cube.001
v 0.076375 12.624714 0.102850
v 0.292306 12.626940 0.140405
v 0.291085 12.095137 0.140814
v 0.059882 12.092911 0.100327
v 0.109422 3.504272 0.127043
v 0.382566 3.506497 0.197511
v 0.371263 4.365361 0.191762
v 0.105812 4.363135 0.124659
v -0.545588 10.680549 2.710212
v -0.329433 10.682775 2.754275
v -0.815773 8.313966 4.947126
v -1.043173 8.311740 4.916503
v -1.225556 3.504272 7.388952
v -0.939177 3.506498 7.371327
v -0.956372 4.625604 7.017373
v -0.146586 9.533196 0.621108
v -0.189873 5.975260 0.690680
v -0.054589 11.790948 1.226944
v 0.065726 9.535422 0.642580
v 0.084307 5.977485 0.729284
v -0.382277 3.506497 3.291817
v -0.657053 3.504272 3.208564
v -0.273983 11.788722 1.206307
v -0.131841 12.626940 0.031619
v -0.161431 12.095137 0.029152
v -0.153087 3.506497 0.023603
v -0.153893 4.365361 0.023541
v -0.751717 10.682775 2.633041
v -1.237852 8.313966 4.860805
v -1.511936 3.506498 7.371327
v -1.516512 4.625604 7.013218
v -1.234821 4.623378 7.033267
v -0.465337 11.790948 1.150665
v -0.361824 9.535422 0.562064
v -0.450521 5.977485 0.619064
v -0.912766 3.506497 3.094103
v -0.179711 11.236861 1.998145
v -0.518495 5.301545 3.857306
v -0.324286 8.924693 2.825559
v -0.841179 3.506497 5.343139
v -1.115687 3.504272 5.261514
v -0.399519 11.234635 1.960453
v -0.609981 11.236861 1.889484
v -1.062524 5.301545 3.793783
v -0.764641 8.924693 2.701750
v -1.373633 3.506497 5.149549
v -1.019130 6.469786 5.989840
v 0.150130 7.756454 0.709437
v -0.050435 7.754228 0.681052
v -1.512583 6.469786 5.866277
v -0.288827 7.756454 0.601316
v -1.267741 6.467560 5.947388
v -0.924708 7.113120 3.226043
v -0.446036 7.113120 3.352182
v -0.220632 10.959818 2.388700
v -0.866905 4.963574 5.468343
v -0.643486 10.959818 2.264216
v -1.397096 4.963574 5.323989
v -0.603457 8.619330 3.864005
v -0.943061 3.506497 6.296483
v -1.226659 3.504272 6.313264
v -0.437518 10.957592 2.342815
v -1.036543 8.619330 3.792689
v -1.515233 3.506497 6.293734
v -1.164519 6.791453 4.583818
v -0.663157 6.791453 4.660112
v -0.111843 9.230058 1.730022
v -0.515952 3.506497 4.256912
v -0.797212 3.504272 4.254082
v -0.329068 11.511679 1.585021
v -0.566807 9.230058 1.640647
v -1.071867 3.506497 4.212532
v -0.110842 11.513905 1.610956
v -0.106930 5.639515 2.347797
v -0.540608 11.513905 1.525220
v -0.712045 5.639515 2.208728
v -0.114706 7.434787 2.042607
v -0.641272 7.434786 1.925612
v -0.942110 4.066051 7.194474
v -0.131342 4.741991 1.976097
v -1.509003 4.066051 7.194474
v -0.682234 4.741991 1.899856
v 0.379758 3.935929 0.195744
v -1.225556 4.063825 7.212099
v -0.150410 3.935929 0.023725
v 0.109208 3.933703 0.126191
v -1.080675 4.404021 4.524132
v -0.532869 4.404021 4.587291
v -1.515503 4.235035 5.826181
v -0.960708 4.235035 5.847856
v -0.381581 4.573006 3.314971
v -0.945418 4.573006 3.169770
v -0.109582 3.506497 1.713009
v -0.373010 3.504272 1.646618
v -0.015605 5.169198 0.413313
v 0.252957 5.171423 0.475454
v -0.628758 3.506497 1.515223
v -0.274443 5.171423 0.318000
v -0.363687 4.338960 0.917493
v 0.135075 4.338960 1.133076
v -0.059804 10.813052 0.357204
v 0.187096 10.815278 0.396137
v -0.174112 12.206718 0.638495
v 0.044937 12.208944 0.659107
v -0.286931 10.815278 0.292639
v -0.351377 12.208944 0.585836
v -0.612288 9.498370 3.846238
v -0.829620 9.496144 3.805831
v -0.003213 10.663184 0.931223
v -1.026768 9.498370 3.744462
v -0.413063 10.663184 0.856664
v 0.293231 12.361038 0.141147
v -0.144386 12.361038 0.030571
v 0.072095 12.358812 0.102435
v -0.707189 10.080777 2.296542
v -0.207432 10.080777 2.428025
v -0.852181 9.789575 3.013783
v -0.428582 9.789575 3.129535
v -0.064234 10.371982 1.689735
v -0.554651 10.371982 1.582884
v -0.326250 11.512111 0.438755
v 0.101908 11.512111 0.522955
v 0.095460 6.866970 0.708739
v -0.326514 6.866970 0.611401
v -1.297824 5.545468 6.480387
v -0.502682 6.207333 3.596368
v -1.022828 5.547694 6.491768
v -0.073458 6.864745 0.695839
v -1.552631 5.547694 6.436249
v -1.021531 6.207333 3.513180
v -0.754022 5.877513 5.064360
v -1.258936 5.877513 4.958312
v -0.672993 6.537152 2.069688
v -0.154872 6.537152 2.177357
v -0.823472 7.391876 5.472505
v -0.097345 8.643712 0.651329
v -1.320589 7.391876 5.386569
v -0.837844 8.018907 2.961274
v 0.141499 8.645938 0.688653
v -0.331058 8.645938 0.582081
v -1.117077 7.389650 5.440143
v -0.380260 8.018907 3.096673
v -1.096888 7.705391 4.193089
v -0.632287 7.705391 4.258749
v -0.110702 8.332421 1.890980
v -0.604305 8.332421 1.783158
v -0.044052 9.382739 1.176525
v -0.537291 3.506497 3.724954
v -0.818913 3.504272 3.711721
v -0.296503 11.650201 1.396737
v -0.466482 9.382739 1.101379
v -1.097027 3.506497 3.664007
v -0.509830 7.595620 1.259562
v -0.079551 11.652427 1.419998
v -0.068319 5.808500 1.515184
v -0.503048 11.652427 1.337905
v -0.606452 5.808500 1.409170
v -0.037572 7.595620 1.347649
v -0.700956 4.657499 2.550865
v -0.151043 4.657499 2.679605
v -0.484751 10.517583 1.219723
v -0.065979 10.517583 1.295718
v -0.038605 6.702061 1.436987
v -0.546767 6.702061 1.335208
v -0.486522 8.489181 1.180942
v -0.040009 8.489181 1.261972
v -0.147393 11.375382 1.799045
v -0.323660 5.470530 3.124509
v -0.570379 11.375382 1.708087
v -0.847713 5.470530 2.971242
v -0.240070 7.273953 2.717990
v -0.185851 9.077376 2.292360
v -0.596673 3.506497 4.848763
v -0.871769 3.504272 4.775883
v -0.361631 11.373157 1.773305
v -0.672354 9.077376 2.169128
v -1.131330 3.506497 4.673087
v -0.730606 7.273953 2.572090
v -0.536040 4.488513 3.902568
v -1.096056 4.488513 3.870057
v -0.128398 10.226379 2.063366
v -0.622288 10.226379 1.938312
v -0.792000 6.372242 2.772090
v -0.284394 6.372242 2.923004
v -0.209850 8.175664 2.505733
v -0.677337 8.175664 2.371900
v -0.476538 8.772012 3.354027
v -0.957194 3.506497 5.774166
v -1.238882 3.504272 5.772929
v -0.394690 11.096114 2.156723
v -0.918632 8.772012 3.239629
v -1.521682 3.506497 5.736517
v -1.069351 6.952286 3.917386
v -0.167848 11.098340 2.204982
v -0.599734 5.132559 4.678790
v -0.625204 11.098340 2.077488
v -1.132790 5.132559 4.578325
v -0.576270 6.952286 3.987955
v -0.796510 4.319528 5.287796
v -1.322594 4.319528 5.096723
v -0.327994 9.935176 2.775454
v -0.754266 9.935176 2.655890
v -1.116532 6.042424 4.254812
v -0.593792 6.042424 4.322924
v -0.546640 7.862149 3.658833
v -1.015822 7.862149 3.581595
v -0.276931 10.821296 2.570847
v -0.974103 4.794589 6.206658
v -0.698308 10.821296 2.448484
v -1.528608 4.794589 6.176122
v -0.842260 6.630620 5.327365
v -0.671897 8.466647 4.403086
v -0.939177 3.506498 6.833601
v -1.225557 3.504272 6.851226
v -0.492976 10.819070 2.526210
v -1.112660 8.466647 4.337718
v -1.511936 3.506498 6.833601
v -1.320237 6.630620 5.231944
v -1.509003 4.150543 6.515251
v -0.942110 4.150543 6.515251
v -0.951739 9.643971 3.381107
v -0.520664 9.643971 3.490473
v -0.962576 5.712604 5.780558
v -1.471638 5.712604 5.669111
v -1.198673 7.548634 4.790217
v -0.715396 7.548634 4.866898
vn 0.9993 0.0361 -0.0058
vn 0.9650 0.0082 0.2623
vn -0.1453 0.6898 0.7093
vn -0.1084 0.4951 0.8620
vn 0.0543 0.3037 0.9512
vn 0.0078 -1.0000 0.0000
vn -0.1261 0.8091 0.5740
vn 0.9657 0.1016 0.2390
vn -0.0632 0.8090 0.5844
vn 0.0079 -1.0000 0.0014
vn 0.1296 -0.2040 -0.9704
vn 0.9768 0.0073 0.2142
vn 0.9572 0.0969 0.2728
vn 0.2171 0.3551 -0.9093
vn 0.1156 -0.0169 -0.9932
vn -0.9998 -0.0206 0.0045
vn -0.9770 0.0370 -0.2098
vn -0.2277 0.6920 0.6850
vn -0.2246 0.4963 0.8386
vn -0.0610 0.3049 0.9504
vn -0.0078 -1.0000 0.0000
vn -0.1989 0.8100 0.5517
vn -0.9743 -0.0293 -0.2232
vn -0.1569 0.8085 0.5672
vn -0.0080 -1.0000 -0.0014
vn 0.2610 -0.2127 -0.9416
vn -0.9810 0.0052 -0.1937
vn -0.9565 -0.1006 -0.2739
vn 0.3326 0.3645 -0.8698
vn 0.2901 -0.0406 -0.9561
vn 0.3192 -0.0075 -0.9477
vn 0.1725 -0.0001 -0.9850
vn 0.2494 -0.0021 -0.9684
vn 0.3650 0.0011 -0.9310
vn -0.9745 -0.0151 -0.2237
vn -0.1759 0.8043 0.5676
vn -0.0071 -1.0000 -0.0036
vn -0.9745 0.0010 -0.2243
vn -0.9912 0.0288 -0.1289
vn 0.9616 0.0305 0.2726
vn -0.0916 0.8170 0.5693
vn 0.0071 -1.0000 0.0035
vn 0.9724 0.0639 0.2243
vn 0.9912 -0.0141 0.1315
vn 0.9490 0.0251 0.3142
vn -0.9572 0.0058 -0.2893
vn 0.3008 -0.0112 -0.9536
vn -0.9814 -0.0030 -0.1921
vn -0.2052 0.5081 0.8365
vn 0.1481 -0.0234 -0.9887
vn 0.9841 0.0249 0.1758
vn -0.0933 0.4886 0.8675
vn 0.9845 0.0124 0.1750
vn -0.9857 0.0108 -0.1684
vn -0.9864 0.0186 -0.1636
vn -0.1958 0.8022 0.5640
vn -0.0078 -1.0000 0.0001
vn -0.9808 0.0325 -0.1923
vn -0.9549 -0.0057 -0.2969
vn 0.9808 0.0211 0.1937
vn -0.1297 0.8094 0.5728
vn 0.0079 -1.0000 -0.0002
vn 0.9612 0.0034 0.2759
vn 0.9514 0.0178 0.3074
vn -0.9840 0.0160 -0.1773
vn 0.9912 -0.0063 0.1321
vn 0.9829 0.0178 0.1833
vn 0.9977 0.0251 0.0626
vn 0.0079 -1.0000 -0.0003
vn -0.0739 0.8112 0.5801
vn 0.9924 0.0196 0.1213
vn -0.9617 -0.0998 -0.2552
vn -0.9818 0.0032 -0.1900
vn -0.0081 -1.0000 0.0003
vn -0.1526 0.8087 0.5680
vn -0.9826 0.0086 -0.1854
vn -0.9820 0.0560 -0.1804
vn 0.9823 -0.0779 0.1704
vn 0.9906 -0.0090 0.1366
vn -0.9896 0.0258 -0.1417
vn 0.9798 -0.0115 0.1997
vn -0.9805 0.0230 -0.1951
vn 0.3668 -0.0018 -0.9303
vn 0.2471 -0.0028 -0.9690
vn -0.9719 0.0306 -0.2335
vn -0.0565 0.3010 0.9519
vn -1.0000 0.0050 0.0003
vn 0.9746 -0.0301 0.2220
vn 0.0565 0.3010 0.9519
vn 1.0000 0.0050 0.0003
vn 0.9545 -0.0472 0.2945
vn -0.9555 0.0667 -0.2872
vn 0.2862 0.3781 -0.8804
vn -0.9724 -0.0430 -0.2295
vn -0.0075 -1.0000 -0.0024
vn 0.1689 0.3407 -0.9249
vn 0.9687 0.0441 0.2443
vn 0.0077 -1.0000 0.0025
vn -0.9398 0.0399 -0.3394
vn 0.2808 -0.2170 -0.9349
vn -0.1684 0.8159 0.5532
vn 0.9024 -0.0063 0.4308
vn 0.1622 -0.2072 -0.9648
vn -0.0875 0.8003 0.5932
vn 0.8865 0.0154 0.4624
vn -0.9413 0.0298 -0.3364
vn -0.9828 0.0023 -0.1846
vn 0.9978 -0.0135 0.0653
vn 0.9660 0.0115 0.2583
vn -0.9739 0.0134 -0.2264
vn 0.9726 -0.0105 0.2321
vn -0.9802 -0.0089 -0.1979
vn 0.1719 -0.0017 -0.9851
vn 0.3105 -0.0108 -0.9505
vn -0.9761 0.0040 -0.2172
vn -0.2000 0.6899 0.6957
vn -0.9697 -0.0561 -0.2379
vn 0.9419 0.0031 0.3359
vn -0.1211 0.6887 0.7149
vn 0.9545 0.0970 0.2820
vn 0.9944 0.0244 0.1031
vn -0.9893 0.0377 -0.1413
vn -0.9612 -0.0225 -0.2749
vn 0.9587 0.0539 0.2794
vn 0.0030 0.5050 0.8631
vn 0.9980 0.0499 0.0388
vn -0.0975 0.5161 0.8510
vn -0.9988 -0.0159 -0.0462
vn -0.9604 -0.0223 -0.2777
vn 0.9555 0.0455 0.2915
vn 0.3166 -0.0241 -0.9483
vn 0.1112 -0.0127 -0.9937
vn -0.9816 0.0095 -0.1905
vn 0.9933 0.0143 0.1143
vn 0.9899 0.0233 0.1401
vn -0.9910 0.0126 -0.1335
vn 0.1295 -0.0334 -0.9910
vn 0.2746 -0.0148 -0.9614
vn 0.9536 0.0270 0.2999
vn -0.9619 0.0043 -0.2733
vn -0.9707 0.0474 -0.2356
vn -0.2459 0.4925 0.8349
vn 0.9770 -0.0630 0.2038
vn -0.1224 0.4995 0.8576
vn 0.9546 0.0237 0.2971
vn -0.9558 -0.0262 -0.2929
vn -0.9710 0.0899 -0.2215
vn 0.9830 -0.0124 0.1834
vn 0.9817 0.0051 0.1902
vn -0.9817 0.0046 -0.1903
vn 0.9823 -0.1219 0.1419
vn -0.9820 0.1072 -0.1558
vn -0.9736 -0.0186 -0.2276
vn -0.1544 0.8082 0.5683
vn -0.0076 -1.0000 -0.0024
vn -0.9812 0.0045 -0.1927
vn -0.9929 0.0165 -0.1174
vn 0.9607 0.0629 0.2703
vn -0.0665 0.8127 0.5789
vn 0.0076 -1.0000 0.0026
vn 0.9879 -0.0005 0.1552
vn 0.9935 -0.0097 0.1133
vn 0.9742 -0.0193 0.2248
vn -0.9540 0.0256 -0.2986
vn -0.9920 0.0262 -0.1237
vn 0.9844 0.0168 0.1754
vn 0.9712 0.0527 0.2325
vn -0.9858 0.0206 -0.1667
vn -0.9815 0.0025 -0.1914
vn 0.9902 -0.0293 0.1368
vn -0.9790 -0.0881 -0.1836
vn 0.9752 0.0925 0.2011
vn -0.9888 0.0230 -0.1472
vn 0.9847 -0.0135 0.1735
vn 0.9652 -0.0068 0.2613
vn 0.9770 0.0587 0.2049
vn 0.0078 -1.0000 0.0011
vn -0.0778 0.8097 0.5817
vn 0.9885 0.0187 0.1503
vn -0.9813 0.0669 -0.1805
vn -0.9846 0.0064 -0.1748
vn -0.0080 -1.0000 -0.0011
vn -0.1618 0.8036 0.5727
vn -0.9871 -0.0074 -0.1598
vn -0.9708 -0.0043 -0.2398
vn 0.9685 0.0288 0.2474
vn 0.9928 0.0277 0.1165
vn -0.9941 -0.0048 -0.1087
vn -0.9758 0.0001 -0.2186
vn 0.9528 0.0185 0.3031
vn -0.9480 0.0390 -0.3160
vn 0.9483 -0.0306 0.3159
vn 0.9713 0.0602 0.2301
vn 0.9809 0.0045 0.1947
vn 0.0077 -1.0000 0.0020
vn -0.1170 0.8162 0.5658
vn 0.9577 0.0244 0.2867
vn -0.9711 -0.0521 -0.2331
vn -0.9948 0.0628 -0.0806
vn -0.0077 -1.0000 -0.0019
vn -0.1865 0.7993 0.5712
vn -0.9612 -0.0012 -0.2758
vn -0.9869 0.0233 -0.1597
vn 0.9865 0.0117 0.1631
vn 0.9789 0.0118 0.2042
vn -0.9797 0.0103 -0.2000
vn -0.9767 0.0017 -0.2147
vn 0.9751 0.0331 0.2193
vn 0.9853 -0.0177 0.1699
vn -0.9823 0.0061 -0.1871
vn 0.9998 0.0047 -0.0183
vn -0.9999 0.0068 0.0084
vn 0.9617 0.0172 0.2735
vn -0.9660 0.0152 -0.2582
vn -0.9884 0.0083 -0.1517
vn -0.2005 0.8104 0.5505
vn -0.0077 -1.0000 0.0000
vn -0.9622 -0.0056 -0.2722
vn -0.9967 0.0247 -0.0768
vn 0.9902 0.0254 0.1377
vn -0.1283 0.8089 0.5738
vn 0.9645 0.0013 0.2642
vn 0.9981 -0.0147 0.0602
usemtl Material.001
s off
f 220//1 208//1 15//1 79//1
f 222//2 207//2 10//2 107//2
f 108//3 107//3 10//3 9//3
f 141//4 135//4 11//4 12//4
f 84//5 79//5 15//5 32//5
f 214//6 213//6 14//6 13//6
f 207//7 215//7 9//7 10//7
f 226//8 212//8 11//8 135//8
f 104//9 103//9 23//9 18//9
f 94//10 93//10 21//10 22//10
f 101//11 102//11 19//11 16//11
f 122//12 104//12 18//12 109//12
f 100//13 96//13 20//13 80//13
f 95//14 96//14 7//14 8//14
f 123//15 20//15 17//15 128//15
f 219//16 81//16 31//16 210//16
f 221//17 110//17 28//17 209//17
f 108//18 9//18 28//18 110//18
f 141//19 12//19 29//19 137//19
f 84//20 32//20 31//20 81//20
f 214//21 13//21 30//21 217//21
f 209//22 28//22 9//22 215//22
f 225//23 137//23 29//23 216//23
f 106//24 33//24 23//24 103//24
f 94//25 22//25 36//25 97//25
f 101//26 16//26 34//26 105//26
f 121//27 111//27 33//27 106//27
f 99//28 82//28 35//28 98//28
f 95//29 8//29 27//29 98//29
f 124//30 128//30 17//30 35//30
f 113//31 24//31 1//31 114//31
f 112//32 3//32 4//32 114//32
f 86//33 83//33 6//33 5//33
f 86//34 85//34 27//34 8//34
f 186//35 138//35 45//35 176//35
f 169//36 43//36 42//36 175//36
f 174//37 41//37 46//37 177//37
f 182//38 115//38 43//38 169//38
f 180//39 87//39 44//39 170//39
f 185//40 172//40 39//40 142//40
f 167//41 175//41 42//41 37//41
f 174//42 173//42 40//42 41//42
f 181//43 167//43 37//43 116//43
f 179//44 168//44 38//44 88//44
f 184//45 171//45 54//45 126//45
f 183//46 130//46 53//46 178//46
f 140//47 136//47 49//47 51//47
f 224//48 129//48 50//48 218//48
f 125//49 52//49 50//49 129//49
f 139//50 48//50 49//50 136//50
f 223//51 211//51 47//51 127//51
f 125//52 127//52 47//52 52//52
f 204//53 198//53 66//53 131//53
f 203//54 132//54 65//54 193//54
f 206//55 143//55 63//55 191//55
f 196//56 57//56 62//56 190//56
f 189//57 61//57 64//57 192//57
f 202//58 117//58 57//58 196//58
f 200//59 89//59 58//59 197//59
f 205//60 187//60 59//60 144//60
f 194//61 190//61 62//61 55//61
f 189//62 188//62 60//62 61//62
f 201//63 194//63 55//63 118//63
f 199//64 195//64 56//64 90//64
f 164//65 133//65 78//65 153//65
f 163//66 158//66 77//66 134//66
f 160//67 155//67 74//67 91//67
f 162//68 154//68 73//68 119//68
f 149//69 148//69 68//69 69//69
f 154//70 150//70 70//70 73//70
f 166//71 147//71 67//71 145//71
f 159//72 92//72 76//72 157//72
f 161//73 120//73 75//73 156//73
f 149//74 69//74 72//74 152//74
f 156//75 75//75 70//75 150//75
f 165//76 146//76 71//76 151//76
f 152//77 72//77 92//77 159//77
f 148//78 160//78 91//78 68//78
f 188//79 199//79 90//79 60//79
f 192//80 64//80 89//80 200//80
f 173//81 179//81 88//81 40//81
f 177//82 46//82 87//82 180//82
f 5//83 26//83 85//83 86//83
f 8//84 7//84 83//84 86//84
f 97//85 36//85 82//85 99//85
f 13//86 84//86 81//86 30//86
f 217//87 30//87 81//87 219//87
f 93//88 100//88 80//88 21//88
f 13//89 14//89 79//89 84//89
f 213//90 220//90 79//90 14//90
f 6//91 83//91 100//91 93//91
f 26//92 97//92 99//92 85//92
f 17//93 95//93 98//93 35//93
f 85//94 99//94 98//94 27//94
f 5//95 94//95 97//95 26//95
f 17//96 20//96 96//96 95//96
f 83//97 7//97 96//97 100//97
f 5//98 6//98 93//98 94//98
f 113//99 121//99 106//99 24//99
f 4//100 101//100 105//100 25//100
f 24//101 106//101 103//101 1//101
f 112//102 2//102 104//102 122//102
f 4//103 3//103 102//103 101//103
f 2//104 1//104 103//104 104//104
f 3//105 112//105 122//105 102//105
f 25//106 105//106 121//106 113//106
f 151//107 71//107 120//107 161//107
f 147//108 162//108 119//108 67//108
f 187//109 201//109 118//109 59//109
f 191//110 63//110 117//110 202//110
f 172//111 181//111 116//111 39//111
f 176//112 45//112 115//112 182//112
f 2//113 112//113 114//113 1//113
f 25//114 113//114 114//114 4//114
f 105//115 34//115 111//115 121//115
f 12//116 108//116 110//116 29//116
f 216//117 29//117 110//117 221//117
f 102//118 122//118 109//118 19//118
f 12//119 11//119 107//119 108//119
f 212//120 222//120 107//120 11//120
f 155//121 163//121 134//121 74//121
f 157//122 76//122 133//122 164//122
f 197//123 58//123 132//123 203//123
f 195//124 204//124 131//124 56//124
f 32//125 15//125 127//125 125//125
f 208//126 223//126 127//126 15//126
f 32//127 125//127 129//127 31//127
f 210//128 31//128 129//128 224//128
f 170//129 44//129 130//129 183//129
f 168//130 184//130 126//130 38//130
f 51//131 49//131 128//131 124//131
f 48//132 123//132 128//132 49//132
f 153//133 78//133 146//133 165//133
f 158//134 166//134 145//134 77//134
f 198//135 205//135 144//135 66//135
f 193//136 65//136 143//136 206//136
f 19//137 139//137 136//137 16//137
f 34//138 16//138 136//138 140//138
f 171//139 185//139 142//139 54//139
f 178//140 53//140 138//140 186//140
f 218//141 50//141 137//141 225//141
f 52//142 141//142 137//142 50//142
f 211//143 226//143 135//143 47//143
f 52//144 47//144 135//144 141//144
f 48//145 139//145 166//145 158//145
f 51//146 153//146 165//146 140//146
f 35//147 157//147 164//147 124//147
f 20//148 123//148 163//148 155//148
f 19//149 109//149 162//149 147//149
f 34//150 151//150 161//150 111//150
f 21//151 80//151 160//151 148//151
f 36//152 152//152 159//152 82//152
f 140//153 165//153 151//153 34//153
f 33//154 156//154 150//154 23//154
f 22//155 149//155 152//155 36//155
f 111//156 161//156 156//156 33//156
f 82//157 159//157 157//157 35//157
f 139//158 19//158 147//158 166//158
f 18//159 23//159 150//159 154//159
f 22//160 21//160 148//160 149//160
f 109//161 18//161 154//161 162//161
f 80//162 20//162 155//162 160//162
f 123//163 48//163 158//163 163//163
f 124//164 164//164 153//164 51//164
f 78//165 178//165 186//165 146//165
f 77//166 145//166 185//166 171//166
f 74//167 134//167 184//167 168//167
f 76//168 170//168 183//168 133//168
f 71//169 176//169 182//169 120//169
f 67//170 119//170 181//170 172//170
f 72//171 177//171 180//171 92//171
f 68//172 91//172 179//172 173//172
f 133//173 183//173 178//173 78//173
f 134//174 77//174 171//174 184//174
f 91//175 74//175 168//175 179//175
f 119//176 73//176 167//176 181//176
f 69//177 68//177 173//177 174//177
f 73//178 70//178 175//178 167//178
f 145//179 67//179 172//179 185//179
f 92//180 180//180 170//180 76//180
f 120//181 182//181 169//181 75//181
f 69//182 174//182 177//182 72//182
f 75//183 169//183 175//183 70//183
f 146//184 186//184 176//184 71//184
f 53//185 193//185 206//185 138//185
f 54//186 142//186 205//186 198//186
f 38//187 126//187 204//187 195//187
f 44//188 197//188 203//188 130//188
f 45//189 191//189 202//189 115//189
f 39//190 116//190 201//190 187//190
f 46//191 192//191 200//191 87//191
f 40//192 88//192 199//192 188//192
f 88//193 38//193 195//193 199//193
f 116//194 37//194 194//194 201//194
f 41//195 40//195 188//195 189//195
f 37//196 42//196 190//196 194//196
f 142//197 39//197 187//197 205//197
f 87//198 200//198 197//198 44//198
f 115//199 202//199 196//199 43//199
f 41//200 189//200 192//200 46//200
f 43//201 196//201 190//201 42//201
f 138//202 206//202 191//202 45//202
f 130//203 203//203 193//203 53//203
f 126//204 54//204 198//204 204//204
f 66//205 144//205 226//205 211//205
f 65//206 218//206 225//206 143//206
f 58//207 210//207 224//207 132//207
f 56//208 131//208 223//208 208//208
f 59//209 118//209 222//209 212//209
f 63//210 216//210 221//210 117//210
f 60//211 90//211 220//211 213//211
f 64//212 217//212 219//212 89//212
f 131//213 66//213 211//213 223//213
f 132//214 224//214 218//214 65//214
f 143//215 225//215 216//215 63//215
f 57//216 209//216 215//216 62//216
f 61//217 214//217 217//217 64//217
f 117//218 221//218 209//218 57//218
f 89//219 219//219 210//219 58//219
f 144//220 59//220 212//220 226//220
f 55//221 62//221 215//221 207//221
f 61//6 60//6 213//6 214//6
f 118//222 55//222 207//222 222//222
f 90//223 56//223 208//223 220//223
