# Blender v2.77 (sub 0) OBJ File: 'V1.5 Sail.blend'
# www.blender.org
mtllib V1.5 Sail_000040.mtl
o Cube.001
v 0.000000 12.624714 0.086538
v 0.224089 12.626940 0.068913
v 0.227721 12.095137 0.069912
v 0.000000 12.092911 0.087537
v 0.000000 3.504272 0.103673
v 0.286379 3.506497 0.086048
v 0.280513 4.365361 0.084435
v 0.000000 4.363135 0.102060
v 0.000000 10.680549 2.826737
v 0.224089 10.682775 2.809113
v 0.227721 8.313966 5.121676
v 0.000000 8.311740 5.139301
v 0.000000 3.504272 7.650702
v 0.286379 3.506498 7.633077
v 0.280513 4.625604 7.279371
v 0.000000 9.533196 0.652416
v 0.000000 5.975260 0.731233
v 0.224089 11.790948 1.247199
v 0.227721 9.535422 0.634791
v 0.280513 5.977485 0.713608
v 0.286379 3.506497 3.331271
v 0.000000 3.504272 3.348896
v 0.000000 11.788722 1.264824
v -0.224089 12.626940 0.068913
v -0.227721 12.095137 0.069912
v -0.286379 3.506497 0.086048
v -0.280513 4.365361 0.084435
v -0.224089 10.682775 2.809113
v -0.227721 8.313966 5.121676
v -0.286379 3.506498 7.633077
v -0.280513 4.625604 7.279371
v 0.000000 4.623378 7.296996
v -0.224089 11.790948 1.247199
v -0.227721 9.535422 0.634791
v -0.280513 5.977485 0.713608
v -0.286379 3.506497 3.331271
v 0.224089 11.236861 2.028156
v 0.280513 5.301545 3.996489
v 0.227721 8.924693 2.878233
v 0.286379 3.506497 5.482174
v 0.000000 3.504272 5.499799
v 0.000000 11.234635 2.045781
v -0.224089 11.236861 2.028156
v -0.280513 5.301545 3.996489
v -0.227721 8.924693 2.878233
v -0.286379 3.506497 5.482174
v 0.254117 6.469786 6.200524
v 0.254117 7.756454 0.674199
v 0.000000 7.754228 0.691824
v -0.254117 6.469786 6.200524
v -0.254117 7.756454 0.674199
v 0.000000 6.467560 6.218149
v -0.254117 7.113120 3.437361
v 0.254117 7.113120 3.437361
v 0.224089 10.959818 2.418634
v 0.280513 4.963574 5.637930
v -0.224089 10.959818 2.418634
v -0.280513 4.963574 5.637930
v 0.227721 8.619330 3.999955
v 0.286379 3.506497 6.557625
v 0.000000 3.504272 6.575250
v 0.000000 10.957592 2.436259
v -0.227721 8.619330 3.999955
v -0.286379 3.506497 6.557625
v -0.254117 6.791453 4.818943
v 0.254117 6.791453 4.818943
v 0.227721 9.230058 1.756512
v 0.286379 3.506497 4.406723
v 0.000000 3.504272 4.424347
v 0.000000 11.511679 1.655302
v -0.227721 9.230058 1.756512
v -0.286379 3.506497 4.406723
v 0.224089 11.513905 1.637677
v 0.280513 5.639515 2.355049
v -0.224089 11.513905 1.637677
v -0.280513 5.639515 2.355049
v 0.254117 7.434787 2.055780
v -0.254117 7.434787 2.055780
v 0.283446 4.066051 7.456224
v 0.283446 4.741992 2.022439
v -0.283446 4.066051 7.456224
v -0.283446 4.741992 2.022439
v 0.283446 3.935929 0.085241
v 0.000000 4.063825 7.473849
v -0.283446 3.935929 0.085241
v 0.000000 3.933703 0.102866
v -0.283446 4.404021 4.739332
v 0.283446 4.404021 4.739332
v -0.283446 4.235035 6.097778
v 0.283446 4.235035 6.097778
v 0.283446 4.573006 3.380886
v -0.283446 4.573006 3.380886
v 0.286379 3.506497 1.708659
v 0.000000 3.504272 1.726284
v 0.000000 5.169198 0.416646
v 0.280513 5.171423 0.399021
v -0.286379 3.506497 1.708659
v -0.280513 5.171423 0.399021
v -0.283446 4.338960 1.053841
v 0.283446 4.338960 1.053841
v 0.000000 10.813052 0.369976
v 0.227721 10.815278 0.352352
v 0.000000 12.206718 0.675681
v 0.224089 12.208944 0.658056
v -0.227721 10.815278 0.352352
v -0.224089 12.208944 0.658056
v 0.225905 9.498370 3.965394
v 0.000000 9.496144 3.983019
v 0.225905 10.663184 0.940995
v -0.225905 9.498370 3.965394
v -0.225905 10.663184 0.940995
v 0.225905 12.361038 0.069413
v -0.225905 12.361038 0.069413
v 0.000000 12.358812 0.087038
v -0.225905 10.080777 2.453195
v 0.225905 10.080777 2.453195
v -0.225905 9.789575 3.209295
v 0.225905 9.789575 3.209295
v 0.225905 10.371982 1.697095
v -0.225905 10.371982 1.697095
v -0.225905 11.512111 0.505204
v 0.225905 11.512111 0.505204
v 0.267315 6.866970 0.693904
v -0.267315 6.866970 0.693904
v 0.000000 5.545468 6.757572
v 0.267315 6.207333 3.716925
v 0.267315 5.547694 6.739947
v 0.000000 6.864745 0.711528
v -0.267315 5.547694 6.739947
v -0.267315 6.207333 3.716925
v 0.267315 5.877513 5.228436
v -0.267315 5.877513 5.228436
v -0.267315 6.537152 2.205414
v 0.267315 6.537152 2.205414
v 0.240919 7.391876 5.661100
v 0.000000 8.643712 0.672120
v -0.240919 7.391876 5.661100
v -0.240919 8.018907 3.157798
v 0.240919 8.645938 0.654495
v -0.240919 8.645938 0.654495
v 0.000000 7.389650 5.678725
v 0.240919 8.018907 3.157798
v -0.240919 7.705391 4.409449
v 0.240919 7.705391 4.409449
v 0.240919 8.332421 1.906146
v -0.240919 8.332421 1.906146
v 0.227721 9.382739 1.195652
v 0.286379 3.506497 3.868997
v 0.000000 3.504272 3.886622
v 0.000000 11.650201 1.460063
v -0.227721 9.382739 1.195652
v -0.286379 3.506497 3.868997
v -0.254117 7.595620 1.364990
v 0.224089 11.652427 1.442438
v 0.280513 5.808500 1.534328
v -0.224089 11.652427 1.442438
v -0.280513 5.808500 1.534328
v 0.254117 7.595620 1.364990
v -0.283446 4.657499 2.701663
v 0.283446 4.657499 2.701663
v -0.225905 10.517583 1.319045
v 0.225905 10.517583 1.319045
v 0.267315 6.702061 1.449659
v -0.267315 6.702061 1.449659
v -0.240919 8.489181 1.280321
v 0.240919 8.489181 1.280321
v 0.224089 11.375382 1.832916
v 0.280513 5.470530 3.175769
v -0.224089 11.375382 1.832916
v -0.280513 5.470530 3.175769
v 0.254117 7.273953 2.746571
v 0.227721 9.077376 2.317373
v 0.286379 3.506497 4.944448
v 0.000000 3.504272 4.962073
v 0.000000 11.373157 1.850541
v -0.227721 9.077376 2.317373
v -0.286379 3.506497 4.944448
v -0.254117 7.273953 2.746571
v 0.283446 4.488513 4.060109
v -0.283446 4.488513 4.060109
v 0.225905 10.226379 2.075145
v -0.225905 10.226379 2.075145
v -0.267315 6.372242 2.961170
v 0.267315 6.372242 2.961170
v 0.240919 8.175664 2.531972
v -0.240919 8.175664 2.531972
v 0.227721 8.772012 3.439094
v 0.286379 3.506497 6.019900
v 0.000000 3.504272 6.037525
v 0.000000 11.096114 2.241020
v -0.227721 8.772012 3.439094
v -0.286379 3.506497 6.019900
v -0.254117 6.952286 4.128152
v 0.224089 11.098340 2.223395
v 0.280513 5.132559 4.817210
v -0.224089 11.098340 2.223395
v -0.280513 5.132559 4.817210
v 0.254117 6.952286 4.128152
v 0.283446 4.319528 5.418555
v -0.283446 4.319528 5.418555
v 0.225905 9.935176 2.831245
v -0.225905 9.935176 2.831245
v -0.267315 6.042424 4.472681
v 0.267315 6.042424 4.472681
v 0.240919 7.862149 3.783623
v -0.240919 7.862149 3.783623
v 0.224089 10.821296 2.613873
v 0.280513 4.794589 6.458650
v -0.224089 10.821296 2.613873
v -0.280513 4.794589 6.458650
v 0.254117 6.630620 5.509733
v 0.227721 8.466647 4.560815
v 0.286379 3.506498 7.095351
v 0.000000 3.504272 7.112977
v 0.000000 10.819070 2.631498
v -0.227721 8.466647 4.560815
v -0.286379 3.506498 7.095351
v -0.254117 6.630620 5.509733
v -0.283446 4.150543 6.777001
v 0.283446 4.150543 6.777001
v -0.225905 9.643971 3.587345
v 0.225905 9.643971 3.587345
v 0.267315 5.712604 5.984191
v -0.267315 5.712604 5.984191
v -0.240919 7.548634 5.035274
v 0.240919 7.548634 5.035274
vn 1.0000 0.0052 0.0009
vn 1.0000 0.0028 0.0014
vn 0.0491 0.6977 0.7147
vn 0.0600 0.5044 0.8614
vn 0.0571 0.3010 0.9519
vn 0.0078 -1.0000 0.0000
vn 0.0374 0.8150 0.5782
vn 0.9999 0.0167 0.0044
vn -0.0733 -0.2149 -0.9739
vn 1.0000 0.0015 0.0019
vn 1.0000 0.0015 -0.0014
vn -0.0613 0.3629 -0.9298
vn -0.0640 -0.0226 -0.9977
vn -1.0000 0.0052 0.0009
vn -1.0000 0.0028 0.0014
vn -0.0491 0.6977 0.7147
vn -0.0600 0.5044 0.8614
vn -0.0571 0.3010 0.9519
vn -0.0078 -1.0000 0.0000
vn -0.0374 0.8150 0.5782
vn -0.9999 0.0167 0.0044
vn 0.0733 -0.2149 -0.9739
vn -1.0000 0.0015 0.0019
vn -1.0000 0.0015 -0.0014
vn 0.0613 0.3629 -0.9298
vn 0.0640 -0.0226 -0.9977
vn 0.0781 -0.0021 -0.9969
vn -0.0775 -0.0021 -0.9970
vn -0.0617 -0.0021 -0.9981
vn 0.0624 -0.0021 -0.9981
vn -0.9999 0.0157 0.0041
vn -1.0000 0.0018 0.0009
vn -1.0000 0.0037 0.0006
vn 0.9999 0.0157 0.0041
vn 1.0000 0.0018 0.0009
vn 1.0000 0.0037 0.0006
vn 0.9999 0.0156 0.0035
vn -0.9999 0.0156 0.0035
vn 0.0708 -0.0226 -0.9972
vn -0.9999 0.0164 0.0037
vn -0.0539 0.5045 0.8617
vn -0.0708 -0.0226 -0.9972
vn 0.9999 0.0164 0.0037
vn 0.0539 0.5045 0.8617
vn 0.9999 0.0160 0.0036
vn -0.9999 0.0160 0.0036
vn -0.9999 0.0162 0.0042
vn -1.0000 0.0022 0.0011
vn -1.0000 0.0043 0.0007
vn 0.9999 0.0162 0.0042
vn 1.0000 0.0022 0.0011
vn 1.0000 0.0043 0.0007
vn -0.9999 0.0152 0.0034
vn 0.9999 0.0152 0.0034
vn 1.0000 0.0032 0.0005
vn 1.0000 0.0016 0.0008
vn 0.9999 0.0153 0.0040
vn -1.0000 0.0032 0.0005
vn -1.0000 0.0016 0.0008
vn -0.9999 0.0153 0.0040
vn -1.0000 0.0028 0.0002
vn 1.0000 0.0028 0.0002
vn 1.0000 0.0040 0.0003
vn -1.0000 0.0040 0.0003
vn 1.0000 0.0033 0.0002
vn -1.0000 0.0033 0.0002
vn 0.0617 -0.0021 -0.9981
vn -0.0624 -0.0021 -0.9981
vn -1.0000 0.0025 -0.0004
vn -0.0565 0.3010 0.9519
vn -1.0000 0.0050 0.0003
vn 1.0000 0.0025 -0.0004
vn 0.0565 0.3010 0.9519
vn 1.0000 0.0050 0.0003
vn 1.0000 0.0043 -0.0007
vn -1.0000 0.0043 -0.0007
vn -1.0000 0.0031 -0.0029
vn 1.0000 0.0031 -0.0029
vn -1.0000 0.0032 0.0039
vn 1.0000 0.0032 0.0039
vn 1.0000 0.0026 0.0076
vn -1.0000 0.0026 0.0076
vn -1.0000 0.0016 0.0005
vn 1.0000 0.0016 0.0005
vn 1.0000 0.0019 0.0006
vn -1.0000 0.0019 0.0006
vn 1.0000 0.0017 0.0006
vn -1.0000 0.0017 0.0006
vn -0.0781 -0.0021 -0.9969
vn 0.0775 -0.0021 -0.9970
vn -1.0000 0.0011 0.0034
vn -0.0487 0.6978 0.7147
vn -1.0000 0.0022 0.0007
vn 1.0000 0.0011 0.0034
vn 0.0487 0.6978 0.7147
vn 1.0000 0.0022 0.0007
vn 0.9999 0.0152 0.0032
vn -0.9999 0.0152 0.0032
vn -0.9999 0.0159 0.0034
vn 0.9999 0.0159 0.0034
vn 0.0514 0.5046 0.8619
vn 0.9999 0.0162 0.0034
vn -0.0514 0.5046 0.8619
vn -0.9999 0.0162 0.0034
vn -0.9999 0.0155 0.0033
vn 0.9999 0.0155 0.0033
vn 0.0672 -0.0226 -0.9975
vn -0.0672 -0.0226 -0.9975
vn -0.9999 0.0152 0.0037
vn 0.9999 0.0152 0.0037
vn 0.9999 0.0161 0.0039
vn -0.9999 0.0161 0.0039
vn -0.0748 -0.0226 -0.9969
vn 0.0748 -0.0226 -0.9969
vn 0.9999 0.0156 0.0038
vn -0.9999 0.0156 0.0038
vn -0.9999 0.0165 0.0040
vn -0.0568 0.5044 0.8616
vn 0.9999 0.0165 0.0040
vn 0.0568 0.5044 0.8616
vn 0.9999 0.0150 0.0036
vn -0.9999 0.0150 0.0036
vn -0.9999 0.0150 0.0032
vn 0.9999 0.0150 0.0032
vn 1.0000 0.0015 0.0005
vn -1.0000 0.0015 0.0005
vn 1.0000 0.0026 0.0002
vn -1.0000 0.0026 0.0002
vn -0.9999 0.0150 0.0039
vn -1.0000 0.0015 0.0007
vn -1.0000 0.0030 0.0005
vn 0.9999 0.0150 0.0039
vn 1.0000 0.0015 0.0007
vn 1.0000 0.0030 0.0005
vn 0.9999 0.0150 0.0034
vn -0.9999 0.0150 0.0034
vn -0.9999 0.0154 0.0037
vn 0.9999 0.0154 0.0037
vn 0.9999 0.0153 0.0032
vn -0.9999 0.0153 0.0032
vn -1.0000 0.0017 0.0005
vn 1.0000 0.0017 0.0005
vn -1.0000 0.0031 0.0002
vn 1.0000 0.0031 0.0002
vn -0.9999 0.0154 0.0035
vn 0.9999 0.0154 0.0035
vn 1.0000 0.0034 0.0006
vn 1.0000 0.0017 0.0008
vn 0.9999 0.0155 0.0040
vn -1.0000 0.0034 0.0006
vn -1.0000 0.0017 0.0008
vn -0.9999 0.0155 0.0040
vn -0.9999 0.0159 0.0038
vn 0.9999 0.0159 0.0038
vn 0.9999 0.0157 0.0033
vn -0.9999 0.0157 0.0033
vn -1.0000 0.0018 0.0006
vn 1.0000 0.0018 0.0006
vn -1.0000 0.0036 0.0003
vn 1.0000 0.0036 0.0003
vn 1.0000 0.0040 0.0007
vn 1.0000 0.0020 0.0010
vn 0.9999 0.0160 0.0042
vn -1.0000 0.0040 0.0007
vn -1.0000 0.0020 0.0010
vn -0.9999 0.0160 0.0042
vn -0.9999 0.0158 0.0035
vn 0.9999 0.0158 0.0035
vn 0.9999 0.0163 0.0039
vn -0.9999 0.0163 0.0039
vn -0.9999 0.0160 0.0034
vn 0.9999 0.0160 0.0034
vn 1.0000 0.0020 0.0006
vn -1.0000 0.0020 0.0006
vn 1.0000 0.0044 0.0003
vn -1.0000 0.0044 0.0003
vn 0.9999 0.0162 0.0036
vn -0.9999 0.0162 0.0036
vn -0.9999 0.0165 0.0043
vn -1.0000 0.0025 0.0012
vn -1.0000 0.0047 0.0008
vn 0.9999 0.0165 0.0043
vn 1.0000 0.0025 0.0012
vn 1.0000 0.0047 0.0008
usemtl Material.001
s off
f 220//1 208//1 15//1 79//1
f 222//2 207//2 10//2 107//2
f 108//3 107//3 10//3 9//3
f 141//4 135//4 11//4 12//4
f 84//5 79//5 15//5 32//5
f 214//6 213//6 14//6 13//6
f 207//7 215//7 9//7 10//7
f 226//8 212//8 11//8 135//8
f 104//7 103//7 23//7 18//7
f 94//6 93//6 21//6 22//6
f 101//9 102//9 19//9 16//9
f 122//10 104//10 18//10 109//10
f 100//11 96//11 20//11 80//11
f 95//12 96//12 7//12 8//12
f 123//13 20//13 17//13 128//13
f 219//14 81//14 31//14 210//14
f 221//15 110//15 28//15 209//15
f 108//16 9//16 28//16 110//16
f 141//17 12//17 29//17 137//17
f 84//18 32//18 31//18 81//18
f 214//19 13//19 30//19 217//19
f 209//20 28//20 9//20 215//20
f 225//21 137//21 29//21 216//21
f 106//20 33//20 23//20 103//20
f 94//19 22//19 36//19 97//19
f 101//22 16//22 34//22 105//22
f 121//23 111//23 33//23 106//23
f 99//24 82//24 35//24 98//24
f 95//25 8//25 27//25 98//25
f 124//26 128//26 17//26 35//26
f 113//27 24//27 1//27 114//27
f 112//28 3//28 4//28 114//28
f 86//29 83//29 6//29 5//29
f 86//30 85//30 27//30 8//30
f 186//31 138//31 45//31 176//31
f 169//20 43//20 42//20 175//20
f 174//19 41//19 46//19 177//19
f 182//32 115//32 43//32 169//32
f 180//33 87//33 44//33 170//33
f 185//34 172//34 39//34 142//34
f 167//7 175//7 42//7 37//7
f 174//6 173//6 40//6 41//6
f 181//35 167//35 37//35 116//35
f 179//36 168//36 38//36 88//36
f 184//37 171//37 54//37 126//37
f 183//38 130//38 53//38 178//38
f 140//39 136//39 49//39 51//39
f 224//40 129//40 50//40 218//40
f 125//41 52//41 50//41 129//41
f 139//42 48//42 49//42 136//42
f 223//43 211//43 47//43 127//43
f 125//44 127//44 47//44 52//44
f 204//45 198//45 66//45 131//45
f 203//46 132//46 65//46 193//46
f 206//47 143//47 63//47 191//47
f 196//20 57//20 62//20 190//20
f 189//19 61//19 64//19 192//19
f 202//48 117//48 57//48 196//48
f 200//49 89//49 58//49 197//49
f 205//50 187//50 59//50 144//50
f 194//7 190//7 62//7 55//7
f 189//6 188//6 60//6 61//6
f 201//51 194//51 55//51 118//51
f 199//52 195//52 56//52 90//52
f 164//53 133//53 78//53 153//53
f 163//54 158//54 77//54 134//54
f 160//55 155//55 74//55 91//55
f 162//56 154//56 73//56 119//56
f 149//6 148//6 68//6 69//6
f 154//7 150//7 70//7 73//7
f 166//57 147//57 67//57 145//57
f 159//58 92//58 76//58 157//58
f 161//59 120//59 75//59 156//59
f 149//19 69//19 72//19 152//19
f 156//20 75//20 70//20 150//20
f 165//60 146//60 71//60 151//60
f 152//61 72//61 92//61 159//61
f 148//62 160//62 91//62 68//62
f 188//63 199//63 90//63 60//63
f 192//64 64//64 89//64 200//64
f 173//65 179//65 88//65 40//65
f 177//66 46//66 87//66 180//66
f 5//67 26//67 85//67 86//67
f 8//68 7//68 83//68 86//68
f 97//69 36//69 82//69 99//69
f 13//70 84//70 81//70 30//70
f 217//71 30//71 81//71 219//71
f 93//72 100//72 80//72 21//72
f 13//73 14//73 79//73 84//73
f 213//74 220//74 79//74 14//74
f 6//75 83//75 100//75 93//75
f 26//76 97//76 99//76 85//76
f 17//25 95//25 98//25 35//25
f 85//77 99//77 98//77 27//77
f 5//19 94//19 97//19 26//19
f 17//12 20//12 96//12 95//12
f 83//78 7//78 96//78 100//78
f 5//6 6//6 93//6 94//6
f 113//79 121//79 106//79 24//79
f 4//22 101//22 105//22 25//22
f 24//20 106//20 103//20 1//20
f 112//80 2//80 104//80 122//80
f 4//9 3//9 102//9 101//9
f 2//7 1//7 103//7 104//7
f 3//81 112//81 122//81 102//81
f 25//82 105//82 121//82 113//82
f 151//83 71//83 120//83 161//83
f 147//84 162//84 119//84 67//84
f 187//85 201//85 118//85 59//85
f 191//86 63//86 117//86 202//86
f 172//87 181//87 116//87 39//87
f 176//88 45//88 115//88 182//88
f 2//89 112//89 114//89 1//89
f 25//90 113//90 114//90 4//90
f 105//91 34//91 111//91 121//91
f 12//92 108//92 110//92 29//92
f 216//93 29//93 110//93 221//93
f 102//94 122//94 109//94 19//94
f 12//95 11//95 107//95 108//95
f 212//96 222//96 107//96 11//96
f 155//97 163//97 134//97 74//97
f 157//98 76//98 133//98 164//98
f 197//99 58//99 132//99 203//99
f 195//100 204//100 131//100 56//100
f 32//101 15//101 127//101 125//101
f 208//102 223//102 127//102 15//102
f 32//103 125//103 129//103 31//103
f 210//104 31//104 129//104 224//104
f 170//105 44//105 130//105 183//105
f 168//106 184//106 126//106 38//106
f 51//107 49//107 128//107 124//107
f 48//108 123//108 128//108 49//108
f 153//109 78//109 146//109 165//109
f 158//110 166//110 145//110 77//110
f 198//111 205//111 144//111 66//111
f 193//112 65//112 143//112 206//112
f 19//113 139//113 136//113 16//113
f 34//114 16//114 136//114 140//114
f 171//115 185//115 142//115 54//115
f 178//116 53//116 138//116 186//116
f 218//117 50//117 137//117 225//117
f 52//118 141//118 137//118 50//118
f 211//119 226//119 135//119 47//119
f 52//120 47//120 135//120 141//120
f 48//121 139//121 166//121 158//121
f 51//122 153//122 165//122 140//122
f 35//123 157//123 164//123 124//123
f 20//124 123//124 163//124 155//124
f 19//125 109//125 162//125 147//125
f 34//126 151//126 161//126 111//126
f 21//127 80//127 160//127 148//127
f 36//128 152//128 159//128 82//128
f 140//129 165//129 151//129 34//129
f 33//20 156//20 150//20 23//20
f 22//19 149//19 152//19 36//19
f 111//130 161//130 156//130 33//130
f 82//131 159//131 157//131 35//131
f 139//132 19//132 147//132 166//132
f 18//7 23//7 150//7 154//7
f 22//6 21//6 148//6 149//6
f 109//133 18//133 154//133 162//133
f 80//134 20//134 155//134 160//134
f 123//135 48//135 158//135 163//135
f 124//136 164//136 153//136 51//136
f 78//137 178//137 186//137 146//137
f 77//138 145//138 185//138 171//138
f 74//139 134//139 184//139 168//139
f 76//140 170//140 183//140 133//140
f 71//141 176//141 182//141 120//141
f 67//142 119//142 181//142 172//142
f 72//143 177//143 180//143 92//143
f 68//144 91//144 179//144 173//144
f 133//145 183//145 178//145 78//145
f 134//146 77//146 171//146 184//146
f 91//147 74//147 168//147 179//147
f 119//148 73//148 167//148 181//148
f 69//6 68//6 173//6 174//6
f 73//7 70//7 175//7 167//7
f 145//149 67//149 172//149 185//149
f 92//150 180//150 170//150 76//150
f 120//151 182//151 169//151 75//151
f 69//19 174//19 177//19 72//19
f 75//20 169//20 175//20 70//20
f 146//152 186//152 176//152 71//152
f 53//153 193//153 206//153 138//153
f 54//154 142//154 205//154 198//154
f 38//155 126//155 204//155 195//155
f 44//156 197//156 203//156 130//156
f 45//157 191//157 202//157 115//157
f 39//158 116//158 201//158 187//158
f 46//159 192//159 200//159 87//159
f 40//160 88//160 199//160 188//160
f 88//161 38//161 195//161 199//161
f 116//162 37//162 194//162 201//162
f 41//6 40//6 188//6 189//6
f 37//7 42//7 190//7 194//7
f 142//163 39//163 187//163 205//163
f 87//164 200//164 197//164 44//164
f 115//165 202//165 196//165 43//165
f 41//19 189//19 192//19 46//19
f 43//20 196//20 190//20 42//20
f 138//166 206//166 191//166 45//166
f 130//167 203//167 193//167 53//167
f 126//168 54//168 198//168 204//168
f 66//169 144//169 226//169 211//169
f 65//170 218//170 225//170 143//170
f 58//171 210//171 224//171 132//171
f 56//172 131//172 223//172 208//172
f 59//173 118//173 222//173 212//173
f 63//174 216//174 221//174 117//174
f 60//175 90//175 220//175 213//175
f 64//176 217//176 219//176 89//176
f 131//177 66//177 211//177 223//177
f 132//178 224//178 218//178 65//178
f 143//179 225//179 216//179 63//179
f 57//20 209//20 215//20 62//20
f 61//19 214//19 217//19 64//19
f 117//180 221//180 209//180 57//180
f 89//181 219//181 210//181 58//181
f 144//182 59//182 212//182 226//182
f 55//7 62//7 215//7 207//7
f 61//6 60//6 213//6 214//6
f 118//183 55//183 207//183 222//183
f 90//184 56//184 208//184 220//184
