# Blender v2.77 (sub 0) OBJ File: 'V1.5 Sail.blend'
# www.blender.org
mtllib V1.5 Sail_000016.mtl
o Cube.001
v 0.032956 12.624714 0.089466
v 0.256455 12.626940 0.095465
v 0.258016 12.095137 0.096465
v 0.025840 12.092911 0.089833
v 0.047216 3.504272 0.107868
v 0.332565 3.506497 0.127968
v 0.324199 4.365361 0.124895
v 0.045658 4.363135 0.106116
v -0.235423 10.680549 2.805824
v -0.011495 10.682775 2.814548
v -0.220063 8.313966 5.101993
v -0.450133 8.311740 5.099313
v -0.528832 3.504272 7.603722
v -0.242453 3.506498 7.586097
v -0.253096 4.625604 7.232871
v -0.063252 9.533196 0.646797
v -0.081931 5.975260 0.723954
v 0.105860 11.790948 1.253028
v 0.160002 9.535422 0.646405
v 0.198814 5.977485 0.730300
v 0.003172 3.506497 3.349102
v -0.283521 3.504272 3.323709
v -0.118225 11.788722 1.254321
v -0.187217 12.626940 0.048482
v -0.201944 12.095137 0.049360
v -0.233543 3.506497 0.052928
v -0.230403 4.365361 0.052310
v -0.455025 10.682775 2.762234
v -0.665920 8.313966 5.063978
v -0.815212 3.506498 7.586097
v -0.813963 4.625604 7.231078
v -0.532830 4.623378 7.249661
v -0.330505 11.790948 1.219025
v -0.287856 9.535422 0.611112
v -0.356870 5.977485 0.682603
v -0.561990 3.506497 3.263785
v 0.052743 11.236861 2.036323
v -0.062642 5.301545 3.979093
v -0.007114 8.924693 2.884500
v -0.194927 3.506497 5.481753
v -0.481423 3.504272 5.457032
v -0.172394 11.234635 2.030466
v -0.393499 11.236861 1.989708
v -0.619791 5.301545 3.951506
v -0.462586 8.924693 2.831660
v -0.760703 3.506497 5.398272
v -0.292141 6.469786 6.177474
v 0.212204 7.756454 0.694370
v -0.021763 7.754228 0.689891
v -0.800520 6.469786 6.124753
v -0.272465 7.756454 0.645338
v -0.547035 6.467560 6.169552
v -0.546985 7.113120 3.383021
v -0.044689 7.113120 3.437586
v 0.035539 10.959818 2.428940
v -0.210717 4.963574 5.625684
v -0.408398 10.959818 2.375290
v -0.766208 4.963574 5.563395
v -0.128795 8.619330 3.985574
v -0.244055 3.506497 6.511102
v -0.529308 3.504272 6.528229
v -0.188791 10.957592 2.419488
v -0.578508 8.619330 3.954434
v -0.816708 3.506497 6.509916
v -0.649053 6.791453 4.766937
v -0.139781 6.791453 4.799373
v 0.083568 9.230058 1.762853
v -0.058720 3.506497 4.385028
v -0.344000 3.504272 4.393789
v -0.141994 11.511679 1.642688
v -0.376275 9.230058 1.725246
v -0.626681 3.506497 4.365499
v 0.081872 11.513905 1.643683
v 0.117217 5.639515 2.371944
v -0.362977 11.513905 1.606682
v -0.469509 5.639515 2.315734
v 0.098346 7.434787 2.069228
v -0.423620 7.434787 2.020973
v -0.245386 4.066051 7.409245
v 0.106638 4.741992 2.024305
v -0.812279 4.066051 7.409245
v -0.457451 4.741992 1.991421
v 0.329635 3.935929 0.126751
v -0.528832 4.063825 7.426870
v -0.230670 3.935929 0.052524
v 0.047124 3.933703 0.107052
v -0.629767 4.404021 4.689878
v -0.067649 4.404021 4.717420
v -0.815519 4.235035 6.046993
v -0.252598 4.235035 6.056731
v 0.000403 4.573006 3.387403
v -0.572680 4.573006 3.326187
v 0.120098 3.506497 1.730872
v -0.160955 3.504272 1.711986
v -0.006734 5.169198 0.416048
v 0.272861 5.171423 0.432581
v -0.440310 3.506497 1.644943
v -0.282131 5.171423 0.364639
v -0.324207 4.338960 1.000636
v 0.225134 4.338960 1.094798
v -0.025805 10.813052 0.367684
v 0.212892 10.815278 0.372855
v -0.075130 12.206718 0.669007
v 0.148808 12.208944 0.667720
v -0.255693 10.815278 0.330290
v -0.281332 12.208944 0.634240
v -0.132697 9.498370 3.958436
v -0.357984 9.496144 3.951218
v 0.129056 10.663184 0.948681
v -0.574049 9.498370 3.913717
v -0.308948 10.663184 0.915168
v 0.257909 12.361038 0.096112
v -0.193625 12.361038 0.048883
v 0.031109 12.358812 0.089801
v -0.436354 10.080777 2.412097
v 0.042387 10.080777 2.464919
v -0.499324 9.789575 3.159320
v -0.053419 9.789575 3.209447
v 0.103520 10.371982 1.708936
v -0.370025 10.371982 1.665991
v -0.271522 11.512111 0.482427
v 0.174677 11.512111 0.519052
v 0.195812 6.866970 0.708989
v -0.296456 6.866970 0.662258
v -0.560016 5.545468 6.707823
v -0.062682 6.207333 3.705868
v -0.287978 5.547694 6.702000
v -0.031698 6.864745 0.708713
v -0.823436 5.547694 6.678405
v -0.594959 6.207333 3.670074
v -0.170613 5.877513 5.212018
v -0.698207 5.877513 5.165893
v -0.444894 6.537152 2.169224
v 0.088337 6.537152 2.215350
v -0.216376 7.391876 5.636588
v -0.042004 8.643712 0.668389
v -0.709063 7.391876 5.601237
v -0.502048 8.018907 3.105887
v 0.200871 8.645938 0.673977
v -0.282551 8.645938 0.628685
v -0.482023 7.389650 5.635904
v -0.023439 8.018907 3.164072
v -0.612000 7.705391 4.362531
v -0.134030 7.705391 4.391030
v 0.092278 8.332421 1.917869
v -0.400057 8.332421 1.873135
v 0.112453 9.382739 1.201599
v -0.067397 3.506497 3.850827
v -0.353364 3.504272 3.855231
v -0.127942 11.650201 1.448697
v -0.332975 9.382739 1.168300
v -0.637817 3.506497 3.824527
v -0.367074 7.595620 1.333820
v 0.095250 11.652427 1.448633
v 0.132841 5.808500 1.544235
v -0.346775 11.652427 1.412842
v -0.424017 5.808500 1.498476
v 0.130567 7.595620 1.372714
v -0.466776 4.657499 2.659744
v 0.099604 4.657499 2.714754
v -0.339865 10.517583 1.290604
v 0.101964 10.517583 1.324262
v 0.138021 6.702061 1.460079
v -0.390719 6.702061 1.415917
v -0.349313 8.489181 1.251174
v 0.121842 8.489181 1.287067
v 0.066134 11.375382 1.837797
v 0.023814 5.470530 3.185316
v -0.376133 11.375382 1.798251
v -0.529555 5.470530 3.118962
v 0.044836 7.273953 2.759993
v 0.052523 9.077376 2.328145
v -0.089878 3.506497 4.949669
v -0.376172 3.504272 4.928656
v -0.156045 11.373157 1.836679
v -0.422325 9.077376 2.277924
v -0.655658 3.506497 4.873834
v -0.463467 7.273953 2.697729
v -0.069265 4.488513 4.036047
v -0.634940 4.488513 4.022022
v 0.076311 10.226379 2.088431
v -0.399632 10.226379 2.038011
v -0.497683 6.372242 2.908670
v 0.033352 6.372242 2.973522
v 0.050016 8.175664 2.544143
v -0.432677 8.175664 2.487126
v -0.072806 8.772012 3.439577
v -0.249205 3.506497 5.980584
v -0.534583 3.504272 5.990036
v -0.170310 11.096114 2.225891
v -0.528524 8.772012 3.390784
v -0.820424 3.506497 5.964326
v -0.607781 6.952286 4.081490
v 0.058328 11.098340 2.235828
v -0.096765 5.132559 4.804317
v -0.400273 11.098340 2.182689
v -0.651201 5.132559 4.760631
v -0.102285 6.952286 4.111945
v -0.177417 4.319528 5.419163
v -0.736985 4.319528 5.336715
v -0.009887 9.935176 2.836298
v -0.457113 9.935176 2.784706
v -0.635634 6.042424 4.424781
v -0.102497 6.042424 4.454035
v -0.096681 7.862149 3.771690
v -0.577173 7.862149 3.738559
v 0.011191 10.821296 2.621572
v -0.260037 4.794589 6.417270
v -0.432016 10.821296 2.568738
v -0.819893 4.794589 6.404094
v -0.216308 6.630620 5.489485
v -0.158696 8.466647 4.540800
v -0.242453 3.506498 7.048372
v -0.528832 3.504272 7.065998
v -0.212721 10.819070 2.612601
v -0.611331 8.466647 4.512556
v -0.815212 3.506498 7.048372
v -0.716731 6.630620 5.447802
v -0.812279 4.150543 6.730022
v -0.245386 4.150543 6.730022
v -0.541742 9.643971 3.537984
v -0.093021 9.643971 3.585042
v -0.260348 5.712604 5.961874
v -0.789964 5.712604 5.913694
v -0.656279 7.548634 4.981529
v -0.169888 7.548634 5.013700
vn 0.9998 0.0179 -0.0016
vn 0.9937 0.0050 0.1119
vn -0.0323 0.6963 0.7170
vn -0.0104 0.5024 0.8646
vn 0.0558 0.3013 0.9519
vn 0.0078 -1.0000 -0.0000
vn -0.0310 0.8139 0.5802
vn 0.9931 0.0531 0.1043
vn -0.0047 0.8139 0.5809
vn 0.0078 -1.0000 0.0006
vn 0.0122 -0.2114 -0.9773
vn 0.9958 0.0040 0.0919
vn 0.9925 0.0415 0.1148
vn 0.0560 0.3603 -0.9311
vn 0.0132 -0.0209 -0.9997
vn -1.0000 -0.0065 0.0028
vn -0.9960 0.0173 -0.0881
vn -0.1243 0.6972 0.7060
vn -0.1300 0.5029 0.8545
vn -0.0586 0.3019 0.9515
vn -0.0078 -1.0000 0.0000
vn -0.1055 0.8142 0.5709
vn -0.9958 -0.0026 -0.0920
vn -0.0875 0.8138 0.5745
vn -0.0078 -1.0000 -0.0006
vn 0.1530 -0.2151 -0.9645
vn -0.9967 0.0031 -0.0810
vn -0.9921 -0.0427 -0.1182
vn 0.1774 0.3643 -0.9142
vn 0.1603 -0.0297 -0.9866
vn 0.1810 -0.0042 -0.9835
vn 0.0282 -0.0010 -0.9996
vn 0.0699 -0.0021 -0.9975
vn 0.1920 -0.0010 -0.9814
vn -0.9957 0.0027 -0.0924
vn -0.0951 0.8121 0.5757
vn -0.0077 -1.0000 -0.0015
vn -0.9955 0.0015 -0.0944
vn -0.9984 0.0139 -0.0543
vn 0.9928 0.0220 0.1181
vn -0.0171 0.8173 0.5759
vn 0.0076 -1.0000 0.0015
vn 0.9950 0.0281 0.0958
vn 0.9984 -0.0042 0.0567
vn 0.9907 0.0198 0.1350
vn -0.9925 0.0117 -0.1214
vn 0.1689 -0.0183 -0.9855
vn -0.9968 0.0082 -0.0792
vn -0.1182 0.5076 0.8534
vn 0.0213 -0.0232 -0.9995
vn 0.9968 0.0200 0.0768
vn -0.0077 0.4993 0.8664
vn 0.9970 0.0145 0.0761
vn -0.9975 0.0139 -0.0694
vn -0.9976 0.0173 -0.0667
vn -0.1038 0.8115 0.5750
vn -0.0078 -1.0000 0.0001
vn -0.9966 0.0151 -0.0809
vn -0.9919 -0.0003 -0.1269
vn 0.9962 0.0183 0.0847
vn -0.0328 0.8141 0.5797
vn 0.0078 -1.0000 -0.0001
vn 0.9930 0.0028 0.1177
vn 0.9914 0.0095 0.1302
vn -0.9972 0.0156 -0.0731
vn 0.9983 0.0061 0.0577
vn 0.9969 0.0093 0.0779
vn 0.9996 0.0118 0.0262
vn -0.0093 0.8148 0.5796
vn 0.9984 0.0173 0.0534
vn -0.9933 -0.0407 -0.1083
vn -0.9968 0.0023 -0.0801
vn -0.0079 -1.0000 0.0001
vn -0.0857 0.8139 0.5747
vn -0.9970 0.0125 -0.0763
vn -0.9968 0.0251 -0.0765
vn 0.9969 -0.0319 0.0725
vn 0.9982 -0.0016 0.0597
vn -0.9982 0.0134 -0.0586
vn 0.9964 -0.0028 0.0847
vn -0.9965 0.0118 -0.0826
vn 0.1923 -0.0020 -0.9813
vn 0.0684 -0.0027 -0.9977
vn -0.9950 0.0141 -0.0994
vn -0.0565 0.3010 0.9519
vn -1.0000 0.0050 0.0003
vn 0.9955 -0.0114 0.0938
vn 0.0565 0.3010 0.9519
vn 1.0000 0.0050 0.0003
vn 0.9920 -0.0171 0.1250
vn -0.9920 0.0311 -0.1222
vn 0.1573 0.3701 -0.9156
vn -0.9950 -0.0165 -0.0989
vn -0.0077 -1.0000 -0.0010
vn 0.0353 0.3543 -0.9345
vn 0.9946 0.0204 0.1021
vn 0.0078 -1.0000 0.0010
vn -0.9895 0.0190 -0.1433
vn 0.1617 -0.2168 -0.9627
vn -0.0927 0.8166 0.5697
vn 0.9823 -0.0009 0.1872
vn 0.0265 -0.2125 -0.9768
vn -0.0142 0.8105 0.5856
vn 0.9789 0.0080 0.2041
vn -0.9901 0.0143 -0.1398
vn -0.9970 0.0019 -0.0780
vn 0.9996 -0.0050 0.0273
vn 0.9940 0.0058 0.1095
vn -0.9954 0.0068 -0.0956
vn 0.9951 -0.0034 0.0987
vn -0.9965 -0.0028 -0.0836
vn 0.0273 -0.0019 -0.9996
vn 0.1770 -0.0055 -0.9842
vn -0.9959 0.0024 -0.0901
vn -0.1124 0.6964 0.7088
vn -0.9947 -0.0223 -0.1004
vn 0.9895 0.0020 0.1446
vn -0.0224 0.6960 0.7177
vn 0.9917 0.0433 0.1210
vn 0.9988 0.0193 0.0453
vn -0.9980 0.0248 -0.0581
vn -0.9934 -0.0005 -0.1144
vn 0.9921 0.0320 0.1211
vn 0.0313 0.5033 0.8635
vn 0.9994 0.0296 0.0197
vn -0.0715 0.5080 0.8584
vn -0.9999 0.0015 -0.0170
vn -0.9931 -0.0007 -0.1170
vn 0.9918 0.0283 0.1248
vn 0.1736 -0.0231 -0.9845
vn 0.0105 -0.0189 -0.9998
vn -0.9968 0.0129 -0.0786
vn 0.9986 0.0149 0.0500
vn 0.9979 0.0192 0.0618
vn -0.9984 0.0147 -0.0545
vn 0.0114 -0.0272 -0.9996
vn 0.1598 -0.0193 -0.9870
vn 0.9914 0.0206 0.1296
vn -0.9934 0.0109 -0.1138
vn -0.9948 0.0297 -0.0975
vn -0.1366 0.5014 0.8544
vn 0.9959 -0.0171 0.0888
vn -0.0186 0.5044 0.8633
vn 0.9916 0.0188 0.1280
vn -0.9924 -0.0026 -0.1228
vn -0.9946 0.0469 -0.0923
vn 0.9968 0.0035 0.0796
vn 0.9967 0.0031 0.0809
vn -0.9968 0.0028 -0.0804
vn 0.9969 -0.0497 0.0614
vn -0.9967 0.0479 -0.0658
vn -0.9956 0.0009 -0.0942
vn -0.0865 0.8137 0.5749
vn -0.9967 0.0028 -0.0812
vn -0.9987 0.0082 -0.0501
vn 0.9925 0.0354 0.1169
vn -0.0064 0.8154 0.5789
vn 0.0077 -1.0000 0.0011
vn 0.9978 0.0006 0.0662
vn 0.9988 -0.0029 0.0480
vn 0.9953 0.0006 0.0972
vn -0.9919 0.0195 -0.1255
vn -0.9985 0.0200 -0.0511
vn 0.9969 0.0161 0.0764
vn 0.9944 0.0313 0.1005
vn -0.9975 0.0176 -0.0691
vn -0.9967 0.0020 -0.0809
vn 0.9983 -0.0116 0.0579
vn -0.9963 -0.0357 -0.0780
vn 0.9955 0.0411 0.0856
vn -0.9980 0.0186 -0.0610
vn 0.9972 0.0032 0.0754
vn 0.9939 -0.0010 0.1107
vn 0.9958 0.0259 0.0874
vn 0.0078 -1.0000 0.0004
vn -0.0109 0.8143 0.5804
vn 0.9977 0.0170 0.0658
vn -0.9966 0.0303 -0.0762
vn -0.9973 0.0037 -0.0738
vn -0.0078 -1.0000 -0.0005
vn -0.0892 0.8118 0.5770
vn -0.9978 0.0059 -0.0657
vn -0.9950 0.0073 -0.0999
vn 0.9941 0.0214 0.1068
vn 0.9985 0.0208 0.0513
vn -0.9990 0.0071 -0.0445
vn -0.9957 0.0011 -0.0923
vn 0.9916 0.0089 0.1291
vn -0.9907 0.0187 -0.1351
vn 0.9908 -0.0110 0.1346
vn 0.9948 0.0280 0.0984
vn 0.9965 0.0031 0.0830
vn 0.0078 -1.0000 0.0008
vn -0.0280 0.8181 0.5744
vn 0.9921 0.0197 0.1238
vn -0.9950 -0.0197 -0.0982
vn -0.9990 0.0276 -0.0348
vn -0.0078 -1.0000 -0.0008
vn -0.0994 0.8107 0.5770
vn -0.9933 0.0087 -0.1153
vn -0.9977 0.0190 -0.0654
vn 0.9973 0.0140 0.0715
vn 0.9959 0.0145 0.0888
vn -0.9965 0.0139 -0.0824
vn -0.9960 0.0101 -0.0891
vn 0.9952 0.0234 0.0948
vn 0.9974 -0.0065 0.0724
vn -0.9969 0.0037 -0.0789
vn 1.0000 0.0044 -0.0070
vn -1.0000 0.0054 0.0043
vn 0.9928 0.0166 0.1184
vn -0.9941 0.0157 -0.1074
vn -0.9980 0.0131 -0.0619
vn -0.1062 0.8143 0.5706
vn -0.9933 -0.0012 -0.1152
vn -0.9994 0.0120 -0.0311
vn 0.9979 0.0203 0.0611
vn -0.0319 0.8137 0.5804
vn 0.9936 0.0021 0.1129
vn 0.9996 -0.0047 0.0279
usemtl Material.001
s off
f 220//1 208//1 15//1 79//1
f 222//2 207//2 10//2 107//2
f 108//3 107//3 10//3 9//3
f 141//4 135//4 11//4 12//4
f 84//5 79//5 15//5 32//5
f 214//6 213//6 14//6 13//6
f 207//7 215//7 9//7 10//7
f 226//8 212//8 11//8 135//8
f 104//9 103//9 23//9 18//9
f 94//10 93//10 21//10 22//10
f 101//11 102//11 19//11 16//11
f 122//12 104//12 18//12 109//12
f 100//13 96//13 20//13 80//13
f 95//14 96//14 7//14 8//14
f 123//15 20//15 17//15 128//15
f 219//16 81//16 31//16 210//16
f 221//17 110//17 28//17 209//17
f 108//18 9//18 28//18 110//18
f 141//19 12//19 29//19 137//19
f 84//20 32//20 31//20 81//20
f 214//21 13//21 30//21 217//21
f 209//22 28//22 9//22 215//22
f 225//23 137//23 29//23 216//23
f 106//24 33//24 23//24 103//24
f 94//25 22//25 36//25 97//25
f 101//26 16//26 34//26 105//26
f 121//27 111//27 33//27 106//27
f 99//28 82//28 35//28 98//28
f 95//29 8//29 27//29 98//29
f 124//30 128//30 17//30 35//30
f 113//31 24//31 1//31 114//31
f 112//32 3//32 4//32 114//32
f 86//33 83//33 6//33 5//33
f 86//34 85//34 27//34 8//34
f 186//35 138//35 45//35 176//35
f 169//36 43//36 42//36 175//36
f 174//37 41//37 46//37 177//37
f 182//38 115//38 43//38 169//38
f 180//39 87//39 44//39 170//39
f 185//40 172//40 39//40 142//40
f 167//41 175//41 42//41 37//41
f 174//42 173//42 40//42 41//42
f 181//43 167//43 37//43 116//43
f 179//44 168//44 38//44 88//44
f 184//45 171//45 54//45 126//45
f 183//46 130//46 53//46 178//46
f 140//47 136//47 49//47 51//47
f 224//48 129//48 50//48 218//48
f 125//49 52//49 50//49 129//49
f 139//50 48//50 49//50 136//50
f 223//51 211//51 47//51 127//51
f 125//52 127//52 47//52 52//52
f 204//53 198//53 66//53 131//53
f 203//54 132//54 65//54 193//54
f 206//55 143//55 63//55 191//55
f 196//56 57//56 62//56 190//56
f 189//57 61//57 64//57 192//57
f 202//58 117//58 57//58 196//58
f 200//59 89//59 58//59 197//59
f 205//60 187//60 59//60 144//60
f 194//61 190//61 62//61 55//61
f 189//62 188//62 60//62 61//62
f 201//63 194//63 55//63 118//63
f 199//64 195//64 56//64 90//64
f 164//65 133//65 78//65 153//65
f 163//66 158//66 77//66 134//66
f 160//67 155//67 74//67 91//67
f 162//68 154//68 73//68 119//68
f 149//62 148//62 68//62 69//62
f 154//69 150//69 70//69 73//69
f 166//70 147//70 67//70 145//70
f 159//71 92//71 76//71 157//71
f 161//72 120//72 75//72 156//72
f 149//73 69//73 72//73 152//73
f 156//74 75//74 70//74 150//74
f 165//75 146//75 71//75 151//75
f 152//76 72//76 92//76 159//76
f 148//77 160//77 91//77 68//77
f 188//78 199//78 90//78 60//78
f 192//79 64//79 89//79 200//79
f 173//80 179//80 88//80 40//80
f 177//81 46//81 87//81 180//81
f 5//82 26//82 85//82 86//82
f 8//83 7//83 83//83 86//83
f 97//84 36//84 82//84 99//84
f 13//85 84//85 81//85 30//85
f 217//86 30//86 81//86 219//86
f 93//87 100//87 80//87 21//87
f 13//88 14//88 79//88 84//88
f 213//89 220//89 79//89 14//89
f 6//90 83//90 100//90 93//90
f 26//91 97//91 99//91 85//91
f 17//92 95//92 98//92 35//92
f 85//93 99//93 98//93 27//93
f 5//94 94//94 97//94 26//94
f 17//95 20//95 96//95 95//95
f 83//96 7//96 96//96 100//96
f 5//97 6//97 93//97 94//97
f 113//98 121//98 106//98 24//98
f 4//99 101//99 105//99 25//99
f 24//100 106//100 103//100 1//100
f 112//101 2//101 104//101 122//101
f 4//102 3//102 102//102 101//102
f 2//103 1//103 103//103 104//103
f 3//104 112//104 122//104 102//104
f 25//105 105//105 121//105 113//105
f 151//106 71//106 120//106 161//106
f 147//107 162//107 119//107 67//107
f 187//108 201//108 118//108 59//108
f 191//109 63//109 117//109 202//109
f 172//110 181//110 116//110 39//110
f 176//111 45//111 115//111 182//111
f 2//112 112//112 114//112 1//112
f 25//113 113//113 114//113 4//113
f 105//114 34//114 111//114 121//114
f 12//115 108//115 110//115 29//115
f 216//116 29//116 110//116 221//116
f 102//117 122//117 109//117 19//117
f 12//118 11//118 107//118 108//118
f 212//119 222//119 107//119 11//119
f 155//120 163//120 134//120 74//120
f 157//121 76//121 133//121 164//121
f 197//122 58//122 132//122 203//122
f 195//123 204//123 131//123 56//123
f 32//124 15//124 127//124 125//124
f 208//125 223//125 127//125 15//125
f 32//126 125//126 129//126 31//126
f 210//127 31//127 129//127 224//127
f 170//128 44//128 130//128 183//128
f 168//129 184//129 126//129 38//129
f 51//130 49//130 128//130 124//130
f 48//131 123//131 128//131 49//131
f 153//132 78//132 146//132 165//132
f 158//133 166//133 145//133 77//133
f 198//134 205//134 144//134 66//134
f 193//135 65//135 143//135 206//135
f 19//136 139//136 136//136 16//136
f 34//137 16//137 136//137 140//137
f 171//138 185//138 142//138 54//138
f 178//139 53//139 138//139 186//139
f 218//140 50//140 137//140 225//140
f 52//141 141//141 137//141 50//141
f 211//142 226//142 135//142 47//142
f 52//143 47//143 135//143 141//143
f 48//144 139//144 166//144 158//144
f 51//145 153//145 165//145 140//145
f 35//146 157//146 164//146 124//146
f 20//147 123//147 163//147 155//147
f 19//148 109//148 162//148 147//148
f 34//149 151//149 161//149 111//149
f 21//150 80//150 160//150 148//150
f 36//151 152//151 159//151 82//151
f 140//152 165//152 151//152 34//152
f 33//153 156//153 150//153 23//153
f 22//94 149//94 152//94 36//94
f 111//154 161//154 156//154 33//154
f 82//155 159//155 157//155 35//155
f 139//156 19//156 147//156 166//156
f 18//157 23//157 150//157 154//157
f 22//158 21//158 148//158 149//158
f 109//159 18//159 154//159 162//159
f 80//160 20//160 155//160 160//160
f 123//161 48//161 158//161 163//161
f 124//162 164//162 153//162 51//162
f 78//163 178//163 186//163 146//163
f 77//164 145//164 185//164 171//164
f 74//165 134//165 184//165 168//165
f 76//166 170//166 183//166 133//166
f 71//167 176//167 182//167 120//167
f 67//168 119//168 181//168 172//168
f 72//169 177//169 180//169 92//169
f 68//170 91//170 179//170 173//170
f 133//171 183//171 178//171 78//171
f 134//172 77//172 171//172 184//172
f 91//173 74//173 168//173 179//173
f 119//174 73//174 167//174 181//174
f 69//175 68//175 173//175 174//175
f 73//176 70//176 175//176 167//176
f 145//177 67//177 172//177 185//177
f 92//178 180//178 170//178 76//178
f 120//179 182//179 169//179 75//179
f 69//180 174//180 177//180 72//180
f 75//181 169//181 175//181 70//181
f 146//182 186//182 176//182 71//182
f 53//183 193//183 206//183 138//183
f 54//184 142//184 205//184 198//184
f 38//185 126//185 204//185 195//185
f 44//186 197//186 203//186 130//186
f 45//187 191//187 202//187 115//187
f 39//188 116//188 201//188 187//188
f 46//189 192//189 200//189 87//189
f 40//190 88//190 199//190 188//190
f 88//191 38//191 195//191 199//191
f 116//192 37//192 194//192 201//192
f 41//193 40//193 188//193 189//193
f 37//194 42//194 190//194 194//194
f 142//195 39//195 187//195 205//195
f 87//196 200//196 197//196 44//196
f 115//197 202//197 196//197 43//197
f 41//198 189//198 192//198 46//198
f 43//199 196//199 190//199 42//199
f 138//200 206//200 191//200 45//200
f 130//201 203//201 193//201 53//201
f 126//202 54//202 198//202 204//202
f 66//203 144//203 226//203 211//203
f 65//204 218//204 225//204 143//204
f 58//205 210//205 224//205 132//205
f 56//206 131//206 223//206 208//206
f 59//207 118//207 222//207 212//207
f 63//208 216//208 221//208 117//208
f 60//209 90//209 220//209 213//209
f 64//210 217//210 219//210 89//210
f 131//211 66//211 211//211 223//211
f 132//212 224//212 218//212 65//212
f 143//213 225//213 216//213 63//213
f 57//214 209//214 215//214 62//214
f 61//21 214//21 217//21 64//21
f 117//215 221//215 209//215 57//215
f 89//216 219//216 210//216 58//216
f 144//217 59//217 212//217 226//217
f 55//218 62//218 215//218 207//218
f 61//6 60//6 213//6 214//6
f 118//219 55//219 207//219 222//219
f 90//220 56//220 208//220 220//220
