# Blender v2.77 (sub 0) OBJ File: 'V1.5 Sail.blend'
# www.blender.org
mtllib V1.5 Sail_000028.mtl
o Cube.001
v 0.085910 12.624714 0.107446
v 0.298998 12.626940 0.152006
v 0.297157 12.095137 0.152181
v 0.067358 12.092911 0.103930
v 0.123083 3.504272 0.133628
v 0.391661 3.506497 0.215272
v 0.379774 4.365361 0.208805
v 0.119022 4.363135 0.131026
v -0.613702 10.680549 2.677382
v -0.400569 10.682775 2.729314
v -0.947596 8.313966 4.890696
v -1.173408 8.311740 4.853731
v -1.378561 3.504273 7.315203
v -1.092182 3.506498 7.297578
v -1.110861 4.625604 6.943229
v -0.164887 9.533196 0.612287
v -0.213577 5.975260 0.679255
v -0.090639 11.790948 1.215345
v 0.044143 9.535422 0.638414
v 0.057966 5.977485 0.725060
v -0.469068 3.506497 3.265192
v -0.739083 3.504272 3.169026
v -0.308189 11.788722 1.189820
v -0.118498 12.626940 0.029664
v -0.151396 12.095137 0.025909
v -0.133532 3.506497 0.019652
v -0.135266 4.365361 0.019580
v -0.815558 10.682775 2.592944
v -1.362516 8.313966 4.794077
v -1.664940 3.506498 7.297578
v -1.670751 4.625604 6.938555
v -1.388982 4.623378 6.958961
v -0.494014 11.790948 1.130221
v -0.377153 9.535422 0.548188
v -0.469879 5.977485 0.601165
v -0.987654 3.506497 3.042796
v -0.231926 11.236861 1.981252
v -0.619256 5.301545 3.813369
v -0.395292 8.924693 2.800931
v -0.985211 3.506497 5.288692
v -1.254974 3.504272 5.194378
v -0.449398 11.234635 1.936411
v -0.656356 11.236861 1.858855
v -1.159011 5.301545 3.742026
v -0.829692 8.924693 2.661301
v -1.506153 3.506497 5.070900
v -1.180052 6.469786 5.921289
v 0.135306 7.756454 0.710745
v -0.056732 7.754228 0.678017
v -1.667598 6.469786 5.781928
v -0.291063 7.756454 0.590605
v -1.426012 6.467560 5.871102
v -1.006245 7.113120 3.176723
v -0.535510 7.113120 3.318526
v -0.278239 10.959818 2.370505
v -1.012574 4.963574 5.409236
v -0.693767 10.959818 2.230439
v -1.534077 4.963574 5.246861
v -0.708558 8.619330 3.819463
v -1.096597 3.506497 6.222690
v -1.379801 3.504272 6.239450
v -0.492140 10.957592 2.316488
v -1.136414 8.619330 3.739472
v -1.668603 3.506497 6.219598
v -1.276874 6.791453 4.523676
v -0.778863 6.791453 4.609798
v -0.155711 9.230058 1.715651
v -0.616809 3.506497 4.211469
v -0.896739 3.504272 4.206110
v -0.370151 11.511679 1.565219
v -0.607749 9.230058 1.614521
v -1.169084 3.506497 4.161785
v -0.154093 11.513905 1.596703
v -0.157720 5.639515 2.334424
v -0.578687 11.513905 1.500266
v -0.764184 5.639515 2.175629
v -0.162854 7.434787 2.029052
v -0.688085 7.434786 1.896062
v -1.095114 4.066051 7.120725
v -0.184481 4.741991 1.956701
v -1.662008 4.066051 7.120725
v -0.730822 4.741991 1.870932
v 0.388900 3.935929 0.213383
v -1.378561 4.063825 7.138350
v -0.130919 3.935929 0.019887
v 0.122842 3.933703 0.132762
v -1.178765 4.404021 4.470242
v -0.635497 4.404021 4.541107
v -1.669049 4.235035 5.750928
v -1.116541 4.235035 5.775070
v -0.467046 4.573006 3.284977
v -1.025827 4.573006 3.120752
v -0.161866 3.506497 1.700892
v -0.419579 3.504272 1.624172
v -0.017554 5.169198 0.412374
v 0.246879 5.171423 0.484636
v -0.667646 3.506497 1.478777
v -0.271047 5.171423 0.307525
v -0.369884 4.338960 0.896966
v 0.112997 4.338960 1.138755
v -0.067270 10.813052 0.353605
v 0.180343 10.815278 0.400602
v -0.195849 12.206718 0.628017
v 0.021311 12.208944 0.653503
v -0.292814 10.815278 0.282878
v -0.365825 12.208944 0.572246
v -0.718851 9.498370 3.803682
v -0.933194 9.496144 3.755909
v -0.033073 10.663184 0.922593
v -1.125153 9.498370 3.689700
v -0.435007 10.663184 0.839560
v 0.299798 12.361038 0.152752
v -0.132406 12.361038 0.028069
v 0.081095 12.358812 0.106774
v -0.765549 10.080777 2.260487
v -0.263692 10.080777 2.410823
v -0.928389 9.789575 2.967966
v -0.512215 9.789575 3.098055
v -0.102206 10.371982 1.679467
v -0.594284 10.371982 1.557307
v -0.337335 11.512111 0.426788
v 0.085010 11.512111 0.521319
v 0.072352 6.866970 0.705185
v -0.331666 6.866970 0.598639
v -1.459851 5.545468 6.402290
v -0.600220 6.207333 3.555814
v -1.184773 5.547694 6.417738
v -0.082629 6.864745 0.691419
v -1.712161 5.547694 6.355062
v -1.114324 6.207333 3.462177
v -0.883264 5.877513 5.010021
v -1.380866 5.877513 4.890958
v -0.722067 6.537152 2.038813
v -0.209571 6.537152 2.160132
v -0.957598 7.391876 5.413557
v -0.109498 8.643712 0.645472
v -1.453972 7.391876 5.315814
v -0.910155 8.018907 2.916263
v 0.127312 8.645938 0.689965
v -0.340607 8.645938 0.569656
v -1.256539 7.389650 5.372922
v -0.460105 8.018907 3.068714
v -1.202676 7.705391 4.137163
v -0.742450 7.705391 4.210919
v -0.156521 8.332421 1.877713
v -0.648218 8.332421 1.755315
v -0.079229 9.382739 1.165296
v -0.641143 3.506497 3.679588
v -0.921150 3.504272 3.662443
v -0.333521 11.650201 1.378895
v -0.494903 9.382739 1.081312
v -1.197211 3.506497 3.611031
v -0.540127 7.595620 1.237483
v -0.118819 11.652427 1.407311
v -0.113643 5.808500 1.501483
v -0.536434 11.652427 1.315199
v -0.645364 5.808500 1.382241
v -0.075429 7.595620 1.336017
v -0.751105 4.657499 2.517625
v -0.207554 4.657499 2.662775
v -0.515655 10.517583 1.198347
v -0.103670 10.517583 1.283291
v -0.078485 6.702061 1.425514
v -0.579901 6.702061 1.311180
v -0.515681 8.489181 1.159983
v -0.076416 8.489181 1.250552
v -0.195229 11.375382 1.782679
v -0.401581 5.470530 3.098396
v -0.611982 11.375382 1.680549
v -0.915852 5.470530 2.926130
v -0.304234 7.273953 2.698388
v -0.239512 9.077376 2.275812
v -0.709895 3.506497 4.807861
v -0.980605 3.504272 4.723424
v -0.406779 11.373157 1.751544
v -0.726157 9.077376 2.135355
v -1.233905 3.506497 4.610271
v -0.787763 7.273953 2.533841
v -0.638910 4.488513 3.855558
v -1.196977 4.488513 3.818986
v -0.174679 10.226379 2.050460
v -0.670103 10.226379 1.907589
v -0.855035 6.372242 2.730375
v -0.355825 6.372242 2.900296
v -0.268371 8.175664 2.487830
v -0.729679 8.175664 2.336833
v -0.566556 8.772012 3.320254
v -1.113085 3.506497 5.701949
v -1.393551 3.504272 5.698379
v -0.443965 11.096114 2.132973
v -1.003225 8.772012 3.191218
v -1.675277 3.506497 5.659608
v -1.169955 6.952286 3.863503
v -0.218873 11.098340 2.189995
v -0.711218 5.132559 4.632350
v -0.673351 11.098340 2.045418
v -1.237371 5.132559 4.519552
v -0.681131 6.952286 3.942879
v -0.934539 4.319528 5.235964
v -1.449125 4.319528 5.021038
v -0.399149 9.935176 2.750355
v -0.818226 9.935176 2.615864
v -1.221383 6.042424 4.198904
v -0.702392 6.042424 4.275605
v -0.646355 7.862149 3.617158
v -1.111394 7.862149 3.530155
v -0.341531 10.821296 2.549123
v -1.131248 4.794589 6.133263
v -0.755457 10.821296 2.411506
v -1.683915 4.794589 6.098916
v -0.980797 6.630620 5.268211
v -0.785313 8.466647 4.353483
v -1.092182 3.506498 6.759852
v -1.378561 3.504273 6.777478
v -0.554522 10.819070 2.496545
v -1.222048 8.466647 4.279976
v -1.664940 3.506498 6.759852
v -1.451732 6.630620 5.161193
v -1.662008 4.150543 6.441503
v -1.095114 4.150543 6.441503
v -1.040715 9.643971 3.330685
v -0.615876 9.643971 3.453789
v -1.118014 5.712604 5.714325
v -1.620137 5.712604 5.589020
v -1.316946 7.548634 4.727250
v -0.835937 7.548634 4.814076
vn 0.9992 0.0403 -0.0068
vn 0.9549 0.0090 0.2967
vn -0.1717 0.6875 0.7056
vn -0.1314 0.4927 0.8602
vn 0.0541 0.3045 0.9510
vn 0.0078 -1.0000 0.0000
vn -0.1485 0.8074 0.5710
vn 0.9564 0.1125 0.2695
vn -0.0769 0.8072 0.5852
vn 0.0079 -1.0000 0.0016
vn 0.1568 -0.2018 -0.9668
vn 0.9702 0.0080 0.2423
vn 0.9448 0.1097 0.3088
vn 0.2542 0.3536 -0.9002
vn 0.1385 -0.0156 -0.9902
vn -0.9997 -0.0234 0.0048
vn -0.9704 0.0415 -0.2377
vn -0.2518 0.6900 0.6786
vn -0.2462 0.4940 0.8339
vn -0.0615 0.3059 0.9501
vn -0.0078 -1.0000 0.0000
vn -0.2206 0.8085 0.5456
vn -0.9668 -0.0355 -0.2532
vn -0.1731 0.8067 0.5651
vn -0.0081 -1.0000 -0.0017
vn 0.2857 -0.2116 -0.9347
vn -0.9756 0.0057 -0.2196
vn -0.9443 -0.1134 -0.3089
vn 0.3677 0.3643 -0.8556
vn 0.3197 -0.0432 -0.9465
vn 0.3506 -0.0084 -0.9365
vn 0.2056 -0.0000 -0.9786
vn 0.2904 -0.0021 -0.9569
vn 0.4039 0.0017 -0.9148
vn -0.9671 -0.0192 -0.2538
vn -0.1950 0.8018 0.5649
vn -0.0069 -1.0000 -0.0041
vn -0.9672 0.0009 -0.2541
vn -0.9888 0.0324 -0.1460
vn 0.9509 0.0324 0.3078
vn -0.1089 0.8163 0.5673
vn 0.0069 -1.0000 0.0040
vn 0.9646 0.0720 0.2536
vn 0.9888 -0.0162 0.1483
vn 0.9345 0.0262 0.3551
vn -0.9449 0.0044 -0.3274
vn 0.3308 -0.0093 -0.9436
vn -0.9759 -0.0056 -0.2180
vn -0.2251 0.5076 0.8317
vn 0.1774 -0.0234 -0.9839
vn 0.9798 0.0260 0.1984
vn -0.1134 0.4854 0.8669
vn 0.9802 0.0119 0.1976
vn -0.9815 0.0101 -0.1909
vn -0.9824 0.0189 -0.1858
vn -0.2174 0.7992 0.5603
vn -0.0078 -1.0000 0.0001
vn -0.9753 0.0366 -0.2178
vn -0.9421 -0.0067 -0.3352
vn 0.9756 0.0217 0.2187
vn -0.1523 0.8076 0.5697
vn 0.0079 -1.0000 -0.0002
vn 0.9501 0.0036 0.3121
vn 0.9373 0.0199 0.3481
vn -0.9794 0.0160 -0.2012
vn 0.9888 -0.0091 0.1493
vn 0.9780 0.0197 0.2075
vn 0.9971 0.0281 0.0712
vn 0.0080 -1.0000 -0.0004
vn -0.0890 0.8097 0.5800
vn 0.9904 0.0200 0.1370
vn -0.9508 -0.1131 -0.2885
vn -0.9766 0.0034 -0.2152
vn -0.0082 -1.0000 0.0004
vn -0.1683 0.8069 0.5662
vn -0.9776 0.0076 -0.2105
vn -0.9769 0.0631 -0.2042
vn 0.9773 -0.0882 0.1927
vn 0.9881 -0.0107 0.1535
vn -0.9865 0.0286 -0.1612
vn 0.9740 -0.0135 0.2261
vn -0.9750 0.0254 -0.2208
vn 0.4062 -0.0018 -0.9138
vn 0.2880 -0.0027 -0.9576
vn -0.9639 0.0345 -0.2641
vn -0.0565 0.3010 0.9519
vn -1.0000 0.0050 0.0003
vn 0.9673 -0.0343 0.2513
vn 0.0565 0.3010 0.9519
vn 1.0000 0.0050 0.0003
vn 0.9414 -0.0542 0.3329
vn -0.9428 0.0747 -0.3249
vn 0.3154 0.3796 -0.8697
vn -0.9645 -0.0490 -0.2594
vn -0.0074 -1.0000 -0.0027
vn 0.1999 0.3372 -0.9200
vn 0.9597 0.0496 0.2767
vn 0.0076 -1.0000 0.0028
vn -0.9226 0.0446 -0.3833
vn 0.3080 -0.2166 -0.9264
vn -0.1860 0.8152 0.5485
vn 0.8749 -0.0075 0.4843
vn 0.1933 -0.2057 -0.9593
vn -0.1050 0.7972 0.5945
vn 0.8550 0.0170 0.5183
vn -0.9242 0.0332 -0.3804
vn -0.9779 0.0024 -0.2091
vn 0.9971 -0.0154 0.0742
vn 0.9562 0.0128 0.2925
vn -0.9665 0.0148 -0.2563
vn 0.9648 -0.0121 0.2627
vn -0.9745 -0.0103 -0.2241
vn 0.2052 -0.0017 -0.9787
vn 0.3407 -0.0121 -0.9401
vn -0.9692 0.0044 -0.2464
vn -0.2205 0.6876 0.6918
vn -0.9609 -0.0638 -0.2693
vn 0.9253 0.0033 0.3793
vn -0.1442 0.6862 0.7130
vn 0.9417 0.1089 0.3182
vn 0.9929 0.0255 0.1164
vn -0.9862 0.0406 -0.1603
vn -0.9498 -0.0275 -0.3117
vn 0.9472 0.0589 0.3152
vn -0.0036 0.5059 0.8626
vn 0.9976 0.0548 0.0427
vn -0.1032 0.5185 0.8488
vn -0.9984 -0.0194 -0.0531
vn -0.9490 -0.0272 -0.3140
vn 0.9427 0.0494 0.3299
vn 0.3490 -0.0243 -0.9368
vn 0.1329 -0.0110 -0.9911
vn -0.9763 0.0087 -0.2162
vn 0.9915 0.0141 0.1292
vn 0.9872 0.0242 0.1579
vn -0.9884 0.0121 -0.1516
vn 0.1567 -0.0348 -0.9870
vn 0.3008 -0.0138 -0.9536
vn 0.9405 0.0284 0.3387
vn -0.9508 0.0027 -0.3096
vn -0.9622 0.0515 -0.2673
vn -0.2712 0.4896 0.8287
vn 0.9704 -0.0735 0.2300
vn -0.1466 0.4975 0.8550
vn 0.9416 0.0247 0.3357
vn -0.9430 -0.0316 -0.3314
vn -0.9629 0.0996 -0.2509
vn 0.9782 -0.0160 0.2072
vn 0.9765 0.0056 0.2153
vn -0.9765 0.0050 -0.2155
vn 0.9774 -0.1384 0.1598
vn -0.9769 0.1203 -0.1765
vn -0.9658 -0.0230 -0.2581
vn -0.1704 0.8063 0.5664
vn -0.0075 -1.0000 -0.0028
vn -0.9759 0.0049 -0.2183
vn -0.9910 0.0187 -0.1326
vn 0.9497 0.0692 0.3054
vn -0.0806 0.8115 0.5787
vn 0.0075 -1.0000 0.0029
vn 0.9845 -0.0007 0.1756
vn 0.9917 -0.0111 0.1283
vn 0.9669 -0.0238 0.2540
vn -0.9409 0.0269 -0.3377
vn -0.9898 0.0276 -0.1398
vn 0.9800 0.0169 0.1982
vn 0.9632 0.0576 0.2626
vn -0.9818 0.0213 -0.1889
vn -0.9762 0.0027 -0.2168
vn 0.9873 -0.0333 0.1550
vn -0.9731 -0.1001 -0.2076
vn 0.9682 0.1042 0.2274
vn -0.9857 0.0241 -0.1666
vn 0.9804 -0.0173 0.1961
vn 0.9552 -0.0081 0.2960
vn 0.9705 0.0661 0.2317
vn 0.0079 -1.0000 0.0013
vn -0.0936 0.8080 0.5817
vn 0.9853 0.0190 0.1698
vn -0.9760 0.0753 -0.2043
vn -0.9802 0.0070 -0.1978
vn -0.0081 -1.0000 -0.0012
vn -0.1791 0.8010 0.5712
vn -0.9834 -0.0104 -0.1812
vn -0.9624 -0.0069 -0.2717
vn 0.9596 0.0305 0.2798
vn 0.9909 0.0292 0.1314
vn -0.9924 -0.0076 -0.1232
vn -0.9689 -0.0001 -0.2476
vn 0.9392 0.0207 0.3426
vn -0.9332 0.0436 -0.3567
vn 0.9335 -0.0350 0.3570
vn 0.9632 0.0675 0.2601
vn 0.9754 0.0048 0.2203
vn 0.0077 -1.0000 0.0022
vn -0.1378 0.8147 0.5632
vn 0.9457 0.0255 0.3240
vn -0.9627 -0.0596 -0.2641
vn -0.9934 0.0709 -0.0906
vn -0.0077 -1.0000 -0.0022
vn -0.2072 0.7957 0.5691
vn -0.9500 -0.0034 -0.3122
vn -0.9831 0.0243 -0.1814
vn 0.9829 0.0112 0.1839
vn 0.9730 0.0111 0.2306
vn -0.9739 0.0095 -0.2269
vn -0.9699 -0.0002 -0.2435
vn 0.9682 0.0353 0.2478
vn 0.9812 -0.0202 0.1922
vn -0.9773 0.0067 -0.2120
vn 0.9998 0.0049 -0.0211
vn -0.9999 0.0071 0.0092
vn 0.9510 0.0173 0.3089
vn -0.9561 0.0151 -0.2928
vn -0.9850 0.0072 -0.1722
vn -0.2223 0.8089 0.5442
vn -0.0077 -1.0000 0.0000
vn -0.9514 -0.0066 -0.3079
vn -0.9958 0.0280 -0.0876
vn 0.9875 0.0266 0.1551
vn -0.1509 0.8072 0.5706
vn 0.9543 0.0011 0.2987
vn 0.9976 -0.0165 0.0668
usemtl Material.001
s off
f 220//1 208//1 15//1 79//1
f 222//2 207//2 10//2 107//2
f 108//3 107//3 10//3 9//3
f 141//4 135//4 11//4 12//4
f 84//5 79//5 15//5 32//5
f 214//6 213//6 14//6 13//6
f 207//7 215//7 9//7 10//7
f 226//8 212//8 11//8 135//8
f 104//9 103//9 23//9 18//9
f 94//10 93//10 21//10 22//10
f 101//11 102//11 19//11 16//11
f 122//12 104//12 18//12 109//12
f 100//13 96//13 20//13 80//13
f 95//14 96//14 7//14 8//14
f 123//15 20//15 17//15 128//15
f 219//16 81//16 31//16 210//16
f 221//17 110//17 28//17 209//17
f 108//18 9//18 28//18 110//18
f 141//19 12//19 29//19 137//19
f 84//20 32//20 31//20 81//20
f 214//21 13//21 30//21 217//21
f 209//22 28//22 9//22 215//22
f 225//23 137//23 29//23 216//23
f 106//24 33//24 23//24 103//24
f 94//25 22//25 36//25 97//25
f 101//26 16//26 34//26 105//26
f 121//27 111//27 33//27 106//27
f 99//28 82//28 35//28 98//28
f 95//29 8//29 27//29 98//29
f 124//30 128//30 17//30 35//30
f 113//31 24//31 1//31 114//31
f 112//32 3//32 4//32 114//32
f 86//33 83//33 6//33 5//33
f 86//34 85//34 27//34 8//34
f 186//35 138//35 45//35 176//35
f 169//36 43//36 42//36 175//36
f 174//37 41//37 46//37 177//37
f 182//38 115//38 43//38 169//38
f 180//39 87//39 44//39 170//39
f 185//40 172//40 39//40 142//40
f 167//41 175//41 42//41 37//41
f 174//42 173//42 40//42 41//42
f 181//43 167//43 37//43 116//43
f 179//44 168//44 38//44 88//44
f 184//45 171//45 54//45 126//45
f 183//46 130//46 53//46 178//46
f 140//47 136//47 49//47 51//47
f 224//48 129//48 50//48 218//48
f 125//49 52//49 50//49 129//49
f 139//50 48//50 49//50 136//50
f 223//51 211//51 47//51 127//51
f 125//52 127//52 47//52 52//52
f 204//53 198//53 66//53 131//53
f 203//54 132//54 65//54 193//54
f 206//55 143//55 63//55 191//55
f 196//56 57//56 62//56 190//56
f 189//57 61//57 64//57 192//57
f 202//58 117//58 57//58 196//58
f 200//59 89//59 58//59 197//59
f 205//60 187//60 59//60 144//60
f 194//61 190//61 62//61 55//61
f 189//62 188//62 60//62 61//62
f 201//63 194//63 55//63 118//63
f 199//64 195//64 56//64 90//64
f 164//65 133//65 78//65 153//65
f 163//66 158//66 77//66 134//66
f 160//67 155//67 74//67 91//67
f 162//68 154//68 73//68 119//68
f 149//69 148//69 68//69 69//69
f 154//70 150//70 70//70 73//70
f 166//71 147//71 67//71 145//71
f 159//72 92//72 76//72 157//72
f 161//73 120//73 75//73 156//73
f 149//74 69//74 72//74 152//74
f 156//75 75//75 70//75 150//75
f 165//76 146//76 71//76 151//76
f 152//77 72//77 92//77 159//77
f 148//78 160//78 91//78 68//78
f 188//79 199//79 90//79 60//79
f 192//80 64//80 89//80 200//80
f 173//81 179//81 88//81 40//81
f 177//82 46//82 87//82 180//82
f 5//83 26//83 85//83 86//83
f 8//84 7//84 83//84 86//84
f 97//85 36//85 82//85 99//85
f 13//86 84//86 81//86 30//86
f 217//87 30//87 81//87 219//87
f 93//88 100//88 80//88 21//88
f 13//89 14//89 79//89 84//89
f 213//90 220//90 79//90 14//90
f 6//91 83//91 100//91 93//91
f 26//92 97//92 99//92 85//92
f 17//93 95//93 98//93 35//93
f 85//94 99//94 98//94 27//94
f 5//95 94//95 97//95 26//95
f 17//96 20//96 96//96 95//96
f 83//97 7//97 96//97 100//97
f 5//98 6//98 93//98 94//98
f 113//99 121//99 106//99 24//99
f 4//100 101//100 105//100 25//100
f 24//101 106//101 103//101 1//101
f 112//102 2//102 104//102 122//102
f 4//103 3//103 102//103 101//103
f 2//104 1//104 103//104 104//104
f 3//105 112//105 122//105 102//105
f 25//106 105//106 121//106 113//106
f 151//107 71//107 120//107 161//107
f 147//108 162//108 119//108 67//108
f 187//109 201//109 118//109 59//109
f 191//110 63//110 117//110 202//110
f 172//111 181//111 116//111 39//111
f 176//112 45//112 115//112 182//112
f 2//113 112//113 114//113 1//113
f 25//114 113//114 114//114 4//114
f 105//115 34//115 111//115 121//115
f 12//116 108//116 110//116 29//116
f 216//117 29//117 110//117 221//117
f 102//118 122//118 109//118 19//118
f 12//119 11//119 107//119 108//119
f 212//120 222//120 107//120 11//120
f 155//121 163//121 134//121 74//121
f 157//122 76//122 133//122 164//122
f 197//123 58//123 132//123 203//123
f 195//124 204//124 131//124 56//124
f 32//125 15//125 127//125 125//125
f 208//126 223//126 127//126 15//126
f 32//127 125//127 129//127 31//127
f 210//128 31//128 129//128 224//128
f 170//129 44//129 130//129 183//129
f 168//130 184//130 126//130 38//130
f 51//131 49//131 128//131 124//131
f 48//132 123//132 128//132 49//132
f 153//133 78//133 146//133 165//133
f 158//134 166//134 145//134 77//134
f 198//135 205//135 144//135 66//135
f 193//136 65//136 143//136 206//136
f 19//137 139//137 136//137 16//137
f 34//138 16//138 136//138 140//138
f 171//139 185//139 142//139 54//139
f 178//140 53//140 138//140 186//140
f 218//141 50//141 137//141 225//141
f 52//142 141//142 137//142 50//142
f 211//143 226//143 135//143 47//143
f 52//144 47//144 135//144 141//144
f 48//145 139//145 166//145 158//145
f 51//146 153//146 165//146 140//146
f 35//147 157//147 164//147 124//147
f 20//148 123//148 163//148 155//148
f 19//149 109//149 162//149 147//149
f 34//150 151//150 161//150 111//150
f 21//151 80//151 160//151 148//151
f 36//152 152//152 159//152 82//152
f 140//153 165//153 151//153 34//153
f 33//154 156//154 150//154 23//154
f 22//155 149//155 152//155 36//155
f 111//156 161//156 156//156 33//156
f 82//157 159//157 157//157 35//157
f 139//158 19//158 147//158 166//158
f 18//159 23//159 150//159 154//159
f 22//160 21//160 148//160 149//160
f 109//161 18//161 154//161 162//161
f 80//162 20//162 155//162 160//162
f 123//163 48//163 158//163 163//163
f 124//164 164//164 153//164 51//164
f 78//165 178//165 186//165 146//165
f 77//166 145//166 185//166 171//166
f 74//167 134//167 184//167 168//167
f 76//168 170//168 183//168 133//168
f 71//169 176//169 182//169 120//169
f 67//170 119//170 181//170 172//170
f 72//171 177//171 180//171 92//171
f 68//172 91//172 179//172 173//172
f 133//173 183//173 178//173 78//173
f 134//174 77//174 171//174 184//174
f 91//175 74//175 168//175 179//175
f 119//176 73//176 167//176 181//176
f 69//177 68//177 173//177 174//177
f 73//178 70//178 175//178 167//178
f 145//179 67//179 172//179 185//179
f 92//180 180//180 170//180 76//180
f 120//181 182//181 169//181 75//181
f 69//182 174//182 177//182 72//182
f 75//183 169//183 175//183 70//183
f 146//184 186//184 176//184 71//184
f 53//185 193//185 206//185 138//185
f 54//186 142//186 205//186 198//186
f 38//187 126//187 204//187 195//187
f 44//188 197//188 203//188 130//188
f 45//189 191//189 202//189 115//189
f 39//190 116//190 201//190 187//190
f 46//191 192//191 200//191 87//191
f 40//192 88//192 199//192 188//192
f 88//193 38//193 195//193 199//193
f 116//194 37//194 194//194 201//194
f 41//195 40//195 188//195 189//195
f 37//196 42//196 190//196 194//196
f 142//197 39//197 187//197 205//197
f 87//198 200//198 197//198 44//198
f 115//199 202//199 196//199 43//199
f 41//200 189//200 192//200 46//200
f 43//201 196//201 190//201 42//201
f 138//202 206//202 191//202 45//202
f 130//203 203//203 193//203 53//203
f 126//204 54//204 198//204 204//204
f 66//205 144//205 226//205 211//205
f 65//206 218//206 225//206 143//206
f 58//207 210//207 224//207 132//207
f 56//208 131//208 223//208 208//208
f 59//209 118//209 222//209 212//209
f 63//210 216//210 221//210 117//210
f 60//211 90//211 220//211 213//211
f 64//212 217//212 219//212 89//212
f 131//213 66//213 211//213 223//213
f 132//214 224//214 218//214 65//214
f 143//215 225//215 216//215 63//215
f 57//216 209//216 215//216 62//216
f 61//217 214//217 217//217 64//217
f 117//218 221//218 209//218 57//218
f 89//219 219//219 210//219 58//219
f 144//220 59//220 212//220 226//220
f 55//221 62//221 215//221 207//221
f 61//6 60//6 213//6 214//6
f 118//222 55//222 207//222 222//222
f 90//223 56//223 208//223 220//223
