# Blender v2.77 (sub 0) OBJ File: 'V1.5 Sail.blend'
# www.blender.org
mtllib V1.5 Sail_000030.mtl
o Cube.001
v 0.093478 12.624714 0.111585
v 0.303959 12.626940 0.161728
v 0.301624 12.095137 0.161687
v 0.073292 12.092911 0.107176
v 0.133925 3.504272 0.139558
v 0.398319 3.506497 0.230108
v 0.385987 4.365361 0.223031
v 0.129507 4.363135 0.136761
v -0.667764 10.680549 2.647810
v -0.457420 10.682775 2.706021
v -1.052521 8.313966 4.839251
v -1.276775 8.311740 4.797190
v -1.500000 3.504273 7.248778
v -1.213621 3.506498 7.231153
v -1.233492 4.625604 6.876419
v -0.179412 9.533196 0.604342
v -0.232392 5.975260 0.668964
v -0.119493 11.790948 1.204396
v 0.026752 9.535422 0.634120
v 0.036705 5.977485 0.720519
v -0.538591 3.506497 3.239890
v -0.804189 3.504272 3.133414
v -0.335338 11.788722 1.174970
v -0.107556 12.626940 0.028632
v -0.143091 12.095137 0.023690
v -0.117452 3.506497 0.017254
v -0.119941 4.365361 0.017136
v -0.865837 10.682775 2.557638
v -1.461183 8.313966 4.734551
v -1.786380 3.506498 7.231153
v -1.793156 4.625604 6.871334
v -1.511340 4.623378 6.892033
v -0.516496 11.790948 1.112381
v -0.389048 9.535422 0.536254
v -0.484885 5.977485 0.585787
v -1.046456 3.506497 2.997903
v -0.273715 11.236861 1.965317
v -0.699423 5.301545 3.773393
v -0.452050 8.924693 2.777915
v -1.100156 3.506497 5.238350
v -1.365527 3.504272 5.133907
v -0.488985 11.234635 1.914757
v -0.692816 11.236861 1.831986
v -1.235372 5.301545 3.695863
v -0.880942 8.924693 2.625658
v -1.610716 3.506497 5.001343
v -1.308152 6.469786 5.858761
v 0.123187 7.756454 0.711189
v -0.061730 7.754228 0.675284
v -1.790229 6.469786 5.706789
v -0.292433 7.756454 0.581795
v -1.551631 6.467560 5.802390
v -1.070542 7.113120 3.133169
v -0.606920 7.113120 3.287389
v -0.324361 10.959818 2.353285
v -1.128655 4.963574 5.355034
v -0.733276 10.959818 2.200845
v -1.642334 4.963574 5.178355
v -0.792232 8.619330 3.778813
v -1.218467 3.506497 6.156206
v -1.501350 3.504272 6.172965
v -0.535493 10.957592 2.292774
v -1.215469 8.619330 3.691980
v -1.790323 3.506497 6.152842
v -1.365800 6.791453 4.470026
v -0.870926 6.791453 4.564006
v -0.190813 9.230058 1.702118
v -0.696992 3.506497 4.170263
v -0.975734 3.504272 4.162900
v -0.402758 11.511679 1.547383
v -0.639975 9.230058 1.591544
v -1.246083 3.506497 4.116414
v -0.188697 11.513905 1.583292
v -0.198497 5.639515 2.321415
v -0.608633 11.513905 1.478363
v -0.805233 5.639515 2.146508
v -0.201473 7.434787 2.016004
v -0.724947 7.434786 1.870053
v -1.216554 4.066051 7.054300
v -0.226916 4.741991 1.938691
v -1.783447 4.066051 7.054300
v -0.769155 4.741991 1.845358
v 0.395602 3.935929 0.228121
v -1.500000 4.063825 7.071925
v -0.114895 3.935929 0.017580
v 0.133663 3.933703 0.138681
v -1.256342 4.404021 4.422276
v -0.717090 4.404021 4.499223
v -1.790864 4.235035 5.683255
v -1.240322 4.235035 5.709308
v -0.535348 4.573006 3.256989
v -1.089218 4.573006 3.077493
v -0.203911 3.506497 1.688841
v -0.456540 3.504272 1.603955
v -0.019100 5.169198 0.411528
v 0.241547 5.171423 0.491855
v -0.697770 3.506497 1.447487
v -0.267844 5.171423 0.299142
v -0.374068 4.338960 0.880000
v 0.094790 4.338960 1.142454
v -0.073196 10.813052 0.350364
v 0.174660 10.815278 0.403952
v -0.213102 12.206718 0.618581
v 0.002317 12.208944 0.647954
v -0.297194 10.815278 0.274687
v -0.377015 12.208944 0.560580
v -0.803798 9.498370 3.764588
v -1.015399 9.496144 3.710944
v -0.057013 10.663184 0.914319
v -1.202933 9.498370 3.641013
v -0.452151 10.663184 0.824721
v 0.304657 12.361038 0.162471
v -0.122551 12.361038 0.026534
v 0.088239 12.358812 0.110681
v -0.811537 10.080777 2.228701
v -0.308760 10.080777 2.394467
v -0.988495 9.789575 2.927485
v -0.578964 9.789575 3.068935
v -0.132681 10.371982 1.669521
v -0.625469 10.371982 1.534832
v -0.345855 11.512111 0.416584
v 0.071326 11.512111 0.519280
v 0.053695 6.866970 0.701325
v -0.335324 6.866970 0.588037
v -1.588451 5.545468 6.331948
v -0.677905 6.207333 3.518726
v -1.313477 5.547694 6.350708
v -0.089908 6.864745 0.687438
v -1.838599 5.547694 6.282309
v -1.187710 6.207333 3.416783
v -0.986175 5.877513 4.960385
v -1.477281 5.877513 4.831038
v -0.760714 6.537152 2.011630
v -0.253368 6.537152 2.143823
v -1.064291 7.391876 5.359966
v -0.119143 8.643712 0.640196
v -1.559567 7.391876 5.252644
v -0.967122 8.018907 2.876603
v 0.115711 8.645938 0.690439
v -0.347859 8.645938 0.559143
v -1.367229 7.389650 5.312376
v -0.523917 8.018907 3.042618
v -1.286433 7.705391 4.087219
v -0.830106 7.705391 4.167379
v -0.193256 8.332421 1.864998
v -0.682791 8.332421 1.730817
v -0.107388 9.382739 1.154684
v -0.723767 3.506497 3.638318
v -1.002296 3.504272 3.618057
v -0.362901 11.650201 1.362824
v -0.517194 9.382739 1.063790
v -1.276531 3.506497 3.563722
v -0.563859 7.595620 1.218246
v -0.150246 11.652427 1.395342
v -0.149958 5.808500 1.488435
v -0.562655 11.652427 1.295321
v -0.675906 5.808500 1.358696
v -0.105753 7.595620 1.324966
v -0.790528 4.657499 2.488474
v -0.252843 4.657499 2.646712
v -0.539913 10.517583 1.179657
v -0.133825 10.517583 1.271600
v -0.110462 6.702061 1.414507
v -0.605861 6.702061 1.290237
v -0.538535 8.489181 1.141705
v -0.105569 8.489181 1.239734
v -0.233475 11.375382 1.767357
v -0.463905 5.470530 3.073882
v -0.644688 11.375382 1.656396
v -0.969421 5.470530 2.886562
v -0.355634 7.273953 2.679749
v -0.282493 9.077376 2.260097
v -0.800332 3.506497 4.769833
v -1.066988 3.504272 4.676175
v -0.442613 11.373157 1.731943
v -0.768531 9.077376 2.105617
v -1.314759 3.506497 4.554854
v -0.832680 7.273953 2.500319
v -0.720664 4.488513 3.812992
v -1.276977 4.488513 3.773196
v -0.211805 10.226379 2.038019
v -0.707731 10.226379 1.880582
v -0.904592 6.372242 2.693785
v -0.413011 6.372242 2.878825
v -0.315250 8.175664 2.470810
v -0.770810 8.175664 2.306102
v -0.638405 8.772012 3.288998
v -1.236937 3.506497 5.636649
v -1.516310 3.504272 5.631231
v -0.483075 11.096114 2.111580
v -1.070047 8.772012 3.148277
v -1.797064 3.506497 5.590585
v -1.249577 6.952286 3.815438
v -0.259772 11.098340 2.175663
v -0.800008 5.132559 4.589888
v -0.711194 11.098340 2.017302
v -1.320026 5.132559 4.467340
v -0.764587 6.952286 3.901803
v -1.044707 4.319528 5.188002
v -1.548937 4.319528 4.954142
v -0.456010 9.935176 2.726949
v -0.868606 9.935176 2.580611
v -1.304378 6.042424 4.149014
v -0.788797 6.042424 4.232547
v -0.725765 7.862149 3.579067
v -1.187024 7.862149 3.484289
v -0.393198 10.821296 2.528739
v -1.256071 4.794589 6.066952
v -0.800421 10.821296 2.379018
v -1.807083 4.794589 6.029579
v -1.091073 6.630620 5.214268
v -0.875542 8.466647 4.308365
v -1.213621 3.506497 6.693427
v -1.500000 3.504272 6.711052
v -0.603370 10.819070 2.469825
v -1.308658 8.466647 4.228404
v -1.786380 3.506497 6.693427
v -1.555790 6.630620 5.098107
v -1.783447 4.150543 6.375077
v -1.216554 4.150543 6.375077
v -1.111019 9.643971 3.285924
v -0.691830 9.643971 3.419948
v -1.241748 5.712604 5.653913
v -1.737644 5.712604 5.517622
v -1.410569 7.548634 4.671052
v -0.931830 7.548634 4.766040
vn 0.9990 0.0437 -0.0077
vn 0.9458 0.0096 0.3245
vn -0.1933 0.6854 0.7020
vn -0.1501 0.4905 0.8584
vn 0.0539 0.3053 0.9507
vn 0.0078 -1.0000 0.0000
vn -0.1668 0.8059 0.5681
vn 0.9480 0.1214 0.2942
vn -0.0882 0.8056 0.5859
vn 0.0079 -1.0000 0.0018
vn 0.1788 -0.2000 -0.9633
vn 0.9642 0.0087 0.2650
vn 0.9335 0.1201 0.3379
vn 0.2842 0.3523 -0.8917
vn 0.1568 -0.0145 -0.9875
vn -0.9997 -0.0255 0.0049
vn -0.9645 0.0452 -0.2603
vn -0.2714 0.6882 0.6729
vn -0.2637 0.4919 0.8298
vn -0.0620 0.3068 0.9498
vn -0.0078 -1.0000 0.0000
vn -0.2383 0.8071 0.5402
vn -0.9599 -0.0404 -0.2776
vn -0.1864 0.8050 0.5632
vn -0.0081 -1.0000 -0.0018
vn 0.3057 -0.2107 -0.9285
vn -0.9706 0.0061 -0.2405
vn -0.9334 -0.1236 -0.3370
vn 0.3959 0.3640 -0.8431
vn 0.3436 -0.0455 -0.9380
vn 0.3759 -0.0091 -0.9266
vn 0.2325 -0.0000 -0.9726
vn 0.3236 -0.0020 -0.9462
vn 0.4352 0.0022 -0.9003
vn -0.9603 -0.0225 -0.2782
vn -0.2106 0.7995 0.5625
vn -0.0067 -1.0000 -0.0044
vn -0.9605 0.0008 -0.2782
vn -0.9865 0.0353 -0.1598
vn 0.9411 0.0340 0.3363
vn -0.1231 0.8156 0.5654
vn 0.0067 -1.0000 0.0044
vn 0.9576 0.0786 0.2773
vn 0.9866 -0.0179 0.1619
vn 0.9212 0.0270 0.3882
vn -0.9337 0.0032 -0.3580
vn 0.3551 -0.0078 -0.9348
vn -0.9710 -0.0077 -0.2390
vn -0.2413 0.5070 0.8275
vn 0.2012 -0.0234 -0.9793
vn 0.9759 0.0270 0.2167
vn -0.1297 0.4827 0.8661
vn 0.9763 0.0115 0.2160
vn -0.9778 0.0095 -0.2092
vn -0.9788 0.0191 -0.2038
vn -0.2352 0.7965 0.5570
vn -0.0078 -1.0000 0.0002
vn -0.9704 0.0398 -0.2384
vn -0.9306 -0.0076 -0.3659
vn 0.9708 0.0222 0.2388
vn -0.1708 0.8061 0.5667
vn 0.0079 -1.0000 -0.0002
vn 0.9400 0.0037 0.3413
vn 0.9243 0.0217 0.3810
vn -0.9752 0.0160 -0.2206
vn 0.9865 -0.0114 0.1631
vn 0.9736 0.0213 0.2271
vn 0.9965 0.0304 0.0782
vn 0.0080 -1.0000 -0.0004
vn -0.1014 0.8084 0.5799
vn 0.9885 0.0204 0.1496
vn -0.9409 -0.1239 -0.3153
vn -0.9718 0.0036 -0.2356
vn -0.0083 -1.0000 0.0004
vn -0.1812 0.8052 0.5646
vn -0.9730 0.0069 -0.2307
vn -0.9723 0.0689 -0.2233
vn 0.9728 -0.0965 0.2107
vn 0.9859 -0.0121 0.1668
vn -0.9837 0.0309 -0.1771
vn 0.9688 -0.0153 0.2474
vn -0.9700 0.0274 -0.2416
vn 0.4377 -0.0017 -0.8991
vn 0.3210 -0.0026 -0.9471
vn -0.9566 0.0378 -0.2889
vn -0.0565 0.3010 0.9519
vn -1.0000 0.0050 0.0003
vn 0.9607 -0.0377 0.2751
vn 0.0565 0.3010 0.9519
vn 1.0000 0.0050 0.0003
vn 0.9295 -0.0599 0.3639
vn -0.9312 0.0811 -0.3552
vn 0.3390 0.3808 -0.8603
vn -0.9574 -0.0539 -0.2836
vn -0.0074 -1.0000 -0.0030
vn 0.2250 0.3343 -0.9152
vn 0.9515 0.0540 0.3029
vn 0.0076 -1.0000 0.0031
vn -0.9070 0.0483 -0.4184
vn 0.3299 -0.2162 -0.9189
vn -0.2003 0.8146 0.5444
vn 0.8500 -0.0084 0.5267
vn 0.2185 -0.2043 -0.9542
vn -0.1195 0.7944 0.5955
vn 0.8267 0.0183 0.5623
vn -0.9088 0.0359 -0.4157
vn -0.9735 0.0024 -0.2289
vn 0.9965 -0.0169 0.0814
vn 0.9473 0.0139 0.3202
vn -0.9597 0.0160 -0.2805
vn 0.9577 -0.0134 0.2874
vn -0.9694 -0.0114 -0.2454
vn 0.2323 -0.0017 -0.9727
vn 0.3652 -0.0133 -0.9309
vn -0.9629 0.0047 -0.2700
vn -0.2372 0.6855 0.6884
vn -0.9530 -0.0702 -0.2948
vn 0.9102 0.0035 0.4142
vn -0.1631 0.6839 0.7111
vn 0.9302 0.1184 0.3473
vn 0.9915 0.0264 0.1271
vn -0.9835 0.0430 -0.1757
vn -0.9394 -0.0316 -0.3415
vn 0.9368 0.0630 0.3441
vn -0.0090 0.5068 0.8620
vn 0.9972 0.0588 0.0456
vn -0.1076 0.5206 0.8470
vn -0.9980 -0.0221 -0.0587
vn -0.9388 -0.0312 -0.3432
vn 0.9311 0.0525 0.3610
vn 0.3752 -0.0246 -0.9266
vn 0.1500 -0.0095 -0.9886
vn -0.9715 0.0081 -0.2370
vn 0.9899 0.0140 0.1413
vn 0.9847 0.0249 0.1722
vn -0.9860 0.0117 -0.1661
vn 0.1788 -0.0359 -0.9832
vn 0.3220 -0.0129 -0.9467
vn 0.9285 0.0295 0.3701
vn -0.9408 0.0015 -0.3390
vn -0.9546 0.0547 -0.2929
vn -0.2917 0.4871 0.8232
vn 0.9645 -0.0820 0.2512
vn -0.1662 0.4957 0.8525
vn 0.9299 0.0256 0.3669
vn -0.9313 -0.0359 -0.3624
vn -0.9555 0.1075 -0.2746
vn 0.9739 -0.0190 0.2264
vn 0.9718 0.0060 0.2356
vn -0.9717 0.0053 -0.2360
vn 0.9730 -0.1519 0.1740
vn -0.9724 0.1307 -0.1931
vn -0.9588 -0.0267 -0.2828
vn -0.1835 0.8046 0.5647
vn -0.0075 -1.0000 -0.0031
vn -0.9710 0.0052 -0.2390
vn -0.9893 0.0205 -0.1447
vn 0.9398 0.0743 0.3337
vn -0.0921 0.8104 0.5786
vn 0.0074 -1.0000 0.0032
vn 0.9814 -0.0009 0.1921
vn 0.9900 -0.0121 0.1405
vn 0.9603 -0.0276 0.2777
vn -0.9289 0.0280 -0.3693
vn -0.9878 0.0288 -0.1528
vn 0.9761 0.0170 0.2166
vn 0.9560 0.0615 0.2870
vn -0.9781 0.0218 -0.2068
vn -0.9714 0.0028 -0.2372
vn 0.9848 -0.0365 0.1698
vn -0.9677 -0.1098 -0.2270
vn 0.9619 0.1136 0.2486
vn -0.9829 0.0249 -0.1823
vn 0.9765 -0.0204 0.2143
vn 0.9460 -0.0092 0.3241
vn 0.9647 0.0722 0.2534
vn 0.0079 -1.0000 0.0014
vn -0.1065 0.8064 0.5816
vn 0.9825 0.0193 0.1855
vn -0.9712 0.0821 -0.2236
vn -0.9763 0.0075 -0.2164
vn -0.0081 -1.0000 -0.0014
vn -0.1932 0.7987 0.5698
vn -0.9800 -0.0129 -0.1985
vn -0.9547 -0.0090 -0.2975
vn 0.9515 0.0318 0.3060
vn 0.9892 0.0305 0.1434
vn -0.9908 -0.0098 -0.1348
vn -0.9626 -0.0003 -0.2711
vn 0.9269 0.0225 0.3745
vn -0.9199 0.0473 -0.3894
vn 0.9200 -0.0386 0.3900
vn 0.9559 0.0734 0.2843
vn 0.9705 0.0051 0.2410
vn 0.0077 -1.0000 0.0025
vn -0.1549 0.8133 0.5609
vn 0.9348 0.0262 0.3542
vn -0.9550 -0.0656 -0.2892
vn -0.9921 0.0774 -0.0984
vn -0.0077 -1.0000 -0.0024
vn -0.2243 0.7924 0.5672
vn -0.9399 -0.0052 -0.3415
vn -0.9797 0.0251 -0.1990
vn 0.9796 0.0108 0.2007
vn 0.9677 0.0106 0.2521
vn -0.9685 0.0088 -0.2487
vn -0.9637 -0.0018 -0.2668
vn 0.9619 0.0371 0.2709
vn 0.9774 -0.0221 0.2103
vn -0.9727 0.0072 -0.2321
vn 0.9997 0.0050 -0.0234
vn -0.9999 0.0073 0.0097
vn 0.9412 0.0174 0.3374
vn -0.9471 0.0150 -0.3207
vn -0.9820 0.0063 -0.1888
vn -0.2402 0.8076 0.5386
vn -0.0077 -1.0000 0.0000
vn -0.9416 -0.0073 -0.3367
vn -0.9949 0.0308 -0.0964
vn 0.9852 0.0275 0.1691
vn -0.1694 0.8057 0.5675
vn 0.9451 0.0009 0.3267
vn 0.9973 -0.0178 0.0718
usemtl Material.001
s off
f 220//1 208//1 15//1 79//1
f 222//2 207//2 10//2 107//2
f 108//3 107//3 10//3 9//3
f 141//4 135//4 11//4 12//4
f 84//5 79//5 15//5 32//5
f 214//6 213//6 14//6 13//6
f 207//7 215//7 9//7 10//7
f 226//8 212//8 11//8 135//8
f 104//9 103//9 23//9 18//9
f 94//10 93//10 21//10 22//10
f 101//11 102//11 19//11 16//11
f 122//12 104//12 18//12 109//12
f 100//13 96//13 20//13 80//13
f 95//14 96//14 7//14 8//14
f 123//15 20//15 17//15 128//15
f 219//16 81//16 31//16 210//16
f 221//17 110//17 28//17 209//17
f 108//18 9//18 28//18 110//18
f 141//19 12//19 29//19 137//19
f 84//20 32//20 31//20 81//20
f 214//21 13//21 30//21 217//21
f 209//22 28//22 9//22 215//22
f 225//23 137//23 29//23 216//23
f 106//24 33//24 23//24 103//24
f 94//25 22//25 36//25 97//25
f 101//26 16//26 34//26 105//26
f 121//27 111//27 33//27 106//27
f 99//28 82//28 35//28 98//28
f 95//29 8//29 27//29 98//29
f 124//30 128//30 17//30 35//30
f 113//31 24//31 1//31 114//31
f 112//32 3//32 4//32 114//32
f 86//33 83//33 6//33 5//33
f 86//34 85//34 27//34 8//34
f 186//35 138//35 45//35 176//35
f 169//36 43//36 42//36 175//36
f 174//37 41//37 46//37 177//37
f 182//38 115//38 43//38 169//38
f 180//39 87//39 44//39 170//39
f 185//40 172//40 39//40 142//40
f 167//41 175//41 42//41 37//41
f 174//42 173//42 40//42 41//42
f 181//43 167//43 37//43 116//43
f 179//44 168//44 38//44 88//44
f 184//45 171//45 54//45 126//45
f 183//46 130//46 53//46 178//46
f 140//47 136//47 49//47 51//47
f 224//48 129//48 50//48 218//48
f 125//49 52//49 50//49 129//49
f 139//50 48//50 49//50 136//50
f 223//51 211//51 47//51 127//51
f 125//52 127//52 47//52 52//52
f 204//53 198//53 66//53 131//53
f 203//54 132//54 65//54 193//54
f 206//55 143//55 63//55 191//55
f 196//56 57//56 62//56 190//56
f 189//57 61//57 64//57 192//57
f 202//58 117//58 57//58 196//58
f 200//59 89//59 58//59 197//59
f 205//60 187//60 59//60 144//60
f 194//61 190//61 62//61 55//61
f 189//62 188//62 60//62 61//62
f 201//63 194//63 55//63 118//63
f 199//64 195//64 56//64 90//64
f 164//65 133//65 78//65 153//65
f 163//66 158//66 77//66 134//66
f 160//67 155//67 74//67 91//67
f 162//68 154//68 73//68 119//68
f 149//69 148//69 68//69 69//69
f 154//70 150//70 70//70 73//70
f 166//71 147//71 67//71 145//71
f 159//72 92//72 76//72 157//72
f 161//73 120//73 75//73 156//73
f 149//74 69//74 72//74 152//74
f 156//75 75//75 70//75 150//75
f 165//76 146//76 71//76 151//76
f 152//77 72//77 92//77 159//77
f 148//78 160//78 91//78 68//78
f 188//79 199//79 90//79 60//79
f 192//80 64//80 89//80 200//80
f 173//81 179//81 88//81 40//81
f 177//82 46//82 87//82 180//82
f 5//83 26//83 85//83 86//83
f 8//84 7//84 83//84 86//84
f 97//85 36//85 82//85 99//85
f 13//86 84//86 81//86 30//86
f 217//87 30//87 81//87 219//87
f 93//88 100//88 80//88 21//88
f 13//89 14//89 79//89 84//89
f 213//90 220//90 79//90 14//90
f 6//91 83//91 100//91 93//91
f 26//92 97//92 99//92 85//92
f 17//93 95//93 98//93 35//93
f 85//94 99//94 98//94 27//94
f 5//95 94//95 97//95 26//95
f 17//96 20//96 96//96 95//96
f 83//97 7//97 96//97 100//97
f 5//98 6//98 93//98 94//98
f 113//99 121//99 106//99 24//99
f 4//100 101//100 105//100 25//100
f 24//101 106//101 103//101 1//101
f 112//102 2//102 104//102 122//102
f 4//103 3//103 102//103 101//103
f 2//104 1//104 103//104 104//104
f 3//105 112//105 122//105 102//105
f 25//106 105//106 121//106 113//106
f 151//107 71//107 120//107 161//107
f 147//108 162//108 119//108 67//108
f 187//109 201//109 118//109 59//109
f 191//110 63//110 117//110 202//110
f 172//111 181//111 116//111 39//111
f 176//112 45//112 115//112 182//112
f 2//113 112//113 114//113 1//113
f 25//114 113//114 114//114 4//114
f 105//115 34//115 111//115 121//115
f 12//116 108//116 110//116 29//116
f 216//117 29//117 110//117 221//117
f 102//118 122//118 109//118 19//118
f 12//119 11//119 107//119 108//119
f 212//120 222//120 107//120 11//120
f 155//121 163//121 134//121 74//121
f 157//122 76//122 133//122 164//122
f 197//123 58//123 132//123 203//123
f 195//124 204//124 131//124 56//124
f 32//125 15//125 127//125 125//125
f 208//126 223//126 127//126 15//126
f 32//127 125//127 129//127 31//127
f 210//128 31//128 129//128 224//128
f 170//129 44//129 130//129 183//129
f 168//130 184//130 126//130 38//130
f 51//131 49//131 128//131 124//131
f 48//132 123//132 128//132 49//132
f 153//133 78//133 146//133 165//133
f 158//134 166//134 145//134 77//134
f 198//135 205//135 144//135 66//135
f 193//136 65//136 143//136 206//136
f 19//137 139//137 136//137 16//137
f 34//138 16//138 136//138 140//138
f 171//139 185//139 142//139 54//139
f 178//140 53//140 138//140 186//140
f 218//141 50//141 137//141 225//141
f 52//142 141//142 137//142 50//142
f 211//143 226//143 135//143 47//143
f 52//144 47//144 135//144 141//144
f 48//145 139//145 166//145 158//145
f 51//146 153//146 165//146 140//146
f 35//147 157//147 164//147 124//147
f 20//148 123//148 163//148 155//148
f 19//149 109//149 162//149 147//149
f 34//150 151//150 161//150 111//150
f 21//151 80//151 160//151 148//151
f 36//152 152//152 159//152 82//152
f 140//153 165//153 151//153 34//153
f 33//154 156//154 150//154 23//154
f 22//155 149//155 152//155 36//155
f 111//156 161//156 156//156 33//156
f 82//157 159//157 157//157 35//157
f 139//158 19//158 147//158 166//158
f 18//159 23//159 150//159 154//159
f 22//160 21//160 148//160 149//160
f 109//161 18//161 154//161 162//161
f 80//162 20//162 155//162 160//162
f 123//163 48//163 158//163 163//163
f 124//164 164//164 153//164 51//164
f 78//165 178//165 186//165 146//165
f 77//166 145//166 185//166 171//166
f 74//167 134//167 184//167 168//167
f 76//168 170//168 183//168 133//168
f 71//169 176//169 182//169 120//169
f 67//170 119//170 181//170 172//170
f 72//171 177//171 180//171 92//171
f 68//172 91//172 179//172 173//172
f 133//173 183//173 178//173 78//173
f 134//174 77//174 171//174 184//174
f 91//175 74//175 168//175 179//175
f 119//176 73//176 167//176 181//176
f 69//177 68//177 173//177 174//177
f 73//178 70//178 175//178 167//178
f 145//179 67//179 172//179 185//179
f 92//180 180//180 170//180 76//180
f 120//181 182//181 169//181 75//181
f 69//182 174//182 177//182 72//182
f 75//183 169//183 175//183 70//183
f 146//184 186//184 176//184 71//184
f 53//185 193//185 206//185 138//185
f 54//186 142//186 205//186 198//186
f 38//187 126//187 204//187 195//187
f 44//188 197//188 203//188 130//188
f 45//189 191//189 202//189 115//189
f 39//190 116//190 201//190 187//190
f 46//191 192//191 200//191 87//191
f 40//192 88//192 199//192 188//192
f 88//193 38//193 195//193 199//193
f 116//194 37//194 194//194 201//194
f 41//195 40//195 188//195 189//195
f 37//196 42//196 190//196 194//196
f 142//197 39//197 187//197 205//197
f 87//198 200//198 197//198 44//198
f 115//199 202//199 196//199 43//199
f 41//200 189//200 192//200 46//200
f 43//201 196//201 190//201 42//201
f 138//202 206//202 191//202 45//202
f 130//203 203//203 193//203 53//203
f 126//204 54//204 198//204 204//204
f 66//205 144//205 226//205 211//205
f 65//206 218//206 225//206 143//206
f 58//207 210//207 224//207 132//207
f 56//208 131//208 223//208 208//208
f 59//209 118//209 222//209 212//209
f 63//210 216//210 221//210 117//210
f 60//211 90//211 220//211 213//211
f 64//212 217//212 219//212 89//212
f 131//213 66//213 211//213 223//213
f 132//214 224//214 218//214 65//214
f 143//215 225//215 216//215 63//215
f 57//216 209//216 215//216 62//216
f 61//217 214//217 217//217 64//217
f 117//218 221//218 209//218 57//218
f 89//219 219//219 210//219 58//219
f 144//220 59//220 212//220 226//220
f 55//221 62//221 215//221 207//221
f 61//6 60//6 213//6 214//6
f 118//222 55//222 207//222 222//222
f 90//223 56//223 208//223 220//223
