# Blender v2.77 (sub 0) OBJ File: 'V1.5 Sail.blend'
# www.blender.org
mtllib V1.5 Sail_000014.mtl
o Cube.001
v 0.063474 12.624714 0.097643
v 0.282530 12.626940 0.125765
v 0.282143 12.095137 0.126426
v 0.049767 12.092911 0.096244
v 0.090938 3.504272 0.119583
v 0.369109 3.506497 0.174998
v 0.358633 4.365361 0.170142
v 0.087938 4.363135 0.117444
v -0.453424 10.680549 2.747410
v -0.233983 10.682775 2.780892
v -0.638016 8.313966 5.009792
v -0.866954 8.311740 4.987627
v -1.018529 3.504272 7.472510
v -0.732149 3.506498 7.454885
v -0.747364 4.625604 7.101322
v -0.121824 9.533196 0.631102
v -0.157798 5.975260 0.703626
v -0.006307 11.790948 1.239054
v 0.094392 9.535422 0.646186
v 0.119219 5.977485 0.732556
v -0.266151 3.506497 3.319269
v -0.546060 3.504272 3.253362
v -0.227700 11.788722 1.224987
v -0.149174 12.626940 0.035331
v -0.174315 12.095137 0.034270
v -0.178395 3.506497 0.030469
v -0.177982 4.365361 0.030340
v -0.664533 10.682775 2.680137
v -1.068601 8.313966 4.937595
v -1.304908 3.506498 7.454885
v -1.307787 4.625604 7.097869
v -1.026228 4.623378 7.117456
v -0.425966 11.790948 1.175012
v -0.340524 9.535422 0.578943
v -0.423590 5.977485 0.640874
v -0.810127 3.506497 3.154953
v -0.109772 11.236861 2.015809
v -0.382556 5.301545 3.906260
v -0.229035 8.924693 2.851749
v -0.647581 3.506497 5.402154
v -0.927218 3.504272 5.337581
v -0.332030 11.234635 1.987692
v -0.546521 11.236861 1.925666
v -0.931518 5.301545 3.853363
v -0.675839 8.924693 2.749203
v -1.193051 3.506497 5.241298
v -0.802165 6.469786 6.065901
v 0.169459 7.756454 0.706446
v -0.041915 7.754228 0.684491
v -1.302005 6.469786 5.963567
v -0.284974 7.756454 0.615171
v -1.053587 6.467560 6.033823
v -0.813518 7.113120 3.283713
v -0.325786 7.113120 3.388625
v -0.143510 10.959818 2.407606
v -0.670760 4.963574 5.533329
v -0.574630 10.959818 2.304189
v -1.210793 4.963574 5.413361
v -0.461773 8.619330 3.913379
v -0.735333 3.506497 6.380054
v -1.019445 3.504272 6.396898
v -0.363610 10.957592 2.372645
v -0.900972 8.619330 3.853892
v -1.307692 3.506497 6.377769
v -1.011978 6.791453 4.653028
v -0.507068 6.791453 4.716145
v -0.053069 9.230058 1.745095
v -0.379756 3.506497 4.307833
v -0.662542 3.504272 4.308435
v -0.273480 11.511679 1.607457
v -0.510861 9.230058 1.671389
v -0.939989 3.506497 4.270724
v -0.052888 11.513905 1.625928
v -0.039163 5.639515 2.360964
v -0.488517 11.513905 1.554671
v -0.640811 5.639515 2.247653
v -0.050388 7.434787 2.056242
v -0.577329 7.434786 1.960340
v -0.735082 4.066051 7.278032
v -0.059977 4.741992 1.996964
v -1.301975 4.066051 7.278032
v -0.616017 4.741991 1.933610
v 0.366250 3.935929 0.173396
v -1.018529 4.063825 7.295657
v -0.175644 3.935929 0.030435
v 0.090760 3.933703 0.118745
v -0.947382 4.404021 4.586371
v -0.394288 4.404021 4.639033
v -1.307637 4.235035 5.911667
v -0.750053 4.235035 5.929909
v -0.266904 4.573006 3.346955
v -0.835735 4.573006 3.227140
v -0.039964 3.506497 1.724402
v -0.309999 3.504272 1.672050
v -0.012969 5.169198 0.414377
v 0.260139 5.171423 0.462888
v -0.574615 3.506497 1.559679
v -0.277995 5.171423 0.332032
v -0.353792 4.338960 0.943884
v 0.163545 4.338960 1.123727
v -0.049701 10.813052 0.361281
v 0.195570 10.815278 0.389701
v -0.144700 12.206718 0.650366
v 0.076408 12.208944 0.664422
v -0.278374 10.815278 0.304935
v -0.331257 12.208944 0.602417
v -0.468858 9.498370 3.892880
v -0.689475 9.496144 3.862395
v 0.036693 10.663184 0.939972
v -0.893013 9.498370 3.807818
v -0.382809 10.663184 0.877208
v 0.283619 12.361038 0.126492
v -0.159883 12.361038 0.034884
v 0.059916 12.358812 0.097520
v -0.627541 10.080777 2.338808
v -0.132162 10.080777 2.445746
v -0.748283 9.789575 3.067319
v -0.316180 9.789575 3.163624
v -0.013545 10.371982 1.699934
v -0.500468 10.371982 1.613019
v -0.310681 11.512111 0.453496
v 0.124212 11.512111 0.523647
v 0.126073 6.866970 0.711412
v -0.318658 6.866970 0.627696
v -1.078588 5.545468 6.568872
v -0.371262 6.207333 3.641163
v -0.804049 5.547694 6.574928
v -0.061049 6.864745 0.700848
v -1.336404 5.547694 6.529004
v -0.895434 6.207333 3.572089
v -0.579833 5.877513 5.124508
v -1.093217 5.877513 5.036157
v -0.605971 6.537152 2.105960
v -0.081647 6.537152 2.195242
v -0.642480 7.391876 5.538278
v -0.080901 8.643712 0.657966
v -1.139554 7.391876 5.467891
v -0.739127 8.018907 3.014087
v 0.159995 8.645938 0.685711
v -0.317463 8.645938 0.597555
v -0.928374 7.389650 5.516304
v -0.273131 8.018907 3.126469
v -0.953323 7.705391 4.257335
v -0.483681 7.705391 4.312003
v -0.049464 8.332421 1.904436
v -0.544313 8.332421 1.815896
v 0.003052 9.382739 1.188225
v -0.397173 3.506497 3.775518
v -0.680578 3.504272 3.767554
v -0.246416 11.650201 1.416952
v -0.427477 9.382739 1.125252
v -0.961066 3.506497 3.724866
v -0.468194 7.595620 1.285914
v -0.026956 11.652427 1.433258
v -0.007693 5.808500 1.529253
v -0.457304 11.652427 1.364813
v -0.553098 5.808500 1.441139
v 0.013082 7.595620 1.359647
v -0.632320 4.657499 2.590145
v -0.075475 4.657499 2.696815
v -0.442377 10.517583 1.245099
v -0.015475 10.517583 1.308772
v 0.014690 6.702061 1.448603
v -0.501242 6.702061 1.363871
v -0.446474 8.489181 1.205921
v 0.008726 8.489181 1.273816
v -0.083244 11.375382 1.816394
v -0.219212 5.470530 3.152053
v -0.513444 11.375382 1.740623
v -0.754458 5.470530 3.024546
v -0.154226 7.273953 2.738177
v -0.114044 9.077376 2.309446
v -0.444650 3.506497 4.892664
v -0.724505 3.504272 4.835320
v -0.300542 11.373157 1.797961
v -0.598880 9.077376 2.208793
v -0.991387 3.506497 4.746646
v -0.652347 7.273953 2.617337
v -0.397071 4.488513 3.955373
v -0.959292 4.488513 3.928356
v -0.066586 10.226379 2.076311
v -0.556931 10.226379 1.974493
v -0.705731 6.372242 2.821378
v -0.188750 6.372242 2.946639
v -0.131553 8.175664 2.524176
v -0.605667 8.175664 2.413388
v -0.355565 8.772012 3.390576
v -0.746513 3.506497 5.855466
v -1.029603 3.504272 5.857395
v -0.328017 11.096114 2.183633
v -0.803513 8.772012 3.295843
v -1.313608 3.506497 5.824171
v -0.932763 6.952286 3.979400
v -0.099635 11.098340 2.220246
v -0.449516 5.132559 4.730105
v -0.559295 11.098340 2.115407
v -0.990565 5.132559 4.646410
v -0.434856 6.952286 4.038050
v -0.611011 4.319528 5.343897
v -1.150122 4.319528 5.185101
v -0.232507 9.935176 2.802249
v -0.666931 9.935176 2.702883
v -0.974198 6.042424 4.319115
v -0.447280 6.042424 4.375640
v -0.412269 7.862149 3.704910
v -0.886042 7.862149 3.640837
v -0.190331 10.821296 2.593779
v -0.761676 4.794589 6.289396
v -0.620168 10.821296 2.492066
v -1.318263 4.794589 6.264019
v -0.655464 6.630620 5.393027
v -0.518872 8.466647 4.458384
v -0.732149 3.506498 6.917159
v -1.018529 3.504272 6.934784
v -0.409700 10.819070 2.559821
v -0.964218 8.466647 4.404035
v -1.304908 3.506498 6.917159
v -1.141680 6.630620 5.313422
v -1.301975 4.150543 6.598809
v -0.735082 4.150543 6.598809
v -0.830700 9.643971 3.439582
v -0.392628 9.643971 3.530392
v -0.753003 5.712604 5.854051
v -1.269973 5.712604 5.761376
v -1.038127 7.548634 4.862624
v -0.552748 7.548634 4.925805
vn 0.9995 0.0305 -0.0044
vn 0.9762 0.0073 0.2167
vn -0.1107 0.6923 0.7130
vn -0.0784 0.4979 0.8637
vn 0.0547 0.3027 0.9515
vn 0.0078 -1.0000 0.0000
vn -0.0969 0.8110 0.5770
vn 0.9763 0.0870 0.1983
vn -0.0452 0.8109 0.5834
vn 0.0078 -1.0000 0.0011
vn 0.0938 -0.2066 -0.9739
vn 0.9842 0.0063 0.1771
vn 0.9711 0.0800 0.2250
vn 0.1681 0.3569 -0.9189
vn 0.0849 -0.0183 -0.9962
vn -0.9999 -0.0166 0.0041
vn -0.9844 0.0311 -0.1729
vn -0.1961 0.6942 0.6926
vn -0.1959 0.4989 0.8442
vn -0.0602 0.3038 0.9508
vn -0.0078 -1.0000 0.0000
vn -0.1704 0.8117 0.5587
vn -0.9828 -0.0212 -0.1834
vn -0.1356 0.8106 0.5697
vn -0.0079 -1.0000 -0.0012
vn 0.2282 -0.2138 -0.9498
vn -0.9872 0.0046 -0.1595
vn -0.9703 -0.0833 -0.2271
vn 0.2859 0.3647 -0.8862
vn 0.2509 -0.0371 -0.9673
vn 0.2775 -0.0064 -0.9607
vn 0.1286 -0.0003 -0.9917
vn 0.1950 -0.0021 -0.9808
vn 0.3130 0.0003 -0.9498
vn -0.9829 -0.0096 -0.1839
vn -0.1510 0.8072 0.5707
vn -0.0073 -1.0000 -0.0030
vn -0.9828 0.0012 -0.1849
vn -0.9940 0.0242 -0.1063
vn 0.9738 0.0280 0.2258
vn -0.0688 0.8175 0.5718
vn 0.0073 -1.0000 0.0029
vn 0.9812 0.0530 0.1854
vn 0.9940 -0.0112 0.1090
vn 0.9654 0.0235 0.2598
vn -0.9711 0.0077 -0.2387
vn 0.2610 -0.0135 -0.9653
vn -0.9875 0.0004 -0.1578
vn -0.1788 0.5084 0.8424
vn 0.1094 -0.0234 -0.9937
vn 0.9890 0.0234 0.1458
vn -0.0671 0.4923 0.8678
vn 0.9894 0.0131 0.1450
vn -0.9903 0.0118 -0.1384
vn -0.9908 0.0182 -0.1342
vn -0.1675 0.8057 0.5682
vn -0.0078 -1.0000 0.0001
vn -0.9870 0.0272 -0.1585
vn -0.9693 -0.0042 -0.2459
vn 0.9868 0.0203 0.1607
vn -0.1000 0.8113 0.5761
vn 0.0078 -1.0000 -0.0002
vn 0.9737 0.0032 0.2280
vn 0.9672 0.0151 0.2536
vn -0.9892 0.0159 -0.1457
vn 0.9940 -0.0025 0.1095
vn 0.9884 0.0152 0.1513
vn 0.9985 0.0212 0.0513
vn 0.0079 -1.0000 -0.0003
vn -0.0541 0.8127 0.5801
vn 0.9947 0.0189 0.1007
vn -0.9741 -0.0820 -0.2108
vn -0.9877 0.0029 -0.1566
vn -0.0080 -1.0000 0.0003
vn -0.1320 0.8108 0.5703
vn -0.9883 0.0098 -0.1523
vn -0.9877 0.0466 -0.1489
vn 0.9880 -0.0641 0.1408
vn 0.9935 -0.0068 0.1139
vn -0.9930 0.0221 -0.1161
vn 0.9863 -0.0088 0.1648
vn -0.9868 0.0196 -0.1610
vn 0.3144 -0.0019 -0.9493
vn 0.1929 -0.0029 -0.9812
vn -0.9809 0.0255 -0.1928
vn -0.0565 0.3010 0.9519
vn -1.0000 0.0050 0.0003
vn 0.9828 -0.0245 0.1831
vn 0.0565 0.3010 0.9519
vn 1.0000 0.0050 0.0003
vn 0.9692 -0.0380 0.2433
vn -0.9698 0.0560 -0.2373
vn 0.2473 0.3759 -0.8931
vn -0.9812 -0.0349 -0.1898
vn -0.0076 -1.0000 -0.0020
vn 0.1281 0.3451 -0.9298
vn 0.9788 0.0369 0.2013
vn 0.0077 -1.0000 0.0020
vn -0.9592 0.0337 -0.2806
vn 0.2448 -0.2172 -0.9449
vn -0.1453 0.8164 0.5589
vn 0.9336 -0.0047 0.3583
vn 0.1210 -0.2091 -0.9704
vn -0.0648 0.8039 0.5912
vn 0.9224 0.0132 0.3861
vn -0.9604 0.0252 -0.2774
vn -0.9883 0.0022 -0.1523
vn 0.9985 -0.0110 0.0536
vn 0.9770 0.0097 0.2131
vn -0.9823 0.0114 -0.1867
vn 0.9814 -0.0083 0.1916
vn -0.9866 -0.0070 -0.1632
vn 0.1279 -0.0017 -0.9918
vn 0.2702 -0.0091 -0.9628
vn -0.9839 0.0035 -0.1786
vn -0.1732 0.6925 0.7003
vn -0.9795 -0.0458 -0.1962
vn 0.9605 0.0027 0.2781
vn -0.0908 0.6916 0.7166
vn 0.9689 0.0811 0.2336
vn 0.9961 0.0229 0.0855
vn -0.9927 0.0339 -0.1161
vn -0.9739 -0.0159 -0.2262
vn 0.9716 0.0473 0.2317
vn 0.0117 0.5041 0.8636
vn 0.9985 0.0435 0.0334
vn -0.0898 0.5132 0.8535
vn -0.9992 -0.0110 -0.0372
vn -0.9732 -0.0158 -0.2293
vn 0.9697 0.0403 0.2408
vn 0.2734 -0.0237 -0.9616
vn 0.0815 -0.0148 -0.9966
vn -0.9876 0.0106 -0.1565
vn 0.9954 0.0145 0.0947
vn 0.9930 0.0220 0.1164
vn -0.9939 0.0133 -0.1096
vn 0.0935 -0.0315 -0.9951
vn 0.2399 -0.0162 -0.9707
vn 0.9683 0.0251 0.2484
vn -0.9743 0.0063 -0.2250
vn -0.9802 0.0420 -0.1937
vn -0.2126 0.4958 0.8420
vn 0.9844 -0.0490 0.1690
vn -0.0907 0.5016 0.8603
vn 0.9691 0.0222 0.2459
vn -0.9702 -0.0191 -0.2416
vn -0.9802 0.0769 -0.1824
vn 0.9884 -0.0075 0.1519
vn 0.9876 0.0045 0.1571
vn -0.9876 0.0040 -0.1570
vn 0.9880 -0.0999 0.1179
vn -0.9877 0.0895 -0.1285
vn -0.9823 -0.0127 -0.1871
vn -0.1336 0.8103 0.5705
vn -0.0077 -1.0000 -0.0020
vn -0.9873 0.0040 -0.1589
vn -0.9952 0.0138 -0.0972
vn 0.9731 0.0546 0.2238
vn -0.0481 0.8139 0.5790
vn 0.0076 -1.0000 0.0021
vn 0.9917 -0.0001 0.1282
vn 0.9956 -0.0078 0.0934
vn 0.9824 -0.0132 0.1861
vn -0.9689 0.0238 -0.2464
vn -0.9945 0.0243 -0.1020
vn 0.9892 0.0166 0.1453
vn 0.9802 0.0463 0.1925
vn -0.9903 0.0197 -0.1372
vn -0.9874 0.0024 -0.1579
vn 0.9933 -0.0240 0.1128
vn -0.9858 -0.0723 -0.1517
vn 0.9831 0.0770 0.1662
vn -0.9924 0.0217 -0.1212
vn 0.9896 -0.0084 0.1437
vn 0.9765 -0.0051 0.2155
vn 0.9844 0.0487 0.1693
vn 0.0078 -1.0000 0.0009
vn -0.0573 0.8115 0.5815
vn 0.9920 0.0182 0.1246
vn -0.9873 0.0558 -0.1489
vn -0.9895 0.0055 -0.1442
vn -0.0080 -1.0000 -0.0009
vn -0.1394 0.8066 0.5744
vn -0.9913 -0.0033 -0.1314
vn -0.9803 -0.0008 -0.1975
vn 0.9785 0.0266 0.2047
vn 0.9950 0.0256 0.0968
vn -0.9960 -0.0012 -0.0894
vn -0.9836 0.0004 -0.1803
vn 0.9680 0.0156 0.2505
vn -0.9646 0.0329 -0.2616
vn 0.9650 -0.0247 0.2612
vn 0.9804 0.0505 0.1903
vn 0.9870 0.0041 0.1608
vn 0.0077 -1.0000 0.0016
vn -0.0898 0.8175 0.5689
vn 0.9712 0.0231 0.2373
vn -0.9805 -0.0423 -0.1921
vn -0.9964 0.0521 -0.0671
vn -0.0077 -1.0000 -0.0016
vn -0.1596 0.8035 0.5735
vn -0.9738 0.0018 -0.2274
vn -0.9911 0.0220 -0.1311
vn 0.9907 0.0124 0.1354
vn 0.9855 0.0126 0.1692
vn -0.9863 0.0114 -0.1643
vn -0.9843 0.0043 -0.1766
vn 0.9829 0.0302 0.1815
vn 0.9900 -0.0144 0.1403
vn -0.9880 0.0054 -0.1543
vn 0.9999 0.0046 -0.0147
vn -1.0000 0.0064 0.0073
vn 0.9738 0.0170 0.2266
vn -0.9770 0.0154 -0.2125
vn -0.9922 0.0098 -0.1245
vn -0.1717 0.8120 0.5579
vn -0.0077 -1.0000 0.0000
vn -0.9744 -0.0043 -0.2248
vn -0.9978 0.0205 -0.0627
vn 0.9931 0.0239 0.1145
vn -0.0987 0.8107 0.5770
vn 0.9759 0.0016 0.2184
vn 0.9986 -0.0121 0.0511
usemtl Material.001
s off
f 220//1 208//1 15//1 79//1
f 222//2 207//2 10//2 107//2
f 108//3 107//3 10//3 9//3
f 141//4 135//4 11//4 12//4
f 84//5 79//5 15//5 32//5
f 214//6 213//6 14//6 13//6
f 207//7 215//7 9//7 10//7
f 226//8 212//8 11//8 135//8
f 104//9 103//9 23//9 18//9
f 94//10 93//10 21//10 22//10
f 101//11 102//11 19//11 16//11
f 122//12 104//12 18//12 109//12
f 100//13 96//13 20//13 80//13
f 95//14 96//14 7//14 8//14
f 123//15 20//15 17//15 128//15
f 219//16 81//16 31//16 210//16
f 221//17 110//17 28//17 209//17
f 108//18 9//18 28//18 110//18
f 141//19 12//19 29//19 137//19
f 84//20 32//20 31//20 81//20
f 214//21 13//21 30//21 217//21
f 209//22 28//22 9//22 215//22
f 225//23 137//23 29//23 216//23
f 106//24 33//24 23//24 103//24
f 94//25 22//25 36//25 97//25
f 101//26 16//26 34//26 105//26
f 121//27 111//27 33//27 106//27
f 99//28 82//28 35//28 98//28
f 95//29 8//29 27//29 98//29
f 124//30 128//30 17//30 35//30
f 113//31 24//31 1//31 114//31
f 112//32 3//32 4//32 114//32
f 86//33 83//33 6//33 5//33
f 86//34 85//34 27//34 8//34
f 186//35 138//35 45//35 176//35
f 169//36 43//36 42//36 175//36
f 174//37 41//37 46//37 177//37
f 182//38 115//38 43//38 169//38
f 180//39 87//39 44//39 170//39
f 185//40 172//40 39//40 142//40
f 167//41 175//41 42//41 37//41
f 174//42 173//42 40//42 41//42
f 181//43 167//43 37//43 116//43
f 179//44 168//44 38//44 88//44
f 184//45 171//45 54//45 126//45
f 183//46 130//46 53//46 178//46
f 140//47 136//47 49//47 51//47
f 224//48 129//48 50//48 218//48
f 125//49 52//49 50//49 129//49
f 139//50 48//50 49//50 136//50
f 223//51 211//51 47//51 127//51
f 125//52 127//52 47//52 52//52
f 204//53 198//53 66//53 131//53
f 203//54 132//54 65//54 193//54
f 206//55 143//55 63//55 191//55
f 196//56 57//56 62//56 190//56
f 189//57 61//57 64//57 192//57
f 202//58 117//58 57//58 196//58
f 200//59 89//59 58//59 197//59
f 205//60 187//60 59//60 144//60
f 194//61 190//61 62//61 55//61
f 189//62 188//62 60//62 61//62
f 201//63 194//63 55//63 118//63
f 199//64 195//64 56//64 90//64
f 164//65 133//65 78//65 153//65
f 163//66 158//66 77//66 134//66
f 160//67 155//67 74//67 91//67
f 162//68 154//68 73//68 119//68
f 149//69 148//69 68//69 69//69
f 154//70 150//70 70//70 73//70
f 166//71 147//71 67//71 145//71
f 159//72 92//72 76//72 157//72
f 161//73 120//73 75//73 156//73
f 149//74 69//74 72//74 152//74
f 156//75 75//75 70//75 150//75
f 165//76 146//76 71//76 151//76
f 152//77 72//77 92//77 159//77
f 148//78 160//78 91//78 68//78
f 188//79 199//79 90//79 60//79
f 192//80 64//80 89//80 200//80
f 173//81 179//81 88//81 40//81
f 177//82 46//82 87//82 180//82
f 5//83 26//83 85//83 86//83
f 8//84 7//84 83//84 86//84
f 97//85 36//85 82//85 99//85
f 13//86 84//86 81//86 30//86
f 217//87 30//87 81//87 219//87
f 93//88 100//88 80//88 21//88
f 13//89 14//89 79//89 84//89
f 213//90 220//90 79//90 14//90
f 6//91 83//91 100//91 93//91
f 26//92 97//92 99//92 85//92
f 17//93 95//93 98//93 35//93
f 85//94 99//94 98//94 27//94
f 5//95 94//95 97//95 26//95
f 17//96 20//96 96//96 95//96
f 83//97 7//97 96//97 100//97
f 5//98 6//98 93//98 94//98
f 113//99 121//99 106//99 24//99
f 4//100 101//100 105//100 25//100
f 24//101 106//101 103//101 1//101
f 112//102 2//102 104//102 122//102
f 4//103 3//103 102//103 101//103
f 2//104 1//104 103//104 104//104
f 3//105 112//105 122//105 102//105
f 25//106 105//106 121//106 113//106
f 151//107 71//107 120//107 161//107
f 147//108 162//108 119//108 67//108
f 187//109 201//109 118//109 59//109
f 191//110 63//110 117//110 202//110
f 172//111 181//111 116//111 39//111
f 176//112 45//112 115//112 182//112
f 2//113 112//113 114//113 1//113
f 25//114 113//114 114//114 4//114
f 105//115 34//115 111//115 121//115
f 12//116 108//116 110//116 29//116
f 216//117 29//117 110//117 221//117
f 102//118 122//118 109//118 19//118
f 12//119 11//119 107//119 108//119
f 212//120 222//120 107//120 11//120
f 155//121 163//121 134//121 74//121
f 157//122 76//122 133//122 164//122
f 197//123 58//123 132//123 203//123
f 195//124 204//124 131//124 56//124
f 32//125 15//125 127//125 125//125
f 208//126 223//126 127//126 15//126
f 32//127 125//127 129//127 31//127
f 210//128 31//128 129//128 224//128
f 170//129 44//129 130//129 183//129
f 168//130 184//130 126//130 38//130
f 51//131 49//131 128//131 124//131
f 48//132 123//132 128//132 49//132
f 153//133 78//133 146//133 165//133
f 158//134 166//134 145//134 77//134
f 198//135 205//135 144//135 66//135
f 193//136 65//136 143//136 206//136
f 19//137 139//137 136//137 16//137
f 34//138 16//138 136//138 140//138
f 171//139 185//139 142//139 54//139
f 178//140 53//140 138//140 186//140
f 218//141 50//141 137//141 225//141
f 52//142 141//142 137//142 50//142
f 211//143 226//143 135//143 47//143
f 52//144 47//144 135//144 141//144
f 48//145 139//145 166//145 158//145
f 51//146 153//146 165//146 140//146
f 35//147 157//147 164//147 124//147
f 20//148 123//148 163//148 155//148
f 19//149 109//149 162//149 147//149
f 34//150 151//150 161//150 111//150
f 21//151 80//151 160//151 148//151
f 36//152 152//152 159//152 82//152
f 140//153 165//153 151//153 34//153
f 33//154 156//154 150//154 23//154
f 22//155 149//155 152//155 36//155
f 111//156 161//156 156//156 33//156
f 82//157 159//157 157//157 35//157
f 139//158 19//158 147//158 166//158
f 18//159 23//159 150//159 154//159
f 22//160 21//160 148//160 149//160
f 109//161 18//161 154//161 162//161
f 80//162 20//162 155//162 160//162
f 123//163 48//163 158//163 163//163
f 124//164 164//164 153//164 51//164
f 78//165 178//165 186//165 146//165
f 77//166 145//166 185//166 171//166
f 74//167 134//167 184//167 168//167
f 76//168 170//168 183//168 133//168
f 71//169 176//169 182//169 120//169
f 67//170 119//170 181//170 172//170
f 72//171 177//171 180//171 92//171
f 68//172 91//172 179//172 173//172
f 133//173 183//173 178//173 78//173
f 134//174 77//174 171//174 184//174
f 91//175 74//175 168//175 179//175
f 119//176 73//176 167//176 181//176
f 69//177 68//177 173//177 174//177
f 73//178 70//178 175//178 167//178
f 145//179 67//179 172//179 185//179
f 92//180 180//180 170//180 76//180
f 120//181 182//181 169//181 75//181
f 69//182 174//182 177//182 72//182
f 75//183 169//183 175//183 70//183
f 146//184 186//184 176//184 71//184
f 53//185 193//185 206//185 138//185
f 54//186 142//186 205//186 198//186
f 38//187 126//187 204//187 195//187
f 44//188 197//188 203//188 130//188
f 45//189 191//189 202//189 115//189
f 39//190 116//190 201//190 187//190
f 46//191 192//191 200//191 87//191
f 40//192 88//192 199//192 188//192
f 88//193 38//193 195//193 199//193
f 116//194 37//194 194//194 201//194
f 41//195 40//195 188//195 189//195
f 37//196 42//196 190//196 194//196
f 142//197 39//197 187//197 205//197
f 87//198 200//198 197//198 44//198
f 115//199 202//199 196//199 43//199
f 41//200 189//200 192//200 46//200
f 43//201 196//201 190//201 42//201
f 138//202 206//202 191//202 45//202
f 130//203 203//203 193//203 53//203
f 126//204 54//204 198//204 204//204
f 66//205 144//205 226//205 211//205
f 65//206 218//206 225//206 143//206
f 58//207 210//207 224//207 132//207
f 56//208 131//208 223//208 208//208
f 59//209 118//209 222//209 212//209
f 63//210 216//210 221//210 117//210
f 60//211 90//211 220//211 213//211
f 64//212 217//212 219//212 89//212
f 131//213 66//213 211//213 223//213
f 132//214 224//214 218//214 65//214
f 143//215 225//215 216//215 63//215
f 57//216 209//216 215//216 62//216
f 61//217 214//217 217//217 64//217
f 117//218 221//218 209//218 57//218
f 89//219 219//219 210//219 58//219
f 144//220 59//220 212//220 226//220
f 55//221 62//221 215//221 207//221
f 61//6 60//6 213//6 214//6
f 118//222 55//222 207//222 222//222
f 90//223 56//223 208//223 220//223
