# Blender v2.79 (sub 0) OBJ File: 'Seagull V1.1.blend'
# www.blender.org
mtllib Seagull_000025.mtl
o Cube
v 0.458728 0.339200 0.189066
v 0.458728 0.339200 -0.189066
v 0.453605 0.181587 0.189066
v 0.453605 0.181587 -0.189066
v 0.969777 0.153714 0.189066
v 0.969777 0.153714 -0.189066
v 0.966143 0.041908 0.189066
v 0.966143 0.041908 -0.189066
v 0.068119 -0.113995 -0.189066
v 0.332845 0.105020 -0.189066
v 0.146583 -0.037009 -0.189066
v 0.244136 0.043119 -0.189066
v 0.332898 0.104874 0.189066
v 0.068243 -0.113920 0.189066
v 0.244157 0.043020 0.189066
v 0.146575 -0.037044 0.189066
v 0.070134 0.224078 -0.189066
v 0.339768 0.313431 -0.189066
v 0.153271 0.258141 -0.189066
v 0.251767 0.290679 -0.189066
v 0.339767 0.313431 0.189066
v 0.070539 0.223960 0.189066
v 0.251579 0.290829 0.189066
v 0.153255 0.258150 0.189066
v 0.529226 0.336908 0.189066
v 0.939718 0.177822 0.189066
v 0.592903 0.329873 0.189066
v 0.665147 0.312965 0.189066
v 0.741036 0.287337 0.189066
v 0.815397 0.254735 0.189066
v 0.883164 0.217382 0.189066
v 0.939718 0.177822 -0.189066
v 0.529227 0.336908 -0.189066
v 0.883164 0.217382 -0.189066
v 0.815397 0.254735 -0.189066
v 0.741036 0.287337 -0.189066
v 0.665147 0.312965 -0.189066
v 0.592903 0.329873 -0.189066
v 0.935880 0.059742 0.189066
v 0.524104 0.179296 0.189066
v 0.878994 0.089070 0.189066
v 0.810917 0.116889 0.189066
v 0.736290 0.141303 0.189066
v 0.660197 0.160649 0.189066
v 0.587824 0.173607 0.189066
v 0.524104 0.179296 -0.189066
v 0.935880 0.059742 -0.189066
v 0.587824 0.173607 -0.189066
v 0.660197 0.160649 -0.189066
v 0.736290 0.141303 -0.189066
v 0.810917 0.116889 -0.189066
v 0.878994 0.089070 -0.189066
v -0.465260 0.330182 0.189066
v -0.465260 0.330182 -0.189066
v -0.457063 0.172700 0.189066
v -0.457063 0.172700 -0.189066
v 0.001843 -0.188888 -0.189066
v 0.001843 -0.188888 0.189066
v -0.001843 0.188888 -0.189066
v -0.001843 0.188888 0.189066
v -0.972592 0.134758 0.189066
v -0.972592 0.134758 -0.189066
v -0.966777 0.023045 0.189066
v -0.966777 0.023045 -0.189066
v -0.065881 -0.115303 -0.189066
v -0.334831 0.098504 -0.189066
v -0.145833 -0.039863 -0.189066
v -0.244931 0.038346 -0.189066
v -0.334881 0.098357 0.189066
v -0.066007 -0.115230 0.189066
v -0.244950 0.038246 0.189066
v -0.145824 -0.039898 0.189066
v -0.074493 0.222666 -0.189066
v -0.345820 0.306740 -0.189066
v -0.158280 0.255101 -0.189066
v -0.257392 0.285711 -0.189066
v -0.345820 0.306740 0.189066
v -0.074897 0.222540 0.189066
v -0.257207 0.285864 0.189066
v -0.158264 0.255110 0.189066
v -0.535701 0.326516 0.189066
v -0.943009 0.159448 0.189066
v -0.599228 0.318239 0.189066
v -0.671128 0.299924 0.189066
v -0.746502 0.272820 0.189066
v -0.820214 0.238773 0.189066
v -0.887238 0.200104 0.189066
v -0.943009 0.159448 -0.189066
v -0.535701 0.326516 -0.189066
v -0.887239 0.200104 -0.189066
v -0.820214 0.238773 -0.189066
v -0.746503 0.272820 -0.189066
v -0.671129 0.299924 -0.189066
v -0.599228 0.318239 -0.189066
v -0.936868 0.041466 0.189066
v -0.527504 0.169033 0.189066
v -0.880565 0.071898 0.189066
v -0.813044 0.101041 0.189066
v -0.738907 0.126907 0.189066
v -0.663207 0.147733 0.189066
v -0.591101 0.162102 0.189066
v -0.527504 0.169033 -0.189066
v -0.936868 0.041466 -0.189066
v -0.591101 0.162102 -0.189066
v -0.663207 0.147733 -0.189066
v -0.738907 0.126907 -0.189066
v -0.813044 0.101041 -0.189066
v -0.880565 0.071898 -0.189066
vn 0.0000 0.0000 -1.0000
vn -0.4376 0.8992 0.0004
vn 0.5359 -0.8443 -0.0002
vn -0.2117 0.9773 0.0000
vn -0.0000 -0.0000 1.0000
vn 0.6257 0.7801 0.0000
vn -0.5077 -0.8615 0.0000
vn 0.9995 -0.0325 0.0000
vn -0.0325 -0.9995 0.0000
vn 0.5720 -0.8202 -0.0003
vn 0.6345 -0.7729 -0.0001
vn 0.7004 -0.7138 -0.0001
vn -0.3806 0.9248 0.0003
vn -0.3145 0.9492 -0.0003
vn -0.2493 0.9684 -0.0003
vn 0.7487 -0.6629 -0.0001
vn 0.1098 0.9940 0.0000
vn 0.2279 0.9737 0.0000
vn 0.3200 0.9474 0.0000
vn 0.4015 0.9158 0.0000
vn 0.4827 0.8758 0.0000
vn 0.5732 0.8194 0.0000
vn -0.4582 -0.8888 0.0000
vn -0.3783 -0.9257 0.0000
vn -0.3109 -0.9504 0.0000
vn -0.2464 -0.9692 0.0000
vn -0.1763 -0.9843 0.0000
vn -0.0889 -0.9960 0.0000
vn 0.0325 0.9995 0.0000
vn 0.4200 0.9075 0.0004
vn -0.5193 -0.8546 -0.0002
vn 0.1926 0.9813 -0.0000
vn -0.6408 0.7677 0.0000
vn 0.5244 -0.8515 0.0000
vn -0.9986 -0.0520 0.0000
vn 0.0520 -0.9986 0.0000
vn -0.5559 -0.8312 -0.0003
vn -0.6193 -0.7852 -0.0001
vn -0.6863 -0.7273 -0.0001
vn 0.3624 0.9320 0.0003
vn 0.2960 0.9552 -0.0003
vn 0.2303 0.9731 -0.0003
vn -0.7357 -0.6774 -0.0001
vn -0.1292 0.9916 -0.0000
vn -0.2468 0.9691 0.0000
vn -0.3384 0.9410 0.0000
vn -0.4193 0.9078 0.0000
vn -0.4997 0.8662 0.0000
vn -0.5891 0.8081 0.0000
vn 0.4755 -0.8797 0.0000
vn 0.3963 -0.9181 0.0000
vn 0.3294 -0.9442 0.0000
vn 0.2653 -0.9642 0.0000
vn 0.1954 -0.9807 0.0000
vn 0.1083 -0.9941 0.0000
vn -0.0520 0.9986 0.0000
usemtl Material
s off
f 47//1 32//1 6//1 8//1
f 17//2 59//2 60//2 22//2
f 17//1 9//1 57//1 59//1
f 13//3 10//3 4//3 3//3
f 18//4 21//4 1//4 2//4
f 14//5 22//5 60//5 58//5
f 21//5 13//5 3//5 1//5
f 10//1 18//1 2//1 4//1
f 26//5 39//5 7//5 5//5
f 32//6 26//6 5//6 6//6
f 39//7 47//7 8//7 7//7
f 8//8 6//8 5//8 7//8
f 4//1 2//1 33//1 46//1
f 3//9 4//9 46//9 40//9
f 1//5 3//5 40//5 25//5
f 10//10 13//10 15//10 12//10
f 12//11 15//11 16//11 11//11
f 11//12 16//12 14//12 9//12
f 9//1 17//1 19//1 11//1
f 11//1 19//1 20//1 12//1
f 12//1 20//1 18//1 10//1
f 13//5 21//5 23//5 15//5
f 15//5 23//5 24//5 16//5
f 16//5 24//5 22//5 14//5
f 17//13 22//13 24//13 19//13
f 19//14 24//14 23//14 20//14
f 20//15 23//15 21//15 18//15
f 9//16 14//16 58//16 57//16
f 33//17 25//17 27//17 38//17
f 38//18 27//18 28//18 37//18
f 37//19 28//19 29//19 36//19
f 36//20 29//20 30//20 35//20
f 35//21 30//21 31//21 34//21
f 34//22 31//22 26//22 32//22
f 47//23 39//23 41//23 52//23
f 52//24 41//24 42//24 51//24
f 51//25 42//25 43//25 50//25
f 50//26 43//26 44//26 49//26
f 49//27 44//27 45//27 48//27
f 48//28 45//28 40//28 46//28
f 39//5 26//5 31//5 41//5
f 41//5 31//5 30//5 42//5
f 42//5 30//5 29//5 43//5
f 43//5 29//5 28//5 44//5
f 44//5 28//5 27//5 45//5
f 45//5 27//5 25//5 40//5
f 46//1 33//1 38//1 48//1
f 48//1 38//1 37//1 49//1
f 49//1 37//1 36//1 50//1
f 50//1 36//1 35//1 51//1
f 51//1 35//1 34//1 52//1
f 52//1 34//1 32//1 47//1
f 2//29 1//29 25//29 33//29
f 103//1 64//1 62//1 88//1
f 73//30 78//30 60//30 59//30
f 73//1 59//1 57//1 65//1
f 69//31 55//31 56//31 66//31
f 74//32 54//32 53//32 77//32
f 70//5 58//5 60//5 78//5
f 77//5 53//5 55//5 69//5
f 66//1 56//1 54//1 74//1
f 82//5 61//5 63//5 95//5
f 88//33 62//33 61//33 82//33
f 95//34 63//34 64//34 103//34
f 64//35 63//35 61//35 62//35
f 56//1 102//1 89//1 54//1
f 55//36 96//36 102//36 56//36
f 53//5 81//5 96//5 55//5
f 66//37 68//37 71//37 69//37
f 68//38 67//38 72//38 71//38
f 67//39 65//39 70//39 72//39
f 65//1 67//1 75//1 73//1
f 67//1 68//1 76//1 75//1
f 68//1 66//1 74//1 76//1
f 69//5 71//5 79//5 77//5
f 71//5 72//5 80//5 79//5
f 72//5 70//5 78//5 80//5
f 73//40 75//40 80//40 78//40
f 75//41 76//41 79//41 80//41
f 76//42 74//42 77//42 79//42
f 65//43 57//43 58//43 70//43
f 89//44 94//44 83//44 81//44
f 94//45 93//45 84//45 83//45
f 93//46 92//46 85//46 84//46
f 92//47 91//47 86//47 85//47
f 91//48 90//48 87//48 86//48
f 90//49 88//49 82//49 87//49
f 103//50 108//50 97//50 95//50
f 108//51 107//51 98//51 97//51
f 107//52 106//52 99//52 98//52
f 106//53 105//53 100//53 99//53
f 105//54 104//54 101//54 100//54
f 104//55 102//55 96//55 101//55
f 95//5 97//5 87//5 82//5
f 97//5 98//5 86//5 87//5
f 98//5 99//5 85//5 86//5
f 99//5 100//5 84//5 85//5
f 100//5 101//5 83//5 84//5
f 101//5 96//5 81//5 83//5
f 102//1 104//1 94//1 89//1
f 104//1 105//1 93//1 94//1
f 105//1 106//1 92//1 93//1
f 106//1 107//1 91//1 92//1
f 107//1 108//1 90//1 91//1
f 108//1 103//1 88//1 90//1
f 54//56 89//56 81//56 53//56
