# Blender v2.79 (sub 0) OBJ File: 'Seagull V1.1.blend'
# www.blender.org
mtllib Seagull_000009.mtl
o Cube
v 0.511631 0.252430 0.189066
v 0.511632 0.252430 -0.189066
v 0.478627 0.098227 0.189066
v 0.478627 0.098227 -0.189066
v 0.981663 -0.020784 0.189066
v 0.981663 -0.020784 -0.189066
v 0.958251 -0.130171 0.189066
v 0.958251 -0.130171 -0.189066
v 0.068059 -0.108103 -0.189066
v 0.345198 0.046357 -0.189066
v 0.139283 -0.048764 -0.189066
v 0.245078 0.007798 -0.189066
v 0.345609 0.045411 0.189066
v 0.068846 -0.107555 0.189066
v 0.245259 0.007152 0.189066
v 0.139245 -0.049002 0.189066
v 0.079946 0.213265 -0.189066
v 0.389987 0.248176 -0.189066
v 0.182324 0.232863 -0.189066
v 0.294568 0.244454 -0.189066
v 0.389987 0.248176 0.189066
v 0.082680 0.212653 0.189066
v 0.293266 0.245366 0.189066
v 0.182216 0.232914 0.189066
v 0.580605 0.237667 0.189066
v 0.956358 0.008274 0.189066
v 0.642023 0.219445 0.189066
v 0.710121 0.189988 0.189066
v 0.780259 0.151302 0.189066
v 0.847656 0.106024 0.189066
v 0.907721 0.057240 0.189066
v 0.956359 0.008274 -0.189066
v 0.580605 0.237667 -0.189066
v 0.907721 0.057240 -0.189066
v 0.847657 0.106024 -0.189066
v 0.780259 0.151302 -0.189066
v 0.710121 0.189988 -0.189066
v 0.642023 0.219445 -0.189066
v 0.931632 -0.107251 0.189066
v 0.547600 0.083464 0.189066
v 0.880852 -0.068296 0.189066
v 0.818791 -0.028840 0.189066
v 0.749679 0.008427 0.189066
v 0.678225 0.040967 0.189066
v 0.609300 0.066560 0.189066
v 0.547600 0.083464 -0.189066
v 0.931632 -0.107251 -0.189066
v 0.609300 0.066560 -0.189066
v 0.678225 0.040967 -0.189066
v 0.749679 0.008427 -0.189066
v 0.818791 -0.028840 -0.189066
v 0.880852 -0.068296 -0.189066
v -0.542803 0.175647 0.189066
v -0.542804 0.175647 -0.189066
v -0.487807 0.027852 0.189066
v -0.487807 0.027852 -0.189066
v 0.013183 -0.181037 -0.189066
v 0.013183 -0.181037 0.189066
v -0.013183 0.181037 -0.189066
v -0.013183 0.181037 0.189066
v -0.968297 -0.162778 0.189066
v -0.968297 -0.162778 -0.189066
v -0.929284 -0.267619 0.189066
v -0.929284 -0.267619 -0.189066
v -0.051680 -0.116822 -0.189066
v -0.348273 -0.004140 -0.189066
v -0.130749 -0.068428 -0.189066
v -0.243622 -0.027789 -0.189066
v -0.348542 -0.005136 0.189066
v -0.052538 -0.116394 0.189066
v -0.243708 -0.028454 0.189066
v -0.130677 -0.068657 0.189066
v -0.109998 0.199433 -0.189066
v -0.421826 0.189061 -0.189066
v -0.214135 0.203993 -0.189066
v -0.326875 0.199201 -0.189066
v -0.421826 0.189061 0.189066
v -0.112615 0.198431 0.189066
v -0.325718 0.200293 0.189066
v -0.214036 0.204059 0.189066
v -0.608911 0.151048 0.189066
v -0.947468 -0.130360 0.189066
v -0.667041 0.124121 0.189066
v -0.730153 0.085109 0.189066
v -0.793947 0.036671 0.189066
v -0.854074 -0.017893 0.189066
v -0.906437 -0.074864 0.189066
v -0.947469 -0.130360 -0.189066
v -0.608911 0.151048 -0.189066
v -0.906438 -0.074864 -0.189066
v -0.854074 -0.017893 -0.189066
v -0.793947 0.036671 -0.189066
v -0.730154 0.085109 -0.189066
v -0.667041 0.124121 -0.189066
v -0.906267 -0.241085 0.189066
v -0.553915 0.003253 0.189066
v -0.861665 -0.195184 0.189066
v -0.805975 -0.147153 0.189066
v -0.742991 -0.100267 0.189066
v -0.677006 -0.057720 0.189066
v -0.612515 -0.022411 0.189066
v -0.553915 0.003253 -0.189066
v -0.906267 -0.241085 -0.189066
v -0.612515 -0.022411 -0.189066
v -0.677006 -0.057720 -0.189066
v -0.742991 -0.100267 -0.189066
v -0.805975 -0.147153 -0.189066
v -0.861665 -0.195184 -0.189066
vn 0.0000 0.0000 -1.0000
vn -0.3200 0.9474 0.0019
vn 0.3657 -0.9307 -0.0014
vn -0.0349 0.9994 -0.0000
vn -0.0000 -0.0000 1.0000
vn 0.7541 0.6567 0.0000
vn -0.6525 -0.7578 -0.0000
vn 0.9779 -0.2093 0.0000
vn -0.2093 -0.9779 0.0000
vn 0.3578 -0.9338 -0.0022
vn 0.4698 -0.8828 -0.0011
vn 0.6398 -0.7686 -0.0003
vn -0.1937 0.9811 0.0014
vn -0.1071 0.9943 -0.0015
vn -0.0340 0.9994 -0.0013
vn 0.7981 -0.6025 -0.0004
vn 0.2844 0.9587 0.0000
vn 0.3970 0.9178 0.0000
vn 0.4830 0.8756 0.0000
vn 0.5576 0.8301 0.0000
vn 0.6305 0.7762 0.0000
vn 0.7095 0.7047 0.0000
vn -0.6087 -0.7934 0.0000
vn -0.5365 -0.8439 0.0000
vn -0.4746 -0.8802 0.0000
vn -0.4144 -0.9101 0.0000
vn -0.3481 -0.9375 0.0000
vn -0.2642 -0.9645 0.0000
vn 0.2093 0.9779 0.0000
vn 0.1794 0.9838 0.0019
vn -0.2270 -0.9739 -0.0014
vn -0.1102 0.9939 -0.0000
vn -0.8413 0.5405 0.0000
vn 0.7554 -0.6553 0.0000
vn -0.9372 -0.3487 0.0000
vn 0.3487 -0.9372 0.0000
vn -0.2188 -0.9758 -0.0022
vn -0.3369 -0.9415 -0.0011
vn -0.5217 -0.8531 -0.0003
vn 0.0495 0.9988 0.0014
vn -0.0381 0.9993 -0.0015
vn -0.1112 0.9938 -0.0013
vn -0.7024 -0.7118 -0.0004
vn -0.4203 0.9074 0.0000
vn -0.5258 0.8506 0.0000
vn -0.6047 0.7964 0.0000
vn -0.6720 0.7405 0.0000
vn -0.7363 0.6767 0.0000
vn -0.8041 0.5945 0.0000
vn 0.7172 -0.6969 0.0000
vn 0.6531 -0.7573 0.0000
vn 0.5971 -0.8021 0.0000
vn 0.5419 -0.8404 0.0000
vn 0.4802 -0.8771 0.0000
vn 0.4012 -0.9160 0.0000
vn -0.3487 0.9372 0.0000
usemtl Material
s off
f 47//1 32//1 6//1 8//1
f 17//2 59//2 60//2 22//2
f 17//1 9//1 57//1 59//1
f 13//3 10//3 4//3 3//3
f 18//4 21//4 1//4 2//4
f 14//5 22//5 60//5 58//5
f 21//5 13//5 3//5 1//5
f 10//1 18//1 2//1 4//1
f 26//5 39//5 7//5 5//5
f 32//6 26//6 5//6 6//6
f 39//7 47//7 8//7 7//7
f 8//8 6//8 5//8 7//8
f 4//1 2//1 33//1 46//1
f 3//9 4//9 46//9 40//9
f 1//5 3//5 40//5 25//5
f 10//10 13//10 15//10 12//10
f 12//11 15//11 16//11 11//11
f 11//12 16//12 14//12 9//12
f 9//1 17//1 19//1 11//1
f 11//1 19//1 20//1 12//1
f 12//1 20//1 18//1 10//1
f 13//5 21//5 23//5 15//5
f 15//5 23//5 24//5 16//5
f 16//5 24//5 22//5 14//5
f 17//13 22//13 24//13 19//13
f 19//14 24//14 23//14 20//14
f 20//15 23//15 21//15 18//15
f 9//16 14//16 58//16 57//16
f 33//17 25//17 27//17 38//17
f 38//18 27//18 28//18 37//18
f 37//19 28//19 29//19 36//19
f 36//20 29//20 30//20 35//20
f 35//21 30//21 31//21 34//21
f 34//22 31//22 26//22 32//22
f 47//23 39//23 41//23 52//23
f 52//24 41//24 42//24 51//24
f 51//25 42//25 43//25 50//25
f 50//26 43//26 44//26 49//26
f 49//27 44//27 45//27 48//27
f 48//28 45//28 40//28 46//28
f 39//5 26//5 31//5 41//5
f 41//5 31//5 30//5 42//5
f 42//5 30//5 29//5 43//5
f 43//5 29//5 28//5 44//5
f 44//5 28//5 27//5 45//5
f 45//5 27//5 25//5 40//5
f 46//1 33//1 38//1 48//1
f 48//1 38//1 37//1 49//1
f 49//1 37//1 36//1 50//1
f 50//1 36//1 35//1 51//1
f 51//1 35//1 34//1 52//1
f 52//1 34//1 32//1 47//1
f 2//29 1//29 25//29 33//29
f 103//1 64//1 62//1 88//1
f 73//30 78//30 60//30 59//30
f 73//1 59//1 57//1 65//1
f 69//31 55//31 56//31 66//31
f 74//32 54//32 53//32 77//32
f 70//5 58//5 60//5 78//5
f 77//5 53//5 55//5 69//5
f 66//1 56//1 54//1 74//1
f 82//5 61//5 63//5 95//5
f 88//33 62//33 61//33 82//33
f 95//34 63//34 64//34 103//34
f 64//35 63//35 61//35 62//35
f 56//1 102//1 89//1 54//1
f 55//36 96//36 102//36 56//36
f 53//5 81//5 96//5 55//5
f 66//37 68//37 71//37 69//37
f 68//38 67//38 72//38 71//38
f 67//39 65//39 70//39 72//39
f 65//1 67//1 75//1 73//1
f 67//1 68//1 76//1 75//1
f 68//1 66//1 74//1 76//1
f 69//5 71//5 79//5 77//5
f 71//5 72//5 80//5 79//5
f 72//5 70//5 78//5 80//5
f 73//40 75//40 80//40 78//40
f 75//41 76//41 79//41 80//41
f 76//42 74//42 77//42 79//42
f 65//43 57//43 58//43 70//43
f 89//44 94//44 83//44 81//44
f 94//45 93//45 84//45 83//45
f 93//46 92//46 85//46 84//46
f 92//47 91//47 86//47 85//47
f 91//48 90//48 87//48 86//48
f 90//49 88//49 82//49 87//49
f 103//50 108//50 97//50 95//50
f 108//51 107//51 98//51 97//51
f 107//52 106//52 99//52 98//52
f 106//53 105//53 100//53 99//53
f 105//54 104//54 101//54 100//54
f 104//55 102//55 96//55 101//55
f 95//5 97//5 87//5 82//5
f 97//5 98//5 86//5 87//5
f 98//5 99//5 85//5 86//5
f 99//5 100//5 84//5 85//5
f 100//5 101//5 83//5 84//5
f 101//5 96//5 81//5 83//5
f 102//1 104//1 94//1 89//1
f 104//1 105//1 93//1 94//1
f 105//1 106//1 92//1 93//1
f 106//1 107//1 91//1 92//1
f 107//1 108//1 90//1 91//1
f 108//1 103//1 88//1 90//1
f 54//56 89//56 81//56 53//56
