# Blender v2.79 (sub 0) OBJ File: 'Seagull V1.1.blend'
# www.blender.org
mtllib Seagull_000016.mtl
o Cube
v 0.496973 0.280188 0.189066
v 0.496973 0.280188 -0.189066
v 0.472500 0.124403 0.189066
v 0.472500 0.124403 -0.189066
v 0.981320 0.033240 0.189066
v 0.981321 0.033240 -0.189066
v 0.963960 -0.077270 0.189066
v 0.963960 -0.077270 -0.189066
v 0.068369 -0.110754 -0.189066
v 0.342583 0.064698 -0.189066
v 0.142211 -0.045427 -0.189066
v 0.245774 0.018742 -0.189066
v 0.342869 0.063998 0.189066
v 0.068955 -0.110364 0.189066
v 0.245897 0.018265 0.189066
v 0.142179 -0.045601 0.189066
v 0.077501 0.217730 -0.189066
v 0.375746 0.269250 -0.189066
v 0.174151 0.241655 -0.189066
v 0.282389 0.259661 -0.189066
v 0.375746 0.269250 0.189066
v 0.079496 0.217237 0.189066
v 0.281449 0.260351 0.189066
v 0.174072 0.241693 0.189066
v 0.566654 0.269241 0.189066
v 0.954456 0.060862 0.189066
v 0.628982 0.254425 0.189066
v 0.698597 0.228758 0.189066
v 0.770756 0.193988 0.189066
v 0.840542 0.152486 0.189066
v 0.903198 0.107079 0.189066
v 0.954456 0.060862 -0.189066
v 0.566655 0.269241 -0.189066
v 0.903199 0.107079 -0.189066
v 0.840542 0.152486 -0.189066
v 0.770756 0.193988 -0.189066
v 0.698597 0.228758 -0.189066
v 0.628982 0.254425 -0.189066
v 0.936121 -0.055848 0.189066
v 0.542181 0.113456 0.189066
v 0.883275 -0.019745 0.189066
v 0.819138 0.016238 0.189066
v 0.748080 0.049648 0.189066
v 0.674946 0.078208 0.189066
v 0.604717 0.099971 0.189066
v 0.542181 0.113456 -0.189066
v 0.936121 -0.055848 -0.189066
v 0.604717 0.099971 -0.189066
v 0.674946 0.078208 -0.189066
v 0.748080 0.049648 -0.189066
v 0.819138 0.016238 -0.189066
v 0.883275 -0.019745 -0.189066
v -0.522853 0.228282 0.189066
v -0.522853 0.228282 -0.189066
v -0.482689 0.075786 0.189066
v -0.482689 0.075786 -0.189066
v 0.009406 -0.184803 -0.189066
v 0.009406 -0.184803 0.189066
v -0.009406 0.184803 -0.189066
v -0.009406 0.184803 0.189066
v -0.979624 -0.066567 0.189066
v -0.979624 -0.066567 -0.189066
v -0.951133 -0.174742 0.189066
v -0.951133 -0.174742 -0.189066
v -0.056771 -0.117123 -0.189066
v -0.347382 0.029581 -0.189066
v -0.136864 -0.059631 -0.189066
v -0.246407 -0.006309 -0.189066
v -0.347595 0.028855 0.189066
v -0.057393 -0.116795 0.189066
v -0.246481 -0.006795 0.189066
v -0.136815 -0.059801 0.189066
v -0.099206 0.208736 -0.189066
v -0.401142 0.229708 -0.189066
v -0.197786 0.222724 -0.189066
v -0.307294 0.229648 -0.189066
v -0.401142 0.229709 0.189066
v -0.101141 0.208043 0.189066
v -0.306428 0.230430 0.189066
v -0.197712 0.222771 0.189066
v -0.591063 0.210317 0.189066
v -0.955703 -0.036359 0.189066
v -0.651563 0.189249 0.189066
v -0.718213 0.156646 0.189066
v -0.786469 0.114730 0.189066
v -0.851680 0.066357 0.189066
v -0.909403 0.014823 0.189066
v -0.955703 -0.036359 -0.189066
v -0.591063 0.210317 -0.189066
v -0.909403 0.014823 -0.189066
v -0.851681 0.066357 -0.189066
v -0.786469 0.114730 -0.189066
v -0.718213 0.156646 -0.189066
v -0.651563 0.189249 -0.189066
v -0.925613 -0.150605 0.189066
v -0.550898 0.057821 0.189066
v -0.876705 -0.109323 0.189066
v -0.816553 -0.067014 0.189066
v -0.749255 -0.026562 0.189066
v -0.679398 0.009275 0.189066
v -0.611742 0.038057 0.189066
v -0.550898 0.057821 -0.189066
v -0.925613 -0.150605 -0.189066
v -0.611742 0.038057 -0.189066
v -0.679398 0.009275 -0.189066
v -0.749255 -0.026562 -0.189066
v -0.816553 -0.067014 -0.189066
v -0.876705 -0.109323 -0.189066
vn 0.0000 0.0000 -1.0000
vn -0.3485 0.9373 0.0015
vn 0.4200 -0.9075 -0.0010
vn -0.0899 0.9960 -0.0000
vn -0.0000 -0.0000 1.0000
vn 0.7169 0.6972 0.0000
vn -0.6098 -0.7925 0.0000
vn 0.9879 -0.1552 0.0000
vn -0.1552 -0.9879 0.0000
vn 0.4277 -0.9039 -0.0016
vn 0.5255 -0.8508 -0.0008
vn 0.6626 -0.7490 -0.0003
vn -0.2453 0.9695 0.0012
vn -0.1676 0.9858 -0.0012
vn -0.0980 0.9952 -0.0010
vn 0.7816 -0.6238 -0.0003
vn 0.2313 0.9729 0.0000
vn 0.3459 0.9383 0.0000
vn 0.4341 0.9009 0.0000
vn 0.5111 0.8595 0.0000
vn 0.5868 0.8097 0.0000
vn 0.6696 0.7427 0.0000
vn -0.5641 -0.8257 0.0000
vn -0.4893 -0.8721 0.0000
vn -0.4255 -0.9050 0.0000
vn -0.3638 -0.9315 0.0000
vn -0.2960 -0.9552 0.0000
vn -0.2108 -0.9775 0.0000
vn 0.1552 0.9879 0.0000
vn 0.2515 0.9679 0.0015
vn -0.3257 -0.9455 -0.0010
vn -0.0117 0.9999 -0.0000
vn -0.7840 0.6208 0.0000
vn 0.6871 -0.7265 -0.0000
vn -0.9670 -0.2547 0.0000
vn 0.2547 -0.9670 0.0000
vn -0.3337 -0.9427 -0.0016
vn -0.4364 -0.8997 -0.0008
vn -0.5831 -0.8124 -0.0003
vn 0.1456 0.9893 0.0012
vn 0.0667 0.9978 -0.0012
vn -0.0035 1.0000 -0.0010
vn -0.7142 -0.6999 -0.0003
vn -0.3289 0.9444 0.0000
vn -0.4394 0.8983 0.0000
vn -0.5233 0.8521 0.0000
vn -0.5958 0.8032 0.0000
vn -0.6660 0.7460 0.0000
vn -0.7416 0.6709 0.0000
vn 0.6450 -0.7642 0.0000
vn 0.5753 -0.8179 0.0000
vn 0.5152 -0.8571 0.0000
vn 0.4565 -0.8897 0.0000
vn 0.3915 -0.9202 0.0000
vn 0.3089 -0.9511 0.0000
vn -0.2547 0.9670 0.0000
usemtl Material
s off
f 47//1 32//1 6//1 8//1
f 17//2 59//2 60//2 22//2
f 17//1 9//1 57//1 59//1
f 13//3 10//3 4//3 3//3
f 18//4 21//4 1//4 2//4
f 14//5 22//5 60//5 58//5
f 21//5 13//5 3//5 1//5
f 10//1 18//1 2//1 4//1
f 26//5 39//5 7//5 5//5
f 32//6 26//6 5//6 6//6
f 39//7 47//7 8//7 7//7
f 8//8 6//8 5//8 7//8
f 4//1 2//1 33//1 46//1
f 3//9 4//9 46//9 40//9
f 1//5 3//5 40//5 25//5
f 10//10 13//10 15//10 12//10
f 12//11 15//11 16//11 11//11
f 11//12 16//12 14//12 9//12
f 9//1 17//1 19//1 11//1
f 11//1 19//1 20//1 12//1
f 12//1 20//1 18//1 10//1
f 13//5 21//5 23//5 15//5
f 15//5 23//5 24//5 16//5
f 16//5 24//5 22//5 14//5
f 17//13 22//13 24//13 19//13
f 19//14 24//14 23//14 20//14
f 20//15 23//15 21//15 18//15
f 9//16 14//16 58//16 57//16
f 33//17 25//17 27//17 38//17
f 38//18 27//18 28//18 37//18
f 37//19 28//19 29//19 36//19
f 36//20 29//20 30//20 35//20
f 35//21 30//21 31//21 34//21
f 34//22 31//22 26//22 32//22
f 47//23 39//23 41//23 52//23
f 52//24 41//24 42//24 51//24
f 51//25 42//25 43//25 50//25
f 50//26 43//26 44//26 49//26
f 49//27 44//27 45//27 48//27
f 48//28 45//28 40//28 46//28
f 39//5 26//5 31//5 41//5
f 41//5 31//5 30//5 42//5
f 42//5 30//5 29//5 43//5
f 43//5 29//5 28//5 44//5
f 44//5 28//5 27//5 45//5
f 45//5 27//5 25//5 40//5
f 46//1 33//1 38//1 48//1
f 48//1 38//1 37//1 49//1
f 49//1 37//1 36//1 50//1
f 50//1 36//1 35//1 51//1
f 51//1 35//1 34//1 52//1
f 52//1 34//1 32//1 47//1
f 2//29 1//29 25//29 33//29
f 103//1 64//1 62//1 88//1
f 73//30 78//30 60//30 59//30
f 73//1 59//1 57//1 65//1
f 69//31 55//31 56//31 66//31
f 74//32 54//32 53//32 77//32
f 70//5 58//5 60//5 78//5
f 77//5 53//5 55//5 69//5
f 66//1 56//1 54//1 74//1
f 82//5 61//5 63//5 95//5
f 88//33 62//33 61//33 82//33
f 95//34 63//34 64//34 103//34
f 64//35 63//35 61//35 62//35
f 56//1 102//1 89//1 54//1
f 55//36 96//36 102//36 56//36
f 53//5 81//5 96//5 55//5
f 66//37 68//37 71//37 69//37
f 68//38 67//38 72//38 71//38
f 67//39 65//39 70//39 72//39
f 65//1 67//1 75//1 73//1
f 67//1 68//1 76//1 75//1
f 68//1 66//1 74//1 76//1
f 69//5 71//5 79//5 77//5
f 71//5 72//5 80//5 79//5
f 72//5 70//5 78//5 80//5
f 73//40 75//40 80//40 78//40
f 75//41 76//41 79//41 80//41
f 76//42 74//42 77//42 79//42
f 65//43 57//43 58//43 70//43
f 89//44 94//44 83//44 81//44
f 94//45 93//45 84//45 83//45
f 93//46 92//46 85//46 84//46
f 92//47 91//47 86//47 85//47
f 91//48 90//48 87//48 86//48
f 90//49 88//49 82//49 87//49
f 103//50 108//50 97//50 95//50
f 108//51 107//51 98//51 97//51
f 107//52 106//52 99//52 98//52
f 106//53 105//53 100//53 99//53
f 105//54 104//54 101//54 100//54
f 104//55 102//55 96//55 101//55
f 95//5 97//5 87//5 82//5
f 97//5 98//5 86//5 87//5
f 98//5 99//5 85//5 86//5
f 99//5 100//5 84//5 85//5
f 100//5 101//5 83//5 84//5
f 101//5 96//5 81//5 83//5
f 102//1 104//1 94//1 89//1
f 104//1 105//1 93//1 94//1
f 105//1 106//1 92//1 93//1
f 106//1 107//1 91//1 92//1
f 107//1 108//1 90//1 91//1
f 108//1 103//1 88//1 90//1
f 54//56 89//56 81//56 53//56
