# Blender v2.79 (sub 0) OBJ File: 'Seagull V1.1.blend'
# www.blender.org
mtllib Seagull_000002.mtl
o Cube
v 0.449558 0.351262 0.189066
v 0.449558 0.351262 -0.189066
v 0.448623 0.193569 0.189066
v 0.448623 0.193569 -0.189066
v 0.965352 0.179414 0.189066
v 0.965353 0.179414 -0.189066
v 0.964689 0.067551 0.189066
v 0.964689 0.067551 -0.189066
v 0.067910 -0.114250 -0.189066
v 0.330061 0.113517 -0.189066
v 0.147147 -0.035047 -0.189066
v 0.243223 0.048313 -0.189066
v 0.330070 0.113490 0.189066
v 0.067933 -0.114236 0.189066
v 0.243227 0.048295 0.189066
v 0.147145 -0.035054 0.189066
v 0.068242 0.224824 -0.189066
v 0.331324 0.322343 -0.189066
v 0.148355 0.261112 -0.189066
v 0.244613 0.296776 -0.189066
v 0.331324 0.322343 0.189066
v 0.068317 0.224802 0.189066
v 0.244578 0.296804 0.189066
v 0.148352 0.261114 0.189066
v 0.520093 0.350844 0.189066
v 0.934664 0.202715 0.189066
v 0.583933 0.345502 0.189066
v 0.656601 0.330519 0.189066
v 0.733144 0.306915 0.189066
v 0.808345 0.276300 0.189066
v 0.877080 0.240759 0.189066
v 0.934664 0.202715 -0.189066
v 0.520093 0.350844 -0.189066
v 0.877080 0.240759 -0.189066
v 0.808345 0.276300 -0.189066
v 0.733144 0.306915 -0.189066
v 0.656601 0.330519 -0.189066
v 0.583934 0.345502 -0.189066
v 0.933964 0.084575 0.189066
v 0.519158 0.193151 0.189066
v 0.876318 0.112382 0.189066
v 0.807527 0.138383 0.189066
v 0.732278 0.160807 0.189066
v 0.655698 0.178125 0.189066
v 0.583007 0.189157 0.189066
v 0.519158 0.193151 -0.189066
v 0.933964 0.084575 -0.189066
v 0.583007 0.189157 -0.189066
v 0.655698 0.178125 -0.189066
v 0.732278 0.160807 -0.189066
v 0.807527 0.138383 -0.189066
v 0.876318 0.112382 -0.189066
v -0.450918 0.349515 0.189066
v -0.450918 0.349515 -0.189066
v -0.449371 0.191827 0.189066
v -0.449371 0.191827 -0.189066
v 0.000367 -0.189060 -0.189066
v 0.000367 -0.189060 0.189066
v -0.000367 0.189060 -0.189066
v -0.000367 0.189060 0.189066
v -0.966041 0.175667 0.189066
v -0.966042 0.175667 -0.189066
v -0.964944 0.063807 0.189066
v -0.964944 0.063807 -0.189066
v -0.067466 -0.114512 -0.189066
v -0.330499 0.112236 -0.189066
v -0.147010 -0.035618 -0.189066
v -0.243409 0.047369 -0.189066
v -0.330508 0.112208 0.189066
v -0.067489 -0.114499 0.189066
v -0.243412 0.047350 0.189066
v -0.147008 -0.035625 0.189066
v -0.069114 0.224558 -0.189066
v -0.332572 0.321055 -0.189066
v -0.149367 0.260535 -0.189066
v -0.245762 0.295825 -0.189066
v -0.332572 0.321055 0.189066
v -0.069189 0.224535 0.189066
v -0.245728 0.295853 0.189066
v -0.149364 0.260536 0.189066
v -0.521450 0.348823 0.189066
v -0.935443 0.199087 0.189066
v -0.585270 0.343233 0.189066
v -0.657879 0.327968 0.189066
v -0.734329 0.304068 0.189066
v -0.809411 0.273161 0.189066
v -0.878007 0.237354 0.189066
v -0.935444 0.199087 -0.189066
v -0.521450 0.348823 -0.189066
v -0.878007 0.237354 -0.189066
v -0.809411 0.273161 -0.189066
v -0.734329 0.304068 -0.189066
v -0.657879 0.327968 -0.189066
v -0.585270 0.343233 -0.189066
v -0.934285 0.080950 0.189066
v -0.519904 0.191135 0.189066
v -0.876748 0.108980 0.189066
v -0.808058 0.135248 0.189066
v -0.732896 0.157964 0.189066
v -0.656384 0.175579 0.189066
v -0.583736 0.186893 0.189066
v -0.519904 0.191135 -0.189066
v -0.934285 0.080950 -0.189066
v -0.583736 0.186893 -0.189066
v -0.656384 0.175579 -0.189066
v -0.732896 0.157964 -0.189066
v -0.808058 0.135248 -0.189066
v -0.876748 0.108980 -0.189066
vn 0.0000 0.0000 -1.0000
vn -0.4619 0.8869 0.0001
vn 0.5597 -0.8287 -0.0000
vn -0.2376 0.9714 -0.0000
vn 0.0000 -0.0000 1.0000
vn 0.6047 0.7964 0.0000
vn -0.4846 -0.8747 0.0000
vn 1.0000 -0.0059 0.0000
vn -0.0059 -1.0000 0.0000
vn 0.6004 -0.7997 -0.0001
vn 0.6553 -0.7554 -0.0000
vn 0.7070 -0.7073 -0.0000
vn -0.4129 0.9108 0.0001
vn -0.3476 0.9376 -0.0001
vn -0.2826 0.9592 -0.0000
vn 0.7422 -0.6702 -0.0000
vn 0.0834 0.9965 0.0000
vn 0.2019 0.9794 0.0000
vn 0.2947 0.9556 0.0000
vn 0.3771 0.9262 0.0000
vn 0.4593 0.8883 0.0000
vn 0.5512 0.8344 0.0000
vn -0.4345 -0.9007 0.0000
vn -0.3536 -0.9354 0.0000
vn -0.2856 -0.9584 0.0000
vn -0.2206 -0.9754 0.0000
vn -0.1500 -0.9887 0.0000
vn -0.0624 -0.9980 0.0000
vn 0.0059 1.0000 0.0000
vn 0.4585 0.8887 0.0001
vn -0.5564 -0.8309 -0.0000
vn 0.2338 0.9723 -0.0000
vn -0.6078 0.7941 0.0000
vn 0.4880 -0.8728 0.0000
vn -1.0000 -0.0098 0.0000
vn 0.0098 -1.0000 0.0000
vn -0.5973 -0.8020 -0.0001
vn -0.6524 -0.7579 -0.0000
vn -0.7042 -0.7100 -0.0000
vn 0.4094 0.9124 0.0001
vn 0.3439 0.9390 -0.0001
vn 0.2789 0.9603 -0.0000
vn -0.7396 -0.6730 -0.0000
vn -0.0873 0.9962 0.0000
vn -0.2057 0.9786 0.0000
vn -0.2984 0.9544 0.0000
vn -0.3807 0.9247 0.0000
vn -0.4627 0.8865 0.0000
vn -0.5545 0.8322 0.0000
vn 0.4380 -0.8990 0.0000
vn 0.3572 -0.9340 0.0000
vn 0.2893 -0.9572 0.0000
vn 0.2244 -0.9745 0.0000
vn 0.1539 -0.9881 0.0000
vn 0.0663 -0.9978 0.0000
vn -0.0098 1.0000 0.0000
usemtl Material
s off
f 47//1 32//1 6//1 8//1
f 17//2 59//2 60//2 22//2
f 17//1 9//1 57//1 59//1
f 13//3 10//3 4//3 3//3
f 18//4 21//4 1//4 2//4
f 14//5 22//5 60//5 58//5
f 21//5 13//5 3//5 1//5
f 10//1 18//1 2//1 4//1
f 26//5 39//5 7//5 5//5
f 32//6 26//6 5//6 6//6
f 39//7 47//7 8//7 7//7
f 8//8 6//8 5//8 7//8
f 4//1 2//1 33//1 46//1
f 3//9 4//9 46//9 40//9
f 1//5 3//5 40//5 25//5
f 10//10 13//10 15//10 12//10
f 12//11 15//11 16//11 11//11
f 11//12 16//12 14//12 9//12
f 9//1 17//1 19//1 11//1
f 11//1 19//1 20//1 12//1
f 12//1 20//1 18//1 10//1
f 13//5 21//5 23//5 15//5
f 15//5 23//5 24//5 16//5
f 16//5 24//5 22//5 14//5
f 17//13 22//13 24//13 19//13
f 19//14 24//14 23//14 20//14
f 20//15 23//15 21//15 18//15
f 9//16 14//16 58//16 57//16
f 33//17 25//17 27//17 38//17
f 38//18 27//18 28//18 37//18
f 37//19 28//19 29//19 36//19
f 36//20 29//20 30//20 35//20
f 35//21 30//21 31//21 34//21
f 34//22 31//22 26//22 32//22
f 47//23 39//23 41//23 52//23
f 52//24 41//24 42//24 51//24
f 51//25 42//25 43//25 50//25
f 50//26 43//26 44//26 49//26
f 49//27 44//27 45//27 48//27
f 48//28 45//28 40//28 46//28
f 39//5 26//5 31//5 41//5
f 41//5 31//5 30//5 42//5
f 42//5 30//5 29//5 43//5
f 43//5 29//5 28//5 44//5
f 44//5 28//5 27//5 45//5
f 45//5 27//5 25//5 40//5
f 46//1 33//1 38//1 48//1
f 48//1 38//1 37//1 49//1
f 49//1 37//1 36//1 50//1
f 50//1 36//1 35//1 51//1
f 51//1 35//1 34//1 52//1
f 52//1 34//1 32//1 47//1
f 2//29 1//29 25//29 33//29
f 103//1 64//1 62//1 88//1
f 73//30 78//30 60//30 59//30
f 73//1 59//1 57//1 65//1
f 69//31 55//31 56//31 66//31
f 74//32 54//32 53//32 77//32
f 70//5 58//5 60//5 78//5
f 77//5 53//5 55//5 69//5
f 66//1 56//1 54//1 74//1
f 82//5 61//5 63//5 95//5
f 88//33 62//33 61//33 82//33
f 95//34 63//34 64//34 103//34
f 64//35 63//35 61//35 62//35
f 56//1 102//1 89//1 54//1
f 55//36 96//36 102//36 56//36
f 53//5 81//5 96//5 55//5
f 66//37 68//37 71//37 69//37
f 68//38 67//38 72//38 71//38
f 67//39 65//39 70//39 72//39
f 65//1 67//1 75//1 73//1
f 67//1 68//1 76//1 75//1
f 68//1 66//1 74//1 76//1
f 69//5 71//5 79//5 77//5
f 71//5 72//5 80//5 79//5
f 72//5 70//5 78//5 80//5
f 73//40 75//40 80//40 78//40
f 75//41 76//41 79//41 80//41
f 76//42 74//42 77//42 79//42
f 65//43 57//43 58//43 70//43
f 89//44 94//44 83//44 81//44
f 94//45 93//45 84//45 83//45
f 93//46 92//46 85//46 84//46
f 92//47 91//47 86//47 85//47
f 91//48 90//48 87//48 86//48
f 90//49 88//49 82//49 87//49
f 103//50 108//50 97//50 95//50
f 108//51 107//51 98//51 97//51
f 107//52 106//52 99//52 98//52
f 106//53 105//53 100//53 99//53
f 105//54 104//54 101//54 100//54
f 104//55 102//55 96//55 101//55
f 95//5 97//5 87//5 82//5
f 97//5 98//5 86//5 87//5
f 98//5 99//5 85//5 86//5
f 99//5 100//5 84//5 85//5
f 100//5 101//5 83//5 84//5
f 101//5 96//5 81//5 83//5
f 102//1 104//1 94//1 89//1
f 104//1 105//1 93//1 94//1
f 105//1 106//1 92//1 93//1
f 106//1 107//1 91//1 92//1
f 107//1 108//1 90//1 91//1
f 108//1 103//1 88//1 90//1
f 54//56 89//56 81//56 53//56
