# Blender v2.79 (sub 0) OBJ File: 'Seagull V1.1.blend'
# www.blender.org
mtllib Seagull_000027.mtl
o Cube
v 0.451584 0.348654 0.189066
v 0.451584 0.348654 -0.189066
v 0.449736 0.190969 0.189066
v 0.449736 0.190969 -0.189066
v 0.966375 0.173822 0.189066
v 0.966375 0.173822 -0.189066
v 0.965064 0.061965 0.189066
v 0.965064 0.061965 -0.189066
v 0.067948 -0.114214 -0.189066
v 0.330688 0.111671 -0.189066
v 0.147033 -0.035486 -0.189066
v 0.243440 0.047178 -0.189066
v 0.330707 0.111618 0.189066
v 0.067992 -0.114188 0.189066
v 0.243447 0.047143 0.189066
v 0.147031 -0.035499 0.189066
v 0.068678 0.224675 -0.189066
v 0.333185 0.320420 -0.189066
v 0.149446 0.260478 -0.189066
v 0.246190 0.295463 -0.189066
v 0.333185 0.320420 0.189066
v 0.068824 0.224632 0.189066
v 0.246123 0.295518 0.189066
v 0.149440 0.260481 0.189066
v 0.522115 0.347827 0.189066
v 0.935822 0.197300 0.189066
v 0.585924 0.342116 0.189066
v 0.658504 0.326712 0.189066
v 0.734908 0.302665 0.189066
v 0.809931 0.271615 0.189066
v 0.878459 0.235677 0.189066
v 0.935822 0.197300 -0.189066
v 0.522115 0.347827 -0.189066
v 0.878459 0.235677 -0.189066
v 0.809931 0.271615 -0.189066
v 0.734908 0.302665 -0.189066
v 0.658504 0.326712 -0.189066
v 0.585924 0.342116 -0.189066
v 0.934438 0.079166 0.189066
v 0.520267 0.190142 0.189066
v 0.876954 0.107307 0.189066
v 0.808315 0.133706 0.189066
v 0.733196 0.156565 0.189066
v 0.656718 0.174326 0.189066
v 0.584092 0.185778 0.189066
v 0.520267 0.190142 -0.189066
v 0.934438 0.079166 -0.189066
v 0.584092 0.185778 -0.189066
v 0.656718 0.174326 -0.189066
v 0.733196 0.156565 -0.189066
v 0.808315 0.133706 -0.189066
v 0.876954 0.107307 -0.189066
v -0.454007 0.345493 0.189066
v -0.454007 0.345493 -0.189066
v -0.451058 0.187825 0.189066
v -0.451058 0.187825 -0.189066
v 0.000660 -0.189043 -0.189066
v 0.000660 -0.189043 0.189066
v -0.000660 0.189043 -0.189066
v -0.000660 0.189043 0.189066
v -0.967565 0.167073 0.189066
v -0.967565 0.167073 -0.189066
v -0.965473 0.055228 0.189066
v -0.965473 0.055228 -0.189066
v -0.067149 -0.114686 -0.189066
v -0.331460 0.109360 -0.189066
v -0.146782 -0.036512 -0.189066
v -0.243763 0.045478 -0.189066
v -0.331478 0.109307 0.189066
v -0.067194 -0.114659 0.189066
v -0.243770 0.045442 0.189066
v -0.146779 -0.036525 0.189066
v -0.070245 0.224191 -0.189066
v -0.335413 0.318086 -0.189066
v -0.151260 0.259429 -0.189066
v -0.248247 0.293738 -0.189066
v -0.335413 0.318086 0.189066
v -0.070390 0.224146 0.189066
v -0.248180 0.293793 0.189066
v -0.151254 0.259432 0.189066
v -0.524530 0.344175 0.189066
v -0.937176 0.190764 0.189066
v -0.588298 0.338018 0.189066
v -0.660768 0.322108 0.189066
v -0.737003 0.297529 0.189066
v -0.811807 0.265955 0.189066
v -0.880082 0.229540 0.189066
v -0.937176 0.190764 -0.189066
v -0.524530 0.344175 -0.189066
v -0.880083 0.229540 -0.189066
v -0.811807 0.265955 -0.189066
v -0.737003 0.297529 -0.189066
v -0.660768 0.322108 -0.189066
v -0.588298 0.338018 -0.189066
v -0.934968 0.072642 0.189066
v -0.521582 0.186506 0.189066
v -0.877682 0.101183 0.189066
v -0.809228 0.128061 0.189066
v -0.734271 0.151443 0.189066
v -0.657919 0.169738 0.189066
v -0.585375 0.181697 0.189066
v -0.521582 0.186506 -0.189066
v -0.934968 0.072642 -0.189066
v -0.585375 0.181697 -0.189066
v -0.657919 0.169738 -0.189066
v -0.734271 0.151443 -0.189066
v -0.809228 0.128061 -0.189066
v -0.877682 0.101183 -0.189066
vn 0.0000 0.0000 -1.0000
vn -0.4565 0.8897 0.0001
vn 0.5545 -0.8322 -0.0001
vn -0.2320 0.9727 -0.0000
vn 0.0000 -0.0000 1.0000
vn 0.6093 0.7929 0.0000
vn -0.4897 -0.8719 0.0000
vn 0.9999 -0.0117 0.0000
vn -0.0117 -0.9999 0.0000
vn 0.5943 -0.8042 -0.0001
vn 0.6509 -0.7592 -0.0001
vn 0.7055 -0.7087 -0.0000
vn -0.4058 0.9140 0.0001
vn -0.3404 0.9403 -0.0001
vn -0.2754 0.9613 -0.0001
vn 0.7435 -0.6687 -0.0000
vn 0.0892 0.9960 0.0000
vn 0.2076 0.9782 0.0000
vn 0.3002 0.9539 0.0000
vn 0.3824 0.9240 0.0000
vn 0.4644 0.8856 0.0000
vn 0.5561 0.8311 0.0000
vn -0.4397 -0.8982 0.0000
vn -0.3590 -0.9333 0.0000
vn -0.2911 -0.9567 0.0000
vn -0.2262 -0.9741 0.0000
vn -0.1558 -0.9878 0.0000
vn -0.0682 -0.9977 0.0000
vn 0.0117 0.9999 -0.0000
vn 0.4503 0.8929 0.0001
vn -0.5487 -0.8360 -0.0001
vn 0.2252 0.9743 -0.0000
vn -0.6148 0.7887 0.0000
vn 0.4958 -0.8685 0.0000
vn -0.9998 -0.0187 0.0000
vn 0.0187 -0.9998 0.0000
vn -0.5887 -0.8083 -0.0001
vn -0.6455 -0.7637 -0.0001
vn -0.7006 -0.7136 -0.0000
vn 0.3994 0.9168 0.0001
vn 0.3338 0.9426 -0.0001
vn 0.2687 0.9632 -0.0001
vn -0.7388 -0.6739 -0.0000
vn -0.0961 0.9954 0.0000
vn -0.2144 0.9767 0.0000
vn -0.3069 0.9518 0.0000
vn -0.3889 0.9213 0.0000
vn -0.4706 0.8823 0.0000
vn -0.5618 0.8272 0.0000
vn 0.4459 -0.8951 0.0000
vn 0.3655 -0.9308 0.0000
vn 0.2978 -0.9546 0.0000
vn 0.2330 -0.9725 0.0000
vn 0.1627 -0.9867 0.0000
vn 0.0752 -0.9972 0.0000
vn -0.0187 0.9998 0.0000
usemtl Material
s off
f 47//1 32//1 6//1 8//1
f 17//2 59//2 60//2 22//2
f 17//1 9//1 57//1 59//1
f 13//3 10//3 4//3 3//3
f 18//4 21//4 1//4 2//4
f 14//5 22//5 60//5 58//5
f 21//5 13//5 3//5 1//5
f 10//1 18//1 2//1 4//1
f 26//5 39//5 7//5 5//5
f 32//6 26//6 5//6 6//6
f 39//7 47//7 8//7 7//7
f 8//8 6//8 5//8 7//8
f 4//1 2//1 33//1 46//1
f 3//9 4//9 46//9 40//9
f 1//5 3//5 40//5 25//5
f 10//10 13//10 15//10 12//10
f 12//11 15//11 16//11 11//11
f 11//12 16//12 14//12 9//12
f 9//1 17//1 19//1 11//1
f 11//1 19//1 20//1 12//1
f 12//1 20//1 18//1 10//1
f 13//5 21//5 23//5 15//5
f 15//5 23//5 24//5 16//5
f 16//5 24//5 22//5 14//5
f 17//13 22//13 24//13 19//13
f 19//14 24//14 23//14 20//14
f 20//15 23//15 21//15 18//15
f 9//16 14//16 58//16 57//16
f 33//17 25//17 27//17 38//17
f 38//18 27//18 28//18 37//18
f 37//19 28//19 29//19 36//19
f 36//20 29//20 30//20 35//20
f 35//21 30//21 31//21 34//21
f 34//22 31//22 26//22 32//22
f 47//23 39//23 41//23 52//23
f 52//24 41//24 42//24 51//24
f 51//25 42//25 43//25 50//25
f 50//26 43//26 44//26 49//26
f 49//27 44//27 45//27 48//27
f 48//28 45//28 40//28 46//28
f 39//5 26//5 31//5 41//5
f 41//5 31//5 30//5 42//5
f 42//5 30//5 29//5 43//5
f 43//5 29//5 28//5 44//5
f 44//5 28//5 27//5 45//5
f 45//5 27//5 25//5 40//5
f 46//1 33//1 38//1 48//1
f 48//1 38//1 37//1 49//1
f 49//1 37//1 36//1 50//1
f 50//1 36//1 35//1 51//1
f 51//1 35//1 34//1 52//1
f 52//1 34//1 32//1 47//1
f 2//29 1//29 25//29 33//29
f 103//1 64//1 62//1 88//1
f 73//30 78//30 60//30 59//30
f 73//1 59//1 57//1 65//1
f 69//31 55//31 56//31 66//31
f 74//32 54//32 53//32 77//32
f 70//5 58//5 60//5 78//5
f 77//5 53//5 55//5 69//5
f 66//1 56//1 54//1 74//1
f 82//5 61//5 63//5 95//5
f 88//33 62//33 61//33 82//33
f 95//34 63//34 64//34 103//34
f 64//35 63//35 61//35 62//35
f 56//1 102//1 89//1 54//1
f 55//36 96//36 102//36 56//36
f 53//5 81//5 96//5 55//5
f 66//37 68//37 71//37 69//37
f 68//38 67//38 72//38 71//38
f 67//39 65//39 70//39 72//39
f 65//1 67//1 75//1 73//1
f 67//1 68//1 76//1 75//1
f 68//1 66//1 74//1 76//1
f 69//5 71//5 79//5 77//5
f 71//5 72//5 80//5 79//5
f 72//5 70//5 78//5 80//5
f 73//40 75//40 80//40 78//40
f 75//41 76//41 79//41 80//41
f 76//42 74//42 77//42 79//42
f 65//43 57//43 58//43 70//43
f 89//44 94//44 83//44 81//44
f 94//45 93//45 84//45 83//45
f 93//46 92//46 85//46 84//46
f 92//47 91//47 86//47 85//47
f 91//48 90//48 87//48 86//48
f 90//49 88//49 82//49 87//49
f 103//50 108//50 97//50 95//50
f 108//51 107//51 98//51 97//51
f 107//52 106//52 99//52 98//52
f 106//53 105//53 100//53 99//53
f 105//54 104//54 101//54 100//54
f 104//55 102//55 96//55 101//55
f 95//5 97//5 87//5 82//5
f 97//5 98//5 86//5 87//5
f 98//5 99//5 85//5 86//5
f 99//5 100//5 84//5 85//5
f 100//5 101//5 83//5 84//5
f 101//5 96//5 81//5 83//5
f 102//1 104//1 94//1 89//1
f 104//1 105//1 93//1 94//1
f 105//1 106//1 92//1 93//1
f 106//1 107//1 91//1 92//1
f 107//1 108//1 90//1 91//1
f 108//1 103//1 88//1 90//1
f 54//56 89//56 81//56 53//56
