# Blender v2.79 (sub 0) OBJ File: 'Seagull V1.1.blend'
# www.blender.org
mtllib Seagull_000013.mtl
o Cube
v 0.508977 0.257740 0.189066
v 0.508977 0.257740 -0.189066
v 0.477579 0.103202 0.189066
v 0.477579 0.103202 -0.189066
v 0.981826 -0.010568 0.189066
v 0.981826 -0.010568 -0.189066
v 0.959553 -0.120193 0.189066
v 0.959553 -0.120193 -0.189066
v 0.068126 -0.108683 -0.189066
v 0.344788 0.049836 -0.189066
v 0.139886 -0.048166 -0.189066
v 0.245283 0.009862 -0.189066
v 0.345174 0.048937 0.189066
v 0.068875 -0.108167 0.189066
v 0.245452 0.009248 0.189066
v 0.139849 -0.048391 0.189066
v 0.079550 0.214193 -0.189066
v 0.387383 0.252220 -0.189066
v 0.180849 0.234592 -0.189066
v 0.292344 0.247390 -0.189066
v 0.387383 0.252220 0.189066
v 0.082142 0.213600 0.189066
v 0.291112 0.248261 0.189066
v 0.180747 0.234641 0.189066
v 0.578101 0.243696 0.189066
v 0.956221 0.018225 0.189066
v 0.639705 0.226114 0.189066
v 0.708106 0.197367 0.189066
v 0.778642 0.159413 0.189066
v 0.846507 0.114839 0.189066
v 0.907076 0.066682 0.189066
v 0.956221 0.018225 -0.189066
v 0.578101 0.243696 -0.189066
v 0.907076 0.066682 -0.189066
v 0.846508 0.114839 -0.189066
v 0.778642 0.159413 -0.189066
v 0.708106 0.197367 -0.189066
v 0.639705 0.226114 -0.189066
v 0.932697 -0.097552 0.189066
v 0.546702 0.089157 0.189066
v 0.881515 -0.059127 0.189066
v 0.819047 -0.020319 0.189066
v 0.749550 0.016228 0.189066
v 0.677762 0.048022 0.189066
v 0.608575 0.072897 0.189066
v 0.546702 0.089157 -0.189066
v 0.932697 -0.097552 -0.189066
v 0.608575 0.072897 -0.189066
v 0.677762 0.048022 -0.189066
v 0.749550 0.016228 -0.189066
v 0.819046 -0.020319 -0.189066
v 0.881515 -0.059127 -0.189066
v -0.539281 0.186182 0.189066
v -0.539281 0.186182 -0.189066
v -0.487173 0.037345 0.189066
v -0.487173 0.037345 -0.189066
v 0.012415 -0.181863 -0.189066
v 0.012415 -0.181863 0.189066
v -0.012415 0.181863 -0.189066
v -0.012415 0.181863 0.189066
v -0.971282 -0.143894 0.189066
v -0.971282 -0.143894 -0.189066
v -0.934318 -0.249475 0.189066
v -0.934318 -0.249475 -0.189066
v -0.052724 -0.116933 -0.189066
v -0.348362 0.002520 -0.189066
v -0.132043 -0.066729 -0.189066
v -0.244348 -0.023562 -0.189066
v -0.348622 0.001576 0.189066
v -0.053537 -0.116523 0.189066
v -0.244432 -0.024193 0.189066
v -0.131976 -0.066947 0.189066
v -0.107920 0.201395 -0.189066
v -0.418065 0.197238 -0.189066
v -0.211051 0.207840 -0.189066
v -0.323250 0.205368 -0.189066
v -0.418065 0.197238 0.189066
v -0.110406 0.200456 0.189066
v -0.322149 0.206398 0.189066
v -0.210956 0.207902 0.189066
v -0.605855 0.162875 0.189066
v -0.949827 -0.111888 0.189066
v -0.664498 0.137085 0.189066
v -0.728358 0.099309 0.189066
v -0.793082 0.052122 0.189066
v -0.854261 -0.001261 0.189066
v -0.907723 -0.057202 0.189066
v -0.949827 -0.111888 -0.189066
v -0.605855 0.162875 -0.189066
v -0.907723 -0.057202 -0.189066
v -0.854261 -0.001261 -0.189066
v -0.793083 0.052122 -0.189066
v -0.728358 0.099309 -0.189066
v -0.664498 0.137085 -0.189066
v -0.910789 -0.223394 0.189066
v -0.553747 0.014037 0.189066
v -0.865302 -0.178370 0.189066
v -0.808688 -0.131433 0.189066
v -0.744803 -0.085782 0.189066
v -0.678001 -0.044527 0.189066
v -0.612835 -0.010481 0.189066
v -0.553747 0.014037 -0.189066
v -0.910789 -0.223394 -0.189066
v -0.612835 -0.010481 -0.189066
v -0.678001 -0.044527 -0.189066
v -0.744803 -0.085782 -0.189066
v -0.808688 -0.131433 -0.189066
v -0.865302 -0.178370 -0.189066
vn 0.0000 0.0000 -1.0000
vn -0.3249 0.9458 0.0019
vn 0.3761 -0.9266 -0.0013
vn -0.0453 0.9990 -0.0000
vn 0.0000 -0.0000 1.0000
vn 0.7473 0.6645 0.0000
vn -0.6446 -0.7645 0.0000
vn 0.9800 -0.1991 0.0000
vn -0.1991 -0.9800 0.0000
vn 0.3713 -0.9285 -0.0021
vn 0.4807 -0.8769 -0.0011
vn 0.6444 -0.7647 -0.0003
vn -0.2030 0.9792 0.0014
vn -0.1182 0.9930 -0.0014
vn -0.0459 0.9989 -0.0012
vn 0.7947 -0.6070 -0.0004
vn 0.2744 0.9616 0.0000
vn 0.3874 0.9219 0.0000
vn 0.4738 0.8806 0.0000
vn 0.5490 0.8358 0.0000
vn 0.6223 0.7827 0.0000
vn 0.7021 0.7121 0.0000
vn -0.6004 -0.7997 0.0000
vn -0.5277 -0.8494 0.0000
vn -0.4654 -0.8851 0.0000
vn -0.4049 -0.9143 0.0000
vn -0.3383 -0.9410 0.0000
vn -0.2542 -0.9672 0.0000
vn 0.1991 0.9800 0.0000
vn 0.1933 0.9811 0.0019
vn -0.2467 -0.9691 -0.0013
vn -0.0908 0.9959 -0.0000
vn -0.8306 0.5568 0.0000
vn 0.7425 -0.6699 -0.0000
vn -0.9438 -0.3304 0.0000
vn 0.3304 -0.9438 0.0000
vn -0.2417 -0.9704 -0.0021
vn -0.3571 -0.9341 -0.0011
vn -0.5345 -0.8451 -0.0003
vn 0.0680 0.9977 0.0014
vn -0.0178 0.9998 -0.0014
vn -0.0903 0.9959 -0.0012
vn -0.7049 -0.7093 -0.0004
vn -0.4026 0.9154 0.0000
vn -0.5091 0.8607 0.0000
vn -0.5891 0.8081 0.0000
vn -0.6575 0.7535 0.0000
vn -0.7229 0.6909 0.0000
vn -0.7924 0.6101 0.0000
vn 0.7035 -0.7107 -0.0000
vn 0.6382 -0.7698 0.0000
vn 0.5814 -0.8136 0.0000
vn 0.5254 -0.8508 0.0000
vn 0.4631 -0.8863 0.0000
vn 0.3833 -0.9236 0.0000
vn -0.3304 0.9438 0.0000
usemtl Material
s off
f 47//1 32//1 6//1 8//1
f 17//2 59//2 60//2 22//2
f 17//1 9//1 57//1 59//1
f 13//3 10//3 4//3 3//3
f 18//4 21//4 1//4 2//4
f 14//5 22//5 60//5 58//5
f 21//5 13//5 3//5 1//5
f 10//1 18//1 2//1 4//1
f 26//5 39//5 7//5 5//5
f 32//6 26//6 5//6 6//6
f 39//7 47//7 8//7 7//7
f 8//8 6//8 5//8 7//8
f 4//1 2//1 33//1 46//1
f 3//9 4//9 46//9 40//9
f 1//5 3//5 40//5 25//5
f 10//10 13//10 15//10 12//10
f 12//11 15//11 16//11 11//11
f 11//12 16//12 14//12 9//12
f 9//1 17//1 19//1 11//1
f 11//1 19//1 20//1 12//1
f 12//1 20//1 18//1 10//1
f 13//5 21//5 23//5 15//5
f 15//5 23//5 24//5 16//5
f 16//5 24//5 22//5 14//5
f 17//13 22//13 24//13 19//13
f 19//14 24//14 23//14 20//14
f 20//15 23//15 21//15 18//15
f 9//16 14//16 58//16 57//16
f 33//17 25//17 27//17 38//17
f 38//18 27//18 28//18 37//18
f 37//19 28//19 29//19 36//19
f 36//20 29//20 30//20 35//20
f 35//21 30//21 31//21 34//21
f 34//22 31//22 26//22 32//22
f 47//23 39//23 41//23 52//23
f 52//24 41//24 42//24 51//24
f 51//25 42//25 43//25 50//25
f 50//26 43//26 44//26 49//26
f 49//27 44//27 45//27 48//27
f 48//28 45//28 40//28 46//28
f 39//5 26//5 31//5 41//5
f 41//5 31//5 30//5 42//5
f 42//5 30//5 29//5 43//5
f 43//5 29//5 28//5 44//5
f 44//5 28//5 27//5 45//5
f 45//5 27//5 25//5 40//5
f 46//1 33//1 38//1 48//1
f 48//1 38//1 37//1 49//1
f 49//1 37//1 36//1 50//1
f 50//1 36//1 35//1 51//1
f 51//1 35//1 34//1 52//1
f 52//1 34//1 32//1 47//1
f 2//29 1//29 25//29 33//29
f 103//1 64//1 62//1 88//1
f 73//30 78//30 60//30 59//30
f 73//1 59//1 57//1 65//1
f 69//31 55//31 56//31 66//31
f 74//32 54//32 53//32 77//32
f 70//5 58//5 60//5 78//5
f 77//5 53//5 55//5 69//5
f 66//1 56//1 54//1 74//1
f 82//5 61//5 63//5 95//5
f 88//33 62//33 61//33 82//33
f 95//34 63//34 64//34 103//34
f 64//35 63//35 61//35 62//35
f 56//1 102//1 89//1 54//1
f 55//36 96//36 102//36 56//36
f 53//5 81//5 96//5 55//5
f 66//37 68//37 71//37 69//37
f 68//38 67//38 72//38 71//38
f 67//39 65//39 70//39 72//39
f 65//1 67//1 75//1 73//1
f 67//1 68//1 76//1 75//1
f 68//1 66//1 74//1 76//1
f 69//5 71//5 79//5 77//5
f 71//5 72//5 80//5 79//5
f 72//5 70//5 78//5 80//5
f 73//40 75//40 80//40 78//40
f 75//41 76//41 79//41 80//41
f 76//42 74//42 77//42 79//42
f 65//43 57//43 58//43 70//43
f 89//44 94//44 83//44 81//44
f 94//45 93//45 84//45 83//45
f 93//46 92//46 85//46 84//46
f 92//47 91//47 86//47 85//47
f 91//48 90//48 87//48 86//48
f 90//49 88//49 82//49 87//49
f 103//50 108//50 97//50 95//50
f 108//51 107//51 98//51 97//51
f 107//52 106//52 99//52 98//52
f 106//53 105//53 100//53 99//53
f 105//54 104//54 101//54 100//54
f 104//55 102//55 96//55 101//55
f 95//5 97//5 87//5 82//5
f 97//5 98//5 86//5 87//5
f 98//5 99//5 85//5 86//5
f 99//5 100//5 84//5 85//5
f 100//5 101//5 83//5 84//5
f 101//5 96//5 81//5 83//5
f 102//1 104//1 94//1 89//1
f 104//1 105//1 93//1 94//1
f 105//1 106//1 92//1 93//1
f 106//1 107//1 91//1 92//1
f 107//1 108//1 90//1 91//1
f 108//1 103//1 88//1 90//1
f 54//56 89//56 81//56 53//56
