# Blender v2.79 (sub 0) OBJ File: 'Seagull V1.1.blend'
# www.blender.org
mtllib Seagull_000011.mtl
o Cube
v 0.512681 0.250292 0.189066
v 0.512681 0.250292 -0.189066
v 0.479032 0.096228 0.189066
v 0.479032 0.096228 -0.189066
v 0.981568 -0.024881 0.189066
v 0.981568 -0.024881 -0.189066
v 0.957699 -0.134170 0.189066
v 0.957699 -0.134170 -0.189066
v 0.067997 -0.107902 -0.189066
v 0.345355 0.044957 -0.189066
v 0.139038 -0.049027 -0.189066
v 0.244995 0.006955 -0.189066
v 0.345775 0.043993 0.189066
v 0.068798 -0.107342 0.189066
v 0.245181 0.006297 0.189066
v 0.138999 -0.049270 0.189066
v 0.080154 0.212885 -0.189066
v 0.391019 0.246546 -0.189066
v 0.182937 0.232156 -0.189066
v 0.295461 0.243265 -0.189066
v 0.391019 0.246546 0.189066
v 0.082942 0.212265 0.189066
v 0.294132 0.244193 0.189066
v 0.182826 0.232207 0.189066
v 0.581592 0.235241 0.189066
v 0.956384 0.004282 0.189066
v 0.642933 0.216764 0.189066
v 0.710908 0.187022 0.189066
v 0.780883 0.148044 0.189066
v 0.848091 0.102485 0.189066
v 0.907952 0.053451 0.189066
v 0.956385 0.004282 -0.189066
v 0.581592 0.235241 -0.189066
v 0.907952 0.053451 -0.189066
v 0.848092 0.102485 -0.189066
v 0.780884 0.148044 -0.189066
v 0.710908 0.187022 -0.189066
v 0.642934 0.216764 -0.189066
v 0.931176 -0.111139 0.189066
v 0.547944 0.081177 0.189066
v 0.880559 -0.071972 0.189066
v 0.818663 -0.032257 0.189066
v 0.749707 0.005298 0.189066
v 0.678390 0.038135 0.189066
v 0.609573 0.064016 0.189066
v 0.547944 0.081177 -0.189066
v 0.931176 -0.111139 -0.189066
v 0.609573 0.064016 -0.189066
v 0.678390 0.038135 -0.189066
v 0.749707 0.005298 -0.189066
v 0.818663 -0.032257 -0.189066
v 0.880559 -0.071972 -0.189066
v -0.544013 0.171864 0.189066
v -0.544013 0.171864 -0.189066
v -0.487990 0.024455 0.189066
v -0.487990 0.024455 -0.189066
v 0.013413 -0.180722 -0.189066
v 0.013413 -0.180722 0.189066
v -0.013413 0.180722 -0.189066
v -0.013413 0.180722 0.189066
v -0.967140 -0.169515 0.189066
v -0.967140 -0.169516 -0.189066
v -0.927398 -0.274083 0.189066
v -0.927398 -0.274083 -0.189066
v -0.051322 -0.116758 -0.189066
v -0.348208 -0.006520 -0.189066
v -0.130276 -0.069016 -0.189066
v -0.243338 -0.029289 -0.189066
v -0.348481 -0.007535 0.189066
v -0.052198 -0.116322 0.189066
v -0.243424 -0.029967 0.189066
v -0.130203 -0.069250 0.189066
v -0.110704 0.198719 -0.189066
v -0.423132 0.186119 -0.189066
v -0.215205 0.202605 -0.189066
v -0.328136 0.196981 -0.189066
v -0.423132 0.186119 0.189066
v -0.113369 0.197695 0.189066
v -0.326959 0.198095 0.189066
v -0.215104 0.202673 0.189066
v -0.609948 0.146805 0.189066
v -0.946538 -0.136954 0.189066
v -0.667889 0.119474 0.189066
v -0.730728 0.080023 0.189066
v -0.794183 0.031142 0.189066
v -0.853929 -0.023839 0.189066
v -0.905894 -0.081174 0.189066
v -0.946538 -0.136954 -0.189066
v -0.609948 0.146805 -0.189066
v -0.905894 -0.081174 -0.189066
v -0.853929 -0.023840 -0.189066
v -0.794183 0.031142 -0.189066
v -0.730729 0.080023 -0.189066
v -0.667889 0.119474 -0.189066
v -0.904566 -0.247389 0.189066
v -0.553924 -0.000604 0.189066
v -0.860286 -0.201178 0.189066
v -0.804931 -0.152761 0.189066
v -0.742275 -0.105437 0.189066
v -0.676587 -0.062432 0.189066
v -0.612344 -0.026675 0.189066
v -0.553924 -0.000604 -0.189066
v -0.904566 -0.247389 -0.189066
v -0.612344 -0.026675 -0.189066
v -0.676587 -0.062432 -0.189066
v -0.742275 -0.105438 -0.189066
v -0.804931 -0.152761 -0.189066
v -0.860286 -0.201178 -0.189066
vn 0.0000 0.0000 -1.0000
vn -0.3180 0.9481 0.0019
vn 0.3615 -0.9324 -0.0014
vn -0.0308 0.9995 -0.0000
vn 0.0000 -0.0000 1.0000
vn 0.7569 0.6536 0.0000
vn -0.6557 -0.7551 -0.0000
vn 0.9770 -0.2134 0.0000
vn -0.2134 -0.9770 0.0000
vn 0.3525 -0.9358 -0.0023
vn 0.4654 -0.8851 -0.0011
vn 0.6378 -0.7702 -0.0003
vn -0.1900 0.9818 0.0014
vn -0.1026 0.9947 -0.0015
vn -0.0293 0.9996 -0.0013
vn 0.7992 -0.6011 -0.0004
vn 0.2884 0.9575 0.0000
vn 0.4008 0.9161 0.0000
vn 0.4866 0.8736 0.0000
vn 0.5611 0.8277 0.0000
vn 0.6337 0.7736 0.0000
vn 0.7124 0.7018 0.0000
vn -0.6120 -0.7909 -0.0000
vn -0.5400 -0.8416 0.0000
vn -0.4783 -0.8782 0.0000
vn -0.4182 -0.9083 0.0000
vn -0.3520 -0.9360 0.0000
vn -0.2683 -0.9633 0.0000
vn 0.2134 0.9770 -0.0000
vn 0.1746 0.9846 0.0019
vn -0.2199 -0.9755 -0.0014
vn -0.1171 0.9931 -0.0000
vn -0.8451 0.5347 0.0000
vn 0.7599 -0.6500 -0.0000
vn -0.9348 -0.3553 0.0000
vn 0.3553 -0.9348 0.0000
vn -0.2105 -0.9776 -0.0023
vn -0.3296 -0.9441 -0.0011
vn -0.5171 -0.8560 -0.0003
vn 0.0429 0.9991 0.0014
vn -0.0453 0.9990 -0.0015
vn -0.1186 0.9929 -0.0013
vn -0.7017 -0.7125 -0.0004
vn -0.4266 0.9044 0.0000
vn -0.5317 0.8469 0.0000
vn -0.6103 0.7922 0.0000
vn -0.6772 0.7358 0.0000
vn -0.7409 0.6716 0.0000
vn -0.8082 0.5889 0.0000
vn 0.7220 -0.6919 -0.0000
vn 0.6584 -0.7527 0.0000
vn 0.6027 -0.7980 0.0000
vn 0.5477 -0.8366 0.0000
vn 0.4863 -0.8738 0.0000
vn 0.4075 -0.9132 0.0000
vn -0.3553 0.9348 0.0000
usemtl Material
s off
f 47//1 32//1 6//1 8//1
f 17//2 59//2 60//2 22//2
f 17//1 9//1 57//1 59//1
f 13//3 10//3 4//3 3//3
f 18//4 21//4 1//4 2//4
f 14//5 22//5 60//5 58//5
f 21//5 13//5 3//5 1//5
f 10//1 18//1 2//1 4//1
f 26//5 39//5 7//5 5//5
f 32//6 26//6 5//6 6//6
f 39//7 47//7 8//7 7//7
f 8//8 6//8 5//8 7//8
f 4//1 2//1 33//1 46//1
f 3//9 4//9 46//9 40//9
f 1//5 3//5 40//5 25//5
f 10//10 13//10 15//10 12//10
f 12//11 15//11 16//11 11//11
f 11//12 16//12 14//12 9//12
f 9//1 17//1 19//1 11//1
f 11//1 19//1 20//1 12//1
f 12//1 20//1 18//1 10//1
f 13//5 21//5 23//5 15//5
f 15//5 23//5 24//5 16//5
f 16//5 24//5 22//5 14//5
f 17//13 22//13 24//13 19//13
f 19//14 24//14 23//14 20//14
f 20//15 23//15 21//15 18//15
f 9//16 14//16 58//16 57//16
f 33//17 25//17 27//17 38//17
f 38//18 27//18 28//18 37//18
f 37//19 28//19 29//19 36//19
f 36//20 29//20 30//20 35//20
f 35//21 30//21 31//21 34//21
f 34//22 31//22 26//22 32//22
f 47//23 39//23 41//23 52//23
f 52//24 41//24 42//24 51//24
f 51//25 42//25 43//25 50//25
f 50//26 43//26 44//26 49//26
f 49//27 44//27 45//27 48//27
f 48//28 45//28 40//28 46//28
f 39//5 26//5 31//5 41//5
f 41//5 31//5 30//5 42//5
f 42//5 30//5 29//5 43//5
f 43//5 29//5 28//5 44//5
f 44//5 28//5 27//5 45//5
f 45//5 27//5 25//5 40//5
f 46//1 33//1 38//1 48//1
f 48//1 38//1 37//1 49//1
f 49//1 37//1 36//1 50//1
f 50//1 36//1 35//1 51//1
f 51//1 35//1 34//1 52//1
f 52//1 34//1 32//1 47//1
f 2//29 1//29 25//29 33//29
f 103//1 64//1 62//1 88//1
f 73//30 78//30 60//30 59//30
f 73//1 59//1 57//1 65//1
f 69//31 55//31 56//31 66//31
f 74//32 54//32 53//32 77//32
f 70//5 58//5 60//5 78//5
f 77//5 53//5 55//5 69//5
f 66//1 56//1 54//1 74//1
f 82//5 61//5 63//5 95//5
f 88//33 62//33 61//33 82//33
f 95//34 63//34 64//34 103//34
f 64//35 63//35 61//35 62//35
f 56//1 102//1 89//1 54//1
f 55//36 96//36 102//36 56//36
f 53//5 81//5 96//5 55//5
f 66//37 68//37 71//37 69//37
f 68//38 67//38 72//38 71//38
f 67//39 65//39 70//39 72//39
f 65//1 67//1 75//1 73//1
f 67//1 68//1 76//1 75//1
f 68//1 66//1 74//1 76//1
f 69//5 71//5 79//5 77//5
f 71//5 72//5 80//5 79//5
f 72//5 70//5 78//5 80//5
f 73//40 75//40 80//40 78//40
f 75//41 76//41 79//41 80//41
f 76//42 74//42 77//42 79//42
f 65//43 57//43 58//43 70//43
f 89//44 94//44 83//44 81//44
f 94//45 93//45 84//45 83//45
f 93//46 92//46 85//46 84//46
f 92//47 91//47 86//47 85//47
f 91//48 90//48 87//48 86//48
f 90//49 88//49 82//49 87//49
f 103//50 108//50 97//50 95//50
f 108//51 107//51 98//51 97//51
f 107//52 106//52 99//52 98//52
f 106//53 105//53 100//53 99//53
f 105//54 104//54 101//54 100//54
f 104//55 102//55 96//55 101//55
f 95//5 97//5 87//5 82//5
f 97//5 98//5 86//5 87//5
f 98//5 99//5 85//5 86//5
f 99//5 100//5 84//5 85//5
f 100//5 101//5 83//5 84//5
f 101//5 96//5 81//5 83//5
f 102//1 104//1 94//1 89//1
f 104//1 105//1 93//1 94//1
f 105//1 106//1 92//1 93//1
f 106//1 107//1 91//1 92//1
f 107//1 108//1 90//1 91//1
f 108//1 103//1 88//1 90//1
f 54//56 89//56 81//56 53//56
