# Blender v2.79 (sub 0) OBJ File: 'Seagull V1.1.blend'
# www.blender.org
mtllib Seagull_000022.mtl
o Cube
v 0.471948 0.320550 0.189066
v 0.471948 0.320550 -0.189066
v 0.460516 0.163270 0.189066
v 0.460516 0.163270 -0.189066
v 0.975156 0.114741 0.189066
v 0.975156 0.114741 -0.189066
v 0.967046 0.003171 0.189066
v 0.967046 0.003171 -0.189066
v 0.068334 -0.113324 -0.189066
v 0.336589 0.092064 -0.189066
v 0.145483 -0.039874 -0.189066
v 0.245142 0.035238 -0.189066
v 0.336711 0.091738 0.189066
v 0.068609 -0.113152 0.189066
v 0.245192 0.035017 0.189066
v 0.145466 -0.039953 0.189066
v 0.072791 0.222545 -0.189066
v 0.352051 0.299568 -0.189066
v 0.160418 0.253270 -0.189066
v 0.262196 0.281083 -0.189066
v 0.352051 0.299568 0.189066
v 0.073704 0.222291 0.189066
v 0.261772 0.281413 0.189066
v 0.160382 0.253289 0.189066
v 0.542298 0.315437 0.189066
v 0.946087 0.140034 0.189066
v 0.605642 0.305856 0.189066
v 0.677151 0.286068 0.189066
v 0.751952 0.257420 0.189066
v 0.824947 0.221865 0.189066
v 0.891163 0.181827 0.189066
v 0.946087 0.140034 -0.189066
v 0.542299 0.315437 -0.189066
v 0.891164 0.181827 -0.189066
v 0.824948 0.221865 -0.189066
v 0.751952 0.257420 -0.189066
v 0.677151 0.286068 -0.189066
v 0.605642 0.305856 -0.189066
v 0.937522 0.022202 0.189066
v 0.530866 0.158156 0.189066
v 0.881857 0.053786 0.189066
v 0.814949 0.084309 0.189066
v 0.741359 0.111694 0.189066
v 0.666103 0.134072 0.189066
v 0.594307 0.149919 0.189066
v 0.530866 0.158156 -0.189066
v 0.937522 0.022202 -0.189066
v 0.594307 0.149919 -0.189066
v 0.666103 0.134072 -0.189066
v 0.741359 0.111694 -0.189066
v 0.814949 0.084309 -0.189066
v 0.881857 0.053786 -0.189066
v -0.485687 0.299325 0.189066
v -0.485687 0.299325 -0.189066
v -0.467298 0.142705 0.189066
v -0.467298 0.142705 -0.189066
v 0.004171 -0.188172 -0.189066
v 0.004171 -0.188172 0.189066
v -0.004171 0.188172 -0.189066
v -0.004171 0.188172 0.189066
v -0.979282 0.071421 0.189066
v -0.979282 0.071421 -0.189066
v -0.966237 -0.039680 0.189066
v -0.966237 -0.039680 -0.189066
v -0.063246 -0.116240 -0.189066
v -0.340337 0.077060 -0.189066
v -0.143574 -0.046281 -0.189066
v -0.246462 0.024341 -0.189066
v -0.340445 0.076729 0.189066
v -0.063528 -0.116081 0.189066
v -0.246503 0.024118 0.189066
v -0.143553 -0.046359 0.189066
v -0.082580 0.219101 -0.189066
v -0.364979 0.283675 -0.189066
v -0.171482 0.245914 -0.189066
v -0.274393 0.269189 -0.189066
v -0.364978 0.283675 0.189066
v -0.083481 0.218807 0.189066
v -0.273983 0.269538 0.189066
v -0.171448 0.245934 0.189066
v -0.555742 0.291099 0.189066
v -0.951362 0.097977 0.189066
v -0.618599 0.278721 0.189066
v -0.689161 0.255784 0.189066
v -0.762619 0.223850 0.189066
v -0.833968 0.185096 0.189066
v -0.898345 0.142163 0.189066
v -0.951363 0.097977 -0.189066
v -0.555742 0.291099 -0.189066
v -0.898345 0.142163 -0.189066
v -0.833968 0.185096 -0.189066
v -0.762619 0.223850 -0.189066
v -0.689161 0.255784 -0.189066
v -0.618599 0.278721 -0.189066
v -0.937585 -0.019359 0.189066
v -0.537352 0.134479 0.189066
v -0.883374 0.014660 0.189066
v -0.817884 0.048118 0.189066
v -0.745580 0.078736 0.189066
v -0.671389 0.104427 0.189066
v -0.600366 0.123440 0.189066
v -0.537352 0.134479 -0.189066
v -0.937585 -0.019359 -0.189066
v -0.600366 0.123440 -0.189066
v -0.671389 0.104427 -0.189066
v -0.745580 0.078736 -0.189066
v -0.817884 0.048118 -0.189066
v -0.883374 0.014660 -0.189066
vn 0.0000 0.0000 -1.0000
vn -0.4045 0.9145 0.0008
vn 0.4992 -0.8665 -0.0005
vn -0.1724 0.9850 -0.0000
vn -0.0000 -0.0000 1.0000
vn 0.6564 0.7544 0.0000
vn -0.5418 -0.8405 0.0000
vn 0.9974 -0.0725 0.0000
vn -0.0725 -0.9974 0.0000
vn 0.5273 -0.8497 -0.0007
vn 0.6014 -0.7990 -0.0003
vn 0.6896 -0.7242 -0.0001
vn -0.3338 0.9426 0.0007
vn -0.2654 0.9641 -0.0006
vn -0.1993 0.9799 -0.0005
vn 0.7589 -0.6512 -0.0001
vn 0.1496 0.9888 0.0000
vn 0.2667 0.9638 0.0000
vn 0.3577 0.9339 0.0000
vn 0.4379 0.8990 0.0000
vn 0.5174 0.8557 0.0000
vn 0.6056 0.7958 0.0000
vn -0.4935 -0.8698 0.0000
vn -0.4151 -0.9098 0.0000
vn -0.3488 -0.9372 0.0000
vn -0.2850 -0.9585 0.0000
vn -0.2155 -0.9765 0.0000
vn -0.1288 -0.9917 0.0000
vn 0.0725 0.9974 0.0000
vn 0.3636 0.9315 0.0008
vn -0.4604 -0.8877 -0.0005
vn 0.1286 0.9917 0.0000
vn -0.6892 0.7246 0.0000
vn 0.5785 -0.8157 -0.0000
vn -0.9932 -0.1166 0.0000
vn 0.1166 -0.9932 0.0000
vn -0.4891 -0.8722 -0.0007
vn -0.5654 -0.8248 -0.0003
vn -0.6568 -0.7540 -0.0001
vn 0.2917 0.9565 0.0007
vn 0.2225 0.9749 -0.0006
vn 0.1557 0.9878 -0.0005
vn -0.7293 -0.6842 -0.0001
vn -0.1932 0.9812 0.0000
vn -0.3091 0.9510 0.0000
vn -0.3987 0.9171 0.0000
vn -0.4773 0.8787 0.0000
vn -0.5548 0.8320 0.0000
vn -0.6402 0.7682 0.0000
vn 0.5315 -0.8470 0.0000
vn 0.4550 -0.8905 0.0000
vn 0.3899 -0.9208 0.0000
vn 0.3272 -0.9449 0.0000
vn 0.2586 -0.9660 0.0000
vn 0.1726 -0.9850 0.0000
vn -0.1166 0.9932 0.0000
usemtl Material
s off
f 47//1 32//1 6//1 8//1
f 17//2 59//2 60//2 22//2
f 17//1 9//1 57//1 59//1
f 13//3 10//3 4//3 3//3
f 18//4 21//4 1//4 2//4
f 14//5 22//5 60//5 58//5
f 21//5 13//5 3//5 1//5
f 10//1 18//1 2//1 4//1
f 26//5 39//5 7//5 5//5
f 32//6 26//6 5//6 6//6
f 39//7 47//7 8//7 7//7
f 8//8 6//8 5//8 7//8
f 4//1 2//1 33//1 46//1
f 3//9 4//9 46//9 40//9
f 1//5 3//5 40//5 25//5
f 10//10 13//10 15//10 12//10
f 12//11 15//11 16//11 11//11
f 11//12 16//12 14//12 9//12
f 9//1 17//1 19//1 11//1
f 11//1 19//1 20//1 12//1
f 12//1 20//1 18//1 10//1
f 13//5 21//5 23//5 15//5
f 15//5 23//5 24//5 16//5
f 16//5 24//5 22//5 14//5
f 17//13 22//13 24//13 19//13
f 19//14 24//14 23//14 20//14
f 20//15 23//15 21//15 18//15
f 9//16 14//16 58//16 57//16
f 33//17 25//17 27//17 38//17
f 38//18 27//18 28//18 37//18
f 37//19 28//19 29//19 36//19
f 36//20 29//20 30//20 35//20
f 35//21 30//21 31//21 34//21
f 34//22 31//22 26//22 32//22
f 47//23 39//23 41//23 52//23
f 52//24 41//24 42//24 51//24
f 51//25 42//25 43//25 50//25
f 50//26 43//26 44//26 49//26
f 49//27 44//27 45//27 48//27
f 48//28 45//28 40//28 46//28
f 39//5 26//5 31//5 41//5
f 41//5 31//5 30//5 42//5
f 42//5 30//5 29//5 43//5
f 43//5 29//5 28//5 44//5
f 44//5 28//5 27//5 45//5
f 45//5 27//5 25//5 40//5
f 46//1 33//1 38//1 48//1
f 48//1 38//1 37//1 49//1
f 49//1 37//1 36//1 50//1
f 50//1 36//1 35//1 51//1
f 51//1 35//1 34//1 52//1
f 52//1 34//1 32//1 47//1
f 2//29 1//29 25//29 33//29
f 103//1 64//1 62//1 88//1
f 73//30 78//30 60//30 59//30
f 73//1 59//1 57//1 65//1
f 69//31 55//31 56//31 66//31
f 74//32 54//32 53//32 77//32
f 70//5 58//5 60//5 78//5
f 77//5 53//5 55//5 69//5
f 66//1 56//1 54//1 74//1
f 82//5 61//5 63//5 95//5
f 88//33 62//33 61//33 82//33
f 95//34 63//34 64//34 103//34
f 64//35 63//35 61//35 62//35
f 56//1 102//1 89//1 54//1
f 55//36 96//36 102//36 56//36
f 53//5 81//5 96//5 55//5
f 66//37 68//37 71//37 69//37
f 68//38 67//38 72//38 71//38
f 67//39 65//39 70//39 72//39
f 65//1 67//1 75//1 73//1
f 67//1 68//1 76//1 75//1
f 68//1 66//1 74//1 76//1
f 69//5 71//5 79//5 77//5
f 71//5 72//5 80//5 79//5
f 72//5 70//5 78//5 80//5
f 73//40 75//40 80//40 78//40
f 75//41 76//41 79//41 80//41
f 76//42 74//42 77//42 79//42
f 65//43 57//43 58//43 70//43
f 89//44 94//44 83//44 81//44
f 94//45 93//45 84//45 83//45
f 93//46 92//46 85//46 84//46
f 92//47 91//47 86//47 85//47
f 91//48 90//48 87//48 86//48
f 90//49 88//49 82//49 87//49
f 103//50 108//50 97//50 95//50
f 108//51 107//51 98//51 97//51
f 107//52 106//52 99//52 98//52
f 106//53 105//53 100//53 99//53
f 105//54 104//54 101//54 100//54
f 104//55 102//55 96//55 101//55
f 95//5 97//5 87//5 82//5
f 97//5 98//5 86//5 87//5
f 98//5 99//5 85//5 86//5
f 99//5 100//5 84//5 85//5
f 100//5 101//5 83//5 84//5
f 101//5 96//5 81//5 83//5
f 102//1 104//1 94//1 89//1
f 104//1 105//1 93//1 94//1
f 105//1 106//1 92//1 93//1
f 106//1 107//1 91//1 92//1
f 107//1 108//1 90//1 91//1
f 108//1 103//1 88//1 90//1
f 54//56 89//56 81//56 53//56
