# Blender v2.79 (sub 0) OBJ File: 'Seagull V1.1.blend'
# www.blender.org
mtllib Seagull_000012.mtl
o Cube
v 0.511316 0.253069 0.189066
v 0.511316 0.253069 -0.189066
v 0.478503 0.098825 0.189066
v 0.478503 0.098825 -0.189066
v 0.981688 -0.019558 0.189066
v 0.981689 -0.019558 -0.189066
v 0.958413 -0.128974 0.189066
v 0.958413 -0.128974 -0.189066
v 0.068048 -0.108199 -0.189066
v 0.345153 0.046773 -0.189066
v 0.139359 -0.048709 -0.189066
v 0.245110 0.008037 -0.189066
v 0.345560 0.045834 0.189066
v 0.068830 -0.107655 0.189066
v 0.245289 0.007395 0.189066
v 0.139321 -0.048945 0.189066
v 0.079934 0.213380 -0.189066
v 0.389676 0.248663 -0.189066
v 0.182166 0.233069 -0.189066
v 0.294309 0.244806 -0.189066
v 0.389676 0.248663 0.189066
v 0.082648 0.212770 0.189066
v 0.293017 0.245713 0.189066
v 0.182059 0.233120 0.189066
v 0.580308 0.238392 0.189066
v 0.956347 0.009469 0.189066
v 0.641748 0.220247 0.189066
v 0.709883 0.190875 0.189066
v 0.780069 0.152277 0.189066
v 0.847523 0.107083 0.189066
v 0.907649 0.058374 0.189066
v 0.956347 0.009469 -0.189066
v 0.580308 0.238392 -0.189066
v 0.907649 0.058374 -0.189066
v 0.847524 0.107083 -0.189066
v 0.780069 0.152277 -0.189066
v 0.709883 0.190875 -0.189066
v 0.641749 0.220247 -0.189066
v 0.931765 -0.106087 0.189066
v 0.547496 0.084148 0.189066
v 0.880936 -0.067195 0.189066
v 0.818826 -0.027817 0.189066
v 0.749668 0.009364 0.189066
v 0.678174 0.041814 0.189066
v 0.609217 0.067321 0.189066
v 0.547496 0.084148 -0.189066
v 0.931765 -0.106087 -0.189066
v 0.609217 0.067321 -0.189066
v 0.678174 0.041814 -0.189066
v 0.749668 0.009364 -0.189066
v 0.818826 -0.027817 -0.189066
v 0.880936 -0.067195 -0.189066
v -0.542291 0.177224 0.189066
v -0.542291 0.177224 -0.189066
v -0.487724 0.029270 0.189066
v -0.487724 0.029270 -0.189066
v 0.013041 -0.181157 -0.189066
v 0.013041 -0.181157 0.189066
v -0.013041 0.181157 -0.189066
v -0.013041 0.181157 0.189066
v -0.968765 -0.159963 0.189066
v -0.968766 -0.159963 -0.189066
v -0.930058 -0.264918 0.189066
v -0.930058 -0.264918 -0.189066
v -0.051849 -0.116830 -0.189066
v -0.348294 -0.003145 -0.189066
v -0.130945 -0.068167 -0.189066
v -0.243734 -0.027153 -0.189066
v -0.348562 -0.004134 0.189066
v -0.052701 -0.116404 0.189066
v -0.243819 -0.027814 0.189066
v -0.130874 -0.068395 0.189066
v -0.109672 0.199731 -0.189066
v -0.421275 0.190286 -0.189066
v -0.213670 0.204575 -0.189066
v -0.326338 0.200128 -0.189066
v -0.421274 0.190286 0.189066
v -0.112271 0.198739 0.189066
v -0.325189 0.201210 0.189066
v -0.213571 0.204640 0.189066
v -0.608469 0.152817 0.189066
v -0.947843 -0.127606 0.189066
v -0.666678 0.126059 0.189066
v -0.729903 0.087230 0.189066
v -0.793837 0.038978 0.189066
v -0.854122 -0.015411 0.189066
v -0.906651 -0.072230 0.189066
v -0.947843 -0.127606 -0.189066
v -0.608470 0.152817 -0.189066
v -0.906651 -0.072230 -0.189066
v -0.854123 -0.015412 -0.189066
v -0.793837 0.038977 -0.189066
v -0.729903 0.087230 -0.189066
v -0.666678 0.126059 -0.189066
v -0.906963 -0.238450 0.189066
v -0.553903 0.004862 0.189066
v -0.862229 -0.192679 0.189066
v -0.806399 -0.144811 0.189066
v -0.743279 -0.098107 0.189066
v -0.677170 -0.055752 0.189066
v -0.612578 -0.020631 0.189066
v -0.553903 0.004862 -0.189066
v -0.906963 -0.238450 -0.189066
v -0.612578 -0.020631 -0.189066
v -0.677170 -0.055752 -0.189066
v -0.743279 -0.098107 -0.189066
v -0.806399 -0.144811 -0.189066
v -0.862229 -0.192679 -0.189066
vn 0.0000 0.0000 -1.0000
vn -0.3205 0.9472 0.0019
vn 0.3669 -0.9302 -0.0014
vn -0.0362 0.9993 -0.0000
vn 0.0000 -0.0000 1.0000
vn 0.7533 0.6577 0.0000
vn -0.6515 -0.7586 0.0000
vn 0.9781 -0.2081 0.0000
vn -0.2081 -0.9781 0.0000
vn 0.3595 -0.9331 -0.0022
vn 0.4711 -0.8821 -0.0011
vn 0.6403 -0.7681 -0.0003
vn -0.1948 0.9809 0.0014
vn -0.1084 0.9941 -0.0015
vn -0.0354 0.9994 -0.0013
vn 0.7975 -0.6033 -0.0004
vn 0.2832 0.9591 0.0000
vn 0.3959 0.9183 0.0000
vn 0.4819 0.8762 0.0000
vn 0.5566 0.8308 0.0000
vn 0.6295 0.7770 0.0000
vn 0.7086 0.7056 0.0000
vn -0.6077 -0.7942 0.0000
vn -0.5355 -0.8446 0.0000
vn -0.4735 -0.8808 0.0000
vn -0.4133 -0.9106 0.0000
vn -0.3469 -0.9379 0.0000
vn -0.2630 -0.9648 0.0000
vn 0.2081 0.9781 -0.0000
vn 0.1815 0.9834 0.0019
vn -0.2299 -0.9732 -0.0014
vn -0.1073 0.9942 -0.0000
vn -0.8397 0.5430 0.0000
vn 0.7535 -0.6575 0.0000
vn -0.9382 -0.3460 0.0000
vn 0.3460 -0.9382 0.0000
vn -0.2222 -0.9750 -0.0022
vn -0.3399 -0.9404 -0.0011
vn -0.5237 -0.8519 -0.0003
vn 0.0523 0.9986 0.0014
vn -0.0351 0.9994 -0.0015
vn -0.1081 0.9941 -0.0013
vn -0.7029 -0.7113 -0.0004
vn -0.4177 0.9086 -0.0000
vn -0.5233 0.8521 0.0000
vn -0.6024 0.7982 0.0000
vn -0.6699 0.7425 0.0000
vn -0.7343 0.6788 0.0000
vn -0.8024 0.5968 0.0000
vn 0.7152 -0.6990 -0.0000
vn 0.6509 -0.7592 0.0000
vn 0.5948 -0.8039 0.0000
vn 0.5395 -0.8420 -0.0000
vn 0.4777 -0.8785 -0.0000
vn 0.3985 -0.9172 0.0000
vn -0.3460 0.9382 0.0000
usemtl Material
s off
f 47//1 32//1 6//1 8//1
f 17//2 59//2 60//2 22//2
f 17//1 9//1 57//1 59//1
f 13//3 10//3 4//3 3//3
f 18//4 21//4 1//4 2//4
f 14//5 22//5 60//5 58//5
f 21//5 13//5 3//5 1//5
f 10//1 18//1 2//1 4//1
f 26//5 39//5 7//5 5//5
f 32//6 26//6 5//6 6//6
f 39//7 47//7 8//7 7//7
f 8//8 6//8 5//8 7//8
f 4//1 2//1 33//1 46//1
f 3//9 4//9 46//9 40//9
f 1//5 3//5 40//5 25//5
f 10//10 13//10 15//10 12//10
f 12//11 15//11 16//11 11//11
f 11//12 16//12 14//12 9//12
f 9//1 17//1 19//1 11//1
f 11//1 19//1 20//1 12//1
f 12//1 20//1 18//1 10//1
f 13//5 21//5 23//5 15//5
f 15//5 23//5 24//5 16//5
f 16//5 24//5 22//5 14//5
f 17//13 22//13 24//13 19//13
f 19//14 24//14 23//14 20//14
f 20//15 23//15 21//15 18//15
f 9//16 14//16 58//16 57//16
f 33//17 25//17 27//17 38//17
f 38//18 27//18 28//18 37//18
f 37//19 28//19 29//19 36//19
f 36//20 29//20 30//20 35//20
f 35//21 30//21 31//21 34//21
f 34//22 31//22 26//22 32//22
f 47//23 39//23 41//23 52//23
f 52//24 41//24 42//24 51//24
f 51//25 42//25 43//25 50//25
f 50//26 43//26 44//26 49//26
f 49//27 44//27 45//27 48//27
f 48//28 45//28 40//28 46//28
f 39//5 26//5 31//5 41//5
f 41//5 31//5 30//5 42//5
f 42//5 30//5 29//5 43//5
f 43//5 29//5 28//5 44//5
f 44//5 28//5 27//5 45//5
f 45//5 27//5 25//5 40//5
f 46//1 33//1 38//1 48//1
f 48//1 38//1 37//1 49//1
f 49//1 37//1 36//1 50//1
f 50//1 36//1 35//1 51//1
f 51//1 35//1 34//1 52//1
f 52//1 34//1 32//1 47//1
f 2//29 1//29 25//29 33//29
f 103//1 64//1 62//1 88//1
f 73//30 78//30 60//30 59//30
f 73//1 59//1 57//1 65//1
f 69//31 55//31 56//31 66//31
f 74//32 54//32 53//32 77//32
f 70//5 58//5 60//5 78//5
f 77//5 53//5 55//5 69//5
f 66//1 56//1 54//1 74//1
f 82//5 61//5 63//5 95//5
f 88//33 62//33 61//33 82//33
f 95//34 63//34 64//34 103//34
f 64//35 63//35 61//35 62//35
f 56//1 102//1 89//1 54//1
f 55//36 96//36 102//36 56//36
f 53//5 81//5 96//5 55//5
f 66//37 68//37 71//37 69//37
f 68//38 67//38 72//38 71//38
f 67//39 65//39 70//39 72//39
f 65//1 67//1 75//1 73//1
f 67//1 68//1 76//1 75//1
f 68//1 66//1 74//1 76//1
f 69//5 71//5 79//5 77//5
f 71//5 72//5 80//5 79//5
f 72//5 70//5 78//5 80//5
f 73//40 75//40 80//40 78//40
f 75//41 76//41 79//41 80//41
f 76//42 74//42 77//42 79//42
f 65//43 57//43 58//43 70//43
f 89//44 94//44 83//44 81//44
f 94//45 93//45 84//45 83//45
f 93//46 92//46 85//46 84//46
f 92//47 91//47 86//47 85//47
f 91//48 90//48 87//48 86//48
f 90//49 88//49 82//49 87//49
f 103//50 108//50 97//50 95//50
f 108//51 107//51 98//51 97//51
f 107//52 106//52 99//52 98//52
f 106//53 105//53 100//53 99//53
f 105//54 104//54 101//54 100//54
f 104//55 102//55 96//55 101//55
f 95//5 97//5 87//5 82//5
f 97//5 98//5 86//5 87//5
f 98//5 99//5 85//5 86//5
f 99//5 100//5 84//5 85//5
f 100//5 101//5 83//5 84//5
f 101//5 96//5 81//5 83//5
f 102//1 104//1 94//1 89//1
f 104//1 105//1 93//1 94//1
f 105//1 106//1 92//1 93//1
f 106//1 107//1 91//1 92//1
f 107//1 108//1 90//1 91//1
f 108//1 103//1 88//1 90//1
f 54//56 89//56 81//56 53//56
