# Blender v2.79 (sub 0) OBJ File: 'Seagull V1.1.blend'
# www.blender.org
mtllib Seagull V1.1_000004.mtl
o Cube
v 0.131109 0.092982 0.053266
v 0.131109 0.092982 -0.053266
v 0.128786 0.048614 0.053266
v 0.128786 0.048614 -0.053266
v 0.274024 0.037879 0.053266
v 0.274024 0.037879 -0.053266
v 0.272376 0.006406 0.053266
v 0.272376 0.006406 -0.053266
v 0.019266 -0.032006 -0.053266
v 0.094314 0.027790 -0.053266
v 0.041158 -0.010805 -0.053266
v 0.068933 0.011067 -0.053266
v 0.094339 0.027722 0.053266
v 0.019323 -0.031971 0.053266
v 0.068943 0.011021 0.053266
v 0.041155 -0.010822 0.053266
v 0.020085 0.062945 -0.053266
v 0.097457 0.086388 -0.053266
v 0.044164 0.072076 -0.053266
v 0.072393 0.080579 -0.053266
v 0.097457 0.086388 0.053266
v 0.020274 0.062892 0.053266
v 0.072305 0.080647 0.053266
v 0.044157 0.072080 0.053266
v 0.150954 0.091942 0.053266
v 0.265692 0.044837 0.053266
v 0.168851 0.089605 0.053266
v 0.189107 0.084439 0.053266
v 0.210340 0.076796 0.053266
v 0.231103 0.067197 0.053266
v 0.249983 0.056296 0.053266
v 0.265692 0.044837 -0.053266
v 0.150955 0.091942 -0.053266
v 0.249983 0.056296 -0.053266
v 0.231103 0.067197 -0.053266
v 0.210340 0.076796 -0.053266
v 0.189107 0.084439 -0.053266
v 0.168851 0.089605 -0.053266
v 0.263951 0.011598 0.053266
v 0.148631 0.047575 0.053266
v 0.248091 0.020177 0.053266
v 0.229071 0.028394 0.053266
v 0.208187 0.035688 0.053266
v 0.186861 0.041562 0.053266
v 0.166548 0.045617 0.053266
v 0.148631 0.047575 -0.053266
v 0.263951 0.011598 -0.053266
v 0.166548 0.045617 -0.053266
v 0.186861 0.041562 -0.053266
v 0.208187 0.035688 -0.053266
v 0.229071 0.028394 -0.053266
v 0.248091 0.020177 -0.053266
v -0.134261 0.088369 0.053266
v -0.134261 0.088369 -0.053266
v -0.130397 0.044110 0.053266
v -0.130397 0.044110 -0.053266
v 0.000923 -0.053129 -0.053266
v 0.000923 -0.053129 0.053266
v -0.000923 0.053129 -0.053266
v -0.000923 0.053129 0.053266
v -0.275175 0.028333 0.053266
v -0.275175 0.028333 -0.053266
v -0.272434 -0.003063 0.053266
v -0.272434 -0.003063 -0.053266
v -0.018142 -0.032656 -0.053266
v -0.095222 0.024496 -0.053266
v -0.040758 -0.012229 -0.053266
v -0.069276 0.008665 -0.053266
v -0.095245 0.024427 0.053266
v -0.018201 -0.032623 0.053266
v -0.069284 0.008618 0.053266
v -0.040754 -0.012245 0.053266
v -0.022260 0.062209 -0.053266
v -0.100400 0.082949 -0.053266
v -0.046642 0.070498 -0.053266
v -0.075149 0.078014 -0.053266
v -0.100400 0.082949 0.053266
v -0.022447 0.062149 0.053266
v -0.075064 0.078086 0.053266
v -0.046635 0.070502 0.053266
v -0.154058 0.086641 0.053266
v -0.267090 0.035577 0.053266
v -0.171863 0.083683 0.053266
v -0.191927 0.077816 0.053266
v -0.212881 0.069440 0.053266
v -0.233299 0.059125 0.053266
v -0.251788 0.047575 0.053266
v -0.267090 0.035577 -0.053266
v -0.154058 0.086641 -0.053266
v -0.251789 0.047575 -0.053266
v -0.233299 0.059125 -0.053266
v -0.212881 0.069440 -0.053266
v -0.191927 0.077816 -0.053266
v -0.171863 0.083683 -0.053266
v -0.264195 0.002419 0.053266
v -0.150194 0.042381 0.053266
v -0.248643 0.011544 0.053266
v -0.229920 0.020416 0.053266
v -0.209301 0.028431 0.053266
v -0.188193 0.035043 0.053266
v -0.168032 0.039801 0.053266
v -0.150194 0.042381 -0.053266
v -0.264195 0.002419 -0.053266
v -0.168032 0.039801 -0.053266
v -0.188193 0.035043 -0.053266
v -0.209301 0.028431 -0.053266
v -0.229920 0.020416 -0.053266
v -0.248643 0.011544 -0.053266
vn 0.0000 0.0000 -1.0000
vn -0.4208 0.9071 0.0006
vn 0.5178 -0.8555 -0.0003
vn -0.1923 0.9813 -0.0000
vn -0.0000 -0.0000 1.0000
vn 0.6410 0.7675 0.0000
vn -0.5247 -0.8513 0.0000
vn 0.9986 -0.0523 0.0000
vn -0.0523 -0.9986 0.0000
vn 0.5498 -0.8353 -0.0005
vn 0.6183 -0.7859 -0.0002
vn 0.6957 -0.7183 -0.0001
vn -0.3568 0.9342 0.0005
vn -0.2898 0.9571 -0.0005
vn -0.2242 0.9746 -0.0004
vn 0.7548 -0.6559 -0.0001
vn 0.1295 0.9916 0.0000
vn 0.2472 0.9690 0.0000
vn 0.3387 0.9409 0.0000
vn 0.4196 0.9077 0.0000
vn 0.5000 0.8660 0.0000
vn 0.5893 0.8079 0.0000
vn -0.4758 -0.8796 0.0000
vn -0.3966 -0.9180 0.0000
vn -0.3297 -0.9441 0.0000
vn -0.2656 -0.9641 0.0000
vn -0.1957 -0.9807 0.0000
vn -0.1087 -0.9941 0.0000
vn 0.0523 0.9986 0.0000
vn 0.3890 0.9212 0.0006
vn -0.4878 -0.8730 -0.0003
vn 0.1581 0.9874 -0.0000
vn -0.6673 0.7448 0.0000
vn 0.5539 -0.8325 0.0000
vn -0.9962 -0.0870 0.0000
vn 0.0870 -0.9962 0.0000
vn -0.5205 -0.8539 -0.0005
vn -0.5906 -0.8069 -0.0002
vn -0.6704 -0.7420 -0.0001
vn 0.3241 0.9460 0.0005
vn 0.2563 0.9666 -0.0005
vn 0.1902 0.9818 -0.0004
vn -0.7316 -0.6818 -0.0001
vn -0.1639 0.9865 0.0000
vn -0.2807 0.9598 -0.0000
vn -0.3712 0.9286 0.0000
vn -0.4509 0.8926 0.0000
vn -0.5298 0.8481 0.0000
vn -0.6171 0.7869 0.0000
vn 0.5061 -0.8625 0.0000
vn 0.4282 -0.9037 0.0000
vn 0.3623 -0.9321 0.0000
vn 0.2989 -0.9543 0.0000
vn 0.2297 -0.9733 0.0000
vn 0.1431 -0.9897 0.0000
vn -0.0870 0.9962 0.0000
usemtl Material
s off
f 47//1 32//1 6//1 8//1
f 17//2 59//2 60//2 22//2
f 17//1 9//1 57//1 59//1
f 13//3 10//3 4//3 3//3
f 18//4 21//4 1//4 2//4
f 14//5 22//5 60//5 58//5
f 21//5 13//5 3//5 1//5
f 10//1 18//1 2//1 4//1
f 26//5 39//5 7//5 5//5
f 32//6 26//6 5//6 6//6
f 39//7 47//7 8//7 7//7
f 8//8 6//8 5//8 7//8
f 4//1 2//1 33//1 46//1
f 3//9 4//9 46//9 40//9
f 1//5 3//5 40//5 25//5
f 10//10 13//10 15//10 12//10
f 12//11 15//11 16//11 11//11
f 11//12 16//12 14//12 9//12
f 9//1 17//1 19//1 11//1
f 11//1 19//1 20//1 12//1
f 12//1 20//1 18//1 10//1
f 13//5 21//5 23//5 15//5
f 15//5 23//5 24//5 16//5
f 16//5 24//5 22//5 14//5
f 17//13 22//13 24//13 19//13
f 19//14 24//14 23//14 20//14
f 20//15 23//15 21//15 18//15
f 9//16 14//16 58//16 57//16
f 33//17 25//17 27//17 38//17
f 38//18 27//18 28//18 37//18
f 37//19 28//19 29//19 36//19
f 36//20 29//20 30//20 35//20
f 35//21 30//21 31//21 34//21
f 34//22 31//22 26//22 32//22
f 47//23 39//23 41//23 52//23
f 52//24 41//24 42//24 51//24
f 51//25 42//25 43//25 50//25
f 50//26 43//26 44//26 49//26
f 49//27 44//27 45//27 48//27
f 48//28 45//28 40//28 46//28
f 39//5 26//5 31//5 41//5
f 41//5 31//5 30//5 42//5
f 42//5 30//5 29//5 43//5
f 43//5 29//5 28//5 44//5
f 44//5 28//5 27//5 45//5
f 45//5 27//5 25//5 40//5
f 46//1 33//1 38//1 48//1
f 48//1 38//1 37//1 49//1
f 49//1 37//1 36//1 50//1
f 50//1 36//1 35//1 51//1
f 51//1 35//1 34//1 52//1
f 52//1 34//1 32//1 47//1
f 2//29 1//29 25//29 33//29
f 103//1 64//1 62//1 88//1
f 73//30 78//30 60//30 59//30
f 73//1 59//1 57//1 65//1
f 69//31 55//31 56//31 66//31
f 74//32 54//32 53//32 77//32
f 70//5 58//5 60//5 78//5
f 77//5 53//5 55//5 69//5
f 66//1 56//1 54//1 74//1
f 82//5 61//5 63//5 95//5
f 88//33 62//33 61//33 82//33
f 95//34 63//34 64//34 103//34
f 64//35 63//35 61//35 62//35
f 56//1 102//1 89//1 54//1
f 55//36 96//36 102//36 56//36
f 53//5 81//5 96//5 55//5
f 66//37 68//37 71//37 69//37
f 68//38 67//38 72//38 71//38
f 67//39 65//39 70//39 72//39
f 65//1 67//1 75//1 73//1
f 67//1 68//1 76//1 75//1
f 68//1 66//1 74//1 76//1
f 69//5 71//5 79//5 77//5
f 71//5 72//5 80//5 79//5
f 72//5 70//5 78//5 80//5
f 73//40 75//40 80//40 78//40
f 75//41 76//41 79//41 80//41
f 76//42 74//42 77//42 79//42
f 65//43 57//43 58//43 70//43
f 89//44 94//44 83//44 81//44
f 94//45 93//45 84//45 83//45
f 93//46 92//46 85//46 84//46
f 92//47 91//47 86//47 85//47
f 91//48 90//48 87//48 86//48
f 90//49 88//49 82//49 87//49
f 103//50 108//50 97//50 95//50
f 108//51 107//51 98//51 97//51
f 107//52 106//52 99//52 98//52
f 106//53 105//53 100//53 99//53
f 105//54 104//54 101//54 100//54
f 104//55 102//55 96//55 101//55
f 95//5 97//5 87//5 82//5
f 97//5 98//5 86//5 87//5
f 98//5 99//5 85//5 86//5
f 99//5 100//5 84//5 85//5
f 100//5 101//5 83//5 84//5
f 101//5 96//5 81//5 83//5
f 102//1 104//1 94//1 89//1
f 104//1 105//1 93//1 94//1
f 105//1 106//1 92//1 93//1
f 106//1 107//1 91//1 92//1
f 107//1 108//1 90//1 91//1
f 108//1 103//1 88//1 90//1
f 54//56 89//56 81//56 53//56
