# Blender v2.79 (sub 0) OBJ File: 'Seagull V1.1.blend'
# www.blender.org
mtllib Seagull V1.1_000010.mtl
o Cube
v 0.144563 0.070262 0.053266
v 0.144563 0.070262 -0.053266
v 0.135007 0.026874 0.053266
v 0.135007 0.026874 -0.053266
v 0.276528 -0.007495 0.053266
v 0.276528 -0.007495 -0.053266
v 0.269750 -0.038273 0.053266
v 0.269750 -0.038273 -0.053266
v 0.019152 -0.030372 -0.053266
v 0.097316 0.012500 -0.053266
v 0.039142 -0.013842 -0.053266
v 0.069013 0.001861 -0.053266
v 0.097435 0.012227 0.053266
v 0.019380 -0.030213 0.053266
v 0.069065 0.001674 0.053266
v 0.039131 -0.013910 0.053266
v 0.022602 0.059931 -0.053266
v 0.110285 0.069267 -0.053266
v 0.051609 0.065322 -0.053266
v 0.083346 0.068395 -0.053266
v 0.110285 0.069267 0.053266
v 0.023394 0.059756 0.053266
v 0.082968 0.068658 0.053266
v 0.051578 0.065337 0.053266
v 0.163970 0.065988 0.053266
v 0.269448 0.000734 0.053266
v 0.181243 0.060752 0.053266
v 0.200379 0.052339 0.053266
v 0.220074 0.041323 0.053266
v 0.238987 0.028454 0.053266
v 0.255827 0.014610 0.053266
v 0.269448 0.000734 -0.053266
v 0.163970 0.065988 -0.053266
v 0.255827 0.014610 -0.053266
v 0.238987 0.028454 -0.053266
v 0.220074 0.041323 -0.053266
v 0.200379 0.052339 -0.053266
v 0.181243 0.060752 -0.053266
v 0.262289 -0.031772 0.053266
v 0.154414 0.022600 0.053266
v 0.248047 -0.020712 0.053266
v 0.230629 -0.009493 0.053266
v 0.211220 0.001122 0.053266
v 0.191144 0.010409 0.053266
v 0.171769 0.017734 0.053266
v 0.154414 0.022600 -0.053266
v 0.262289 -0.031772 -0.053266
v 0.171769 0.017734 -0.053266
v 0.191144 0.010409 -0.053266
v 0.211220 0.001122 -0.053266
v 0.230629 -0.009493 -0.053266
v 0.248047 -0.020712 -0.053266
v -0.153421 0.047929 0.053266
v -0.153421 0.047929 -0.053266
v -0.137505 0.006449 0.053266
v -0.137505 0.006449 -0.053266
v 0.003813 -0.050875 -0.053266
v 0.003813 -0.050875 0.053266
v -0.003813 0.050875 -0.053266
v -0.003813 0.050875 0.053266
v -0.272322 -0.048631 0.053266
v -0.272322 -0.048631 -0.053266
v -0.261031 -0.078055 0.053266
v -0.261031 -0.078055 -0.053266
v -0.014411 -0.032888 -0.053266
v -0.098092 -0.002145 -0.053266
v -0.036641 -0.019521 -0.053266
v -0.068519 -0.008447 -0.053266
v -0.098169 -0.002434 0.053266
v -0.014660 -0.032764 0.053266
v -0.068543 -0.008640 0.053266
v -0.036620 -0.019588 0.053266
v -0.031283 0.055892 -0.053266
v -0.119378 0.052054 -0.053266
v -0.060770 0.056900 -0.053266
v -0.092610 0.055207 -0.053266
v -0.119378 0.052054 0.053266
v -0.032040 0.055601 0.053266
v -0.092275 0.055524 0.053266
v -0.060741 0.056919 0.053266
v -0.171975 0.040809 0.053266
v -0.266547 -0.039438 0.053266
v -0.188274 0.033057 0.053266
v -0.205942 0.021886 0.053266
v -0.223775 0.008057 0.053266
v -0.240558 -0.007487 0.053266
v -0.255147 -0.023687 0.053266
v -0.266547 -0.039438 -0.053266
v -0.171975 0.040809 -0.053266
v -0.255147 -0.023687 -0.053266
v -0.240558 -0.007487 -0.053266
v -0.223775 0.008057 -0.053266
v -0.205942 0.021886 -0.053266
v -0.188274 0.033057 -0.053266
v -0.254622 -0.070514 0.053266
v -0.156058 -0.000670 0.053266
v -0.242189 -0.057455 0.053266
v -0.226637 -0.043764 0.053266
v -0.209028 -0.030375 0.053266
v -0.190560 -0.018200 0.053266
v -0.172493 -0.008068 0.053266
v -0.156058 -0.000670 -0.053266
v -0.254622 -0.070514 -0.053266
v -0.172493 -0.008068 -0.053266
v -0.190560 -0.018200 -0.053266
v -0.209028 -0.030375 -0.053266
v -0.226637 -0.043764 -0.053266
v -0.242189 -0.057455 -0.053266
vn 0.0000 0.0000 -1.0000
vn -0.3172 0.9483 0.0020
vn 0.3598 -0.9330 -0.0014
vn -0.0290 0.9996 -0.0000
vn 0.0000 -0.0000 1.0000
vn 0.7580 0.6522 0.0000
vn -0.6570 -0.7539 0.0000
vn 0.9766 -0.2151 0.0000
vn -0.2151 -0.9766 0.0000
vn 0.3502 -0.9367 -0.0023
vn 0.4635 -0.8861 -0.0012
vn 0.6369 -0.7709 -0.0003
vn -0.1884 0.9821 0.0014
vn -0.1008 0.9949 -0.0015
vn -0.0273 0.9996 -0.0013
vn 0.7997 -0.6004 -0.0004
vn 0.2901 0.9570 -0.0000
vn 0.4025 0.9154 0.0000
vn 0.4882 0.8728 0.0000
vn 0.5626 0.8268 0.0000
vn 0.6350 0.7725 0.0000
vn 0.7136 0.7005 0.0000
vn -0.6134 -0.7898 0.0000
vn -0.5415 -0.8407 0.0000
vn -0.4798 -0.8774 0.0000
vn -0.4198 -0.9076 0.0000
vn -0.3537 -0.9354 0.0000
vn -0.2699 -0.9629 0.0000
vn 0.2151 0.9766 -0.0000
vn 0.1723 0.9850 0.0020
vn -0.2167 -0.9762 -0.0014
vn -0.1203 0.9927 -0.0000
vn -0.8468 0.5320 0.0000
vn 0.7620 -0.6476 0.0000
vn -0.9336 -0.3583 0.0000
vn 0.3583 -0.9336 0.0000
vn -0.2067 -0.9784 -0.0023
vn -0.3263 -0.9453 -0.0012
vn -0.5149 -0.8573 -0.0003
vn 0.0399 0.9992 0.0014
vn -0.0487 0.9988 -0.0015
vn -0.1220 0.9925 -0.0013
vn -0.7013 -0.7129 -0.0004
vn -0.4295 0.9031 -0.0000
vn -0.5344 0.8452 0.0000
vn -0.6128 0.7902 0.0000
vn -0.6795 0.7337 0.0000
vn -0.7431 0.6692 0.0000
vn -0.8101 0.5863 0.0000
vn 0.7242 -0.6896 0.0000
vn 0.6608 -0.7506 0.0000
vn 0.6053 -0.7960 0.0000
vn 0.5504 -0.8349 0.0000
vn 0.4891 -0.8722 0.0000
vn 0.4105 -0.9119 0.0000
vn -0.3583 0.9336 -0.0000
usemtl Material
s off
f 47//1 32//1 6//1 8//1
f 17//2 59//2 60//2 22//2
f 17//1 9//1 57//1 59//1
f 13//3 10//3 4//3 3//3
f 18//4 21//4 1//4 2//4
f 14//5 22//5 60//5 58//5
f 21//5 13//5 3//5 1//5
f 10//1 18//1 2//1 4//1
f 26//5 39//5 7//5 5//5
f 32//6 26//6 5//6 6//6
f 39//7 47//7 8//7 7//7
f 8//8 6//8 5//8 7//8
f 4//1 2//1 33//1 46//1
f 3//9 4//9 46//9 40//9
f 1//5 3//5 40//5 25//5
f 10//10 13//10 15//10 12//10
f 12//11 15//11 16//11 11//11
f 11//12 16//12 14//12 9//12
f 9//1 17//1 19//1 11//1
f 11//1 19//1 20//1 12//1
f 12//1 20//1 18//1 10//1
f 13//5 21//5 23//5 15//5
f 15//5 23//5 24//5 16//5
f 16//5 24//5 22//5 14//5
f 17//13 22//13 24//13 19//13
f 19//14 24//14 23//14 20//14
f 20//15 23//15 21//15 18//15
f 9//16 14//16 58//16 57//16
f 33//17 25//17 27//17 38//17
f 38//18 27//18 28//18 37//18
f 37//19 28//19 29//19 36//19
f 36//20 29//20 30//20 35//20
f 35//21 30//21 31//21 34//21
f 34//22 31//22 26//22 32//22
f 47//23 39//23 41//23 52//23
f 52//24 41//24 42//24 51//24
f 51//25 42//25 43//25 50//25
f 50//26 43//26 44//26 49//26
f 49//27 44//27 45//27 48//27
f 48//28 45//28 40//28 46//28
f 39//5 26//5 31//5 41//5
f 41//5 31//5 30//5 42//5
f 42//5 30//5 29//5 43//5
f 43//5 29//5 28//5 44//5
f 44//5 28//5 27//5 45//5
f 45//5 27//5 25//5 40//5
f 46//1 33//1 38//1 48//1
f 48//1 38//1 37//1 49//1
f 49//1 37//1 36//1 50//1
f 50//1 36//1 35//1 51//1
f 51//1 35//1 34//1 52//1
f 52//1 34//1 32//1 47//1
f 2//29 1//29 25//29 33//29
f 103//1 64//1 62//1 88//1
f 73//30 78//30 60//30 59//30
f 73//1 59//1 57//1 65//1
f 69//31 55//31 56//31 66//31
f 74//32 54//32 53//32 77//32
f 70//5 58//5 60//5 78//5
f 77//5 53//5 55//5 69//5
f 66//1 56//1 54//1 74//1
f 82//5 61//5 63//5 95//5
f 88//33 62//33 61//33 82//33
f 95//34 63//34 64//34 103//34
f 64//35 63//35 61//35 62//35
f 56//1 102//1 89//1 54//1
f 55//36 96//36 102//36 56//36
f 53//5 81//5 96//5 55//5
f 66//37 68//37 71//37 69//37
f 68//38 67//38 72//38 71//38
f 67//39 65//39 70//39 72//39
f 65//1 67//1 75//1 73//1
f 67//1 68//1 76//1 75//1
f 68//1 66//1 74//1 76//1
f 69//5 71//5 79//5 77//5
f 71//5 72//5 80//5 79//5
f 72//5 70//5 78//5 80//5
f 73//40 75//40 80//40 78//40
f 75//41 76//41 79//41 80//41
f 76//42 74//42 77//42 79//42
f 65//43 57//43 58//43 70//43
f 89//44 94//44 83//44 81//44
f 94//45 93//45 84//45 83//45
f 93//46 92//46 85//46 84//46
f 92//47 91//47 86//47 85//47
f 91//48 90//48 87//48 86//48
f 90//49 88//49 82//49 87//49
f 103//50 108//50 97//50 95//50
f 108//51 107//51 98//51 97//51
f 107//52 106//52 99//52 98//52
f 106//53 105//53 100//53 99//53
f 105//54 104//54 101//54 100//54
f 104//55 102//55 96//55 101//55
f 95//5 97//5 87//5 82//5
f 97//5 98//5 86//5 87//5
f 98//5 99//5 85//5 86//5
f 99//5 100//5 84//5 85//5
f 100//5 101//5 83//5 84//5
f 101//5 96//5 81//5 83//5
f 102//1 104//1 94//1 89//1
f 104//1 105//1 93//1 94//1
f 105//1 106//1 92//1 93//1
f 106//1 107//1 91//1 92//1
f 107//1 108//1 90//1 91//1
f 108//1 103//1 88//1 90//1
f 54//56 89//56 81//56 53//56
