# Blender v2.79 (sub 0) OBJ File: 'Seagull V1.1.blend'
# www.blender.org
mtllib Seagull V1.1_000014.mtl
o Cube
v 0.142470 0.074414 0.053266
v 0.142471 0.074414 -0.053266
v 0.134173 0.030767 0.053266
v 0.134173 0.030767 -0.053266
v 0.276629 0.000506 0.053266
v 0.276629 0.000506 -0.053266
v 0.270744 -0.030456 0.053266
v 0.270744 -0.030456 -0.053266
v 0.019219 -0.030798 -0.053266
v 0.096984 0.015225 -0.053266
v 0.039607 -0.013357 -0.053266
v 0.069160 0.003485 -0.053266
v 0.097084 0.014988 0.053266
v 0.019417 -0.030663 0.053266
v 0.069204 0.003323 0.053266
v 0.039597 -0.013416 0.053266
v 0.022258 0.060646 -0.053266
v 0.108236 0.072428 -0.053266
v 0.050432 0.066671 -0.053266
v 0.081589 0.070689 -0.053266
v 0.108236 0.072428 0.053266
v 0.022940 0.060487 0.053266
v 0.081266 0.070920 0.053266
v 0.050405 0.066684 0.053266
v 0.161993 0.070703 0.053266
v 0.269314 0.008526 0.053266
v 0.179410 0.065968 0.053266
v 0.198782 0.058112 0.053266
v 0.218787 0.047671 0.053266
v 0.238064 0.035354 0.053266
v 0.255297 0.022003 0.053266
v 0.269314 0.008526 -0.053266
v 0.161993 0.070703 -0.053266
v 0.255297 0.022003 -0.053266
v 0.238064 0.035354 -0.053266
v 0.218787 0.047671 -0.053266
v 0.198782 0.058112 -0.053266
v 0.179410 0.065968 -0.053266
v 0.263098 -0.024173 0.053266
v 0.153696 0.027056 0.053266
v 0.248543 -0.013530 0.053266
v 0.230807 -0.002819 0.053266
v 0.211100 0.007230 0.053266
v 0.190763 0.015932 0.053266
v 0.171184 0.022695 0.053266
v 0.153696 0.027056 -0.053266
v 0.263098 -0.024173 -0.053266
v 0.171184 0.022695 -0.053266
v 0.190763 0.015932 -0.053266
v 0.211100 0.007230 -0.053266
v 0.230807 -0.002819 -0.053266
v 0.248543 -0.013530 -0.053266
v -0.150709 0.055874 0.053266
v -0.150709 0.055874 -0.053266
v -0.136980 0.013621 0.053266
v -0.136980 0.013621 -0.053266
v 0.003256 -0.051494 -0.053266
v 0.003256 -0.051494 0.053266
v -0.003256 0.051494 -0.053266
v -0.003256 0.051494 0.053266
v -0.274490 -0.034345 0.053266
v -0.274490 -0.034345 -0.053266
v -0.264751 -0.064318 0.053266
v -0.264751 -0.064318 -0.053266
v -0.015186 -0.032974 -0.053266
v -0.098129 0.002887 -0.053266
v -0.037609 -0.018240 -0.053266
v -0.069048 -0.005255 -0.053266
v -0.098199 0.002639 0.053266
v -0.015400 -0.032865 0.053266
v -0.069071 -0.005421 0.053266
v -0.037592 -0.018297 0.053266
v -0.029720 0.057360 -0.053266
v -0.116497 0.058216 -0.053266
v -0.058429 0.059787 -0.053266
v -0.089844 0.059848 -0.053266
v -0.116497 0.058217 0.053266
v -0.030377 0.057115 0.053266
v -0.089552 0.060119 0.053266
v -0.058404 0.059803 0.053266
v -0.169609 0.049733 0.053266
v -0.268243 -0.025466 0.053266
v -0.186291 0.042843 0.053266
v -0.204518 0.032609 0.053266
v -0.223049 0.019731 0.053266
v -0.240621 0.005084 0.053266
v -0.256035 -0.010332 0.053266
v -0.268243 -0.025467 -0.053266
v -0.169609 0.049733 -0.053266
v -0.256035 -0.010332 -0.053266
v -0.240621 0.005084 -0.053266
v -0.223049 0.019731 -0.053266
v -0.204518 0.032609 -0.053266
v -0.186291 0.042843 -0.053266
v -0.257957 -0.057122 0.053266
v -0.155880 0.007480 0.053266
v -0.244859 -0.044730 0.053266
v -0.228613 -0.031870 0.053266
v -0.210329 -0.019419 0.053266
v -0.191251 -0.008224 0.053266
v -0.172679 0.000950 0.053266
v -0.155880 0.007480 -0.053266
v -0.257957 -0.057122 -0.053266
v -0.172679 0.000950 -0.053266
v -0.191251 -0.008224 -0.053266
v -0.210329 -0.019419 -0.053266
v -0.228613 -0.031870 -0.053266
v -0.244859 -0.044730 -0.053266
vn 0.0000 0.0000 -1.0000
vn -0.3311 0.9436 0.0018
vn 0.3885 -0.9214 -0.0012
vn -0.0579 0.9983 -0.0000
vn 0.0000 -0.0000 1.0000
vn 0.7388 0.6739 0.0000
vn -0.6349 -0.7726 -0.0000
vn 0.9824 -0.1868 0.0000
vn -0.1868 -0.9824 0.0000
vn 0.3874 -0.9219 -0.0020
vn 0.4936 -0.8697 -0.0010
vn 0.6499 -0.7600 -0.0003
vn -0.2145 0.9767 0.0013
vn -0.1319 0.9913 -0.0014
vn -0.0604 0.9982 -0.0012
vn 0.7910 -0.6119 -0.0003
vn 0.2623 0.9650 -0.0000
vn 0.3758 0.9267 0.0000
vn 0.4627 0.8865 0.0000
vn 0.5384 0.8427 0.0000
vn 0.6124 0.7905 0.0000
vn 0.6931 0.7209 0.0000
vn -0.5903 -0.8072 0.0000
vn -0.5170 -0.8560 0.0000
vn -0.4543 -0.8909 -0.0000
vn -0.3934 -0.9194 -0.0000
vn -0.3265 -0.9452 0.0000
vn -0.2420 -0.9703 0.0000
vn 0.1868 0.9824 -0.0000
vn 0.2096 0.9778 0.0018
vn -0.2694 -0.9630 -0.0012
vn -0.0683 0.9977 -0.0000
vn -0.8178 0.5754 0.0000
vn 0.7272 -0.6865 0.0000
vn -0.9511 -0.3090 0.0000
vn 0.3090 -0.9511 -0.0000
vn -0.2681 -0.9634 -0.0020
vn -0.3802 -0.9249 -0.0010
vn -0.5490 -0.8358 -0.0003
vn 0.0898 0.9960 0.0013
vn 0.0060 1.0000 -0.0014
vn -0.0658 0.9978 -0.0012
vn -0.7076 -0.7066 -0.0003
vn -0.3818 0.9243 -0.0000
vn -0.4896 0.8720 0.0000
vn -0.5707 0.8212 0.0000
vn -0.6403 0.7681 0.0000
vn -0.7071 0.7071 0.0000
vn -0.7784 0.6278 0.0000
vn 0.6872 -0.7264 0.0000
vn 0.6207 -0.7841 0.0000
vn 0.5629 -0.8266 0.0000
vn 0.5061 -0.8625 0.0000
vn 0.4429 -0.8966 0.0000
vn 0.3623 -0.9321 0.0000
vn -0.3090 0.9511 0.0000
usemtl Material
s off
f 47//1 32//1 6//1 8//1
f 17//2 59//2 60//2 22//2
f 17//1 9//1 57//1 59//1
f 13//3 10//3 4//3 3//3
f 18//4 21//4 1//4 2//4
f 14//5 22//5 60//5 58//5
f 21//5 13//5 3//5 1//5
f 10//1 18//1 2//1 4//1
f 26//5 39//5 7//5 5//5
f 32//6 26//6 5//6 6//6
f 39//7 47//7 8//7 7//7
f 8//8 6//8 5//8 7//8
f 4//1 2//1 33//1 46//1
f 3//9 4//9 46//9 40//9
f 1//5 3//5 40//5 25//5
f 10//10 13//10 15//10 12//10
f 12//11 15//11 16//11 11//11
f 11//12 16//12 14//12 9//12
f 9//1 17//1 19//1 11//1
f 11//1 19//1 20//1 12//1
f 12//1 20//1 18//1 10//1
f 13//5 21//5 23//5 15//5
f 15//5 23//5 24//5 16//5
f 16//5 24//5 22//5 14//5
f 17//13 22//13 24//13 19//13
f 19//14 24//14 23//14 20//14
f 20//15 23//15 21//15 18//15
f 9//16 14//16 58//16 57//16
f 33//17 25//17 27//17 38//17
f 38//18 27//18 28//18 37//18
f 37//19 28//19 29//19 36//19
f 36//20 29//20 30//20 35//20
f 35//21 30//21 31//21 34//21
f 34//22 31//22 26//22 32//22
f 47//23 39//23 41//23 52//23
f 52//24 41//24 42//24 51//24
f 51//25 42//25 43//25 50//25
f 50//26 43//26 44//26 49//26
f 49//27 44//27 45//27 48//27
f 48//28 45//28 40//28 46//28
f 39//5 26//5 31//5 41//5
f 41//5 31//5 30//5 42//5
f 42//5 30//5 29//5 43//5
f 43//5 29//5 28//5 44//5
f 44//5 28//5 27//5 45//5
f 45//5 27//5 25//5 40//5
f 46//1 33//1 38//1 48//1
f 48//1 38//1 37//1 49//1
f 49//1 37//1 36//1 50//1
f 50//1 36//1 35//1 51//1
f 51//1 35//1 34//1 52//1
f 52//1 34//1 32//1 47//1
f 2//29 1//29 25//29 33//29
f 103//1 64//1 62//1 88//1
f 73//30 78//30 60//30 59//30
f 73//1 59//1 57//1 65//1
f 69//31 55//31 56//31 66//31
f 74//32 54//32 53//32 77//32
f 70//5 58//5 60//5 78//5
f 77//5 53//5 55//5 69//5
f 66//1 56//1 54//1 74//1
f 82//5 61//5 63//5 95//5
f 88//33 62//33 61//33 82//33
f 95//34 63//34 64//34 103//34
f 64//35 63//35 61//35 62//35
f 56//1 102//1 89//1 54//1
f 55//36 96//36 102//36 56//36
f 53//5 81//5 96//5 55//5
f 66//37 68//37 71//37 69//37
f 68//38 67//38 72//38 71//38
f 67//39 65//39 70//39 72//39
f 65//1 67//1 75//1 73//1
f 67//1 68//1 76//1 75//1
f 68//1 66//1 74//1 76//1
f 69//5 71//5 79//5 77//5
f 71//5 72//5 80//5 79//5
f 72//5 70//5 78//5 80//5
f 73//40 75//40 80//40 78//40
f 75//41 76//41 79//41 80//41
f 76//42 74//42 77//42 79//42
f 65//43 57//43 58//43 70//43
f 89//44 94//44 83//44 81//44
f 94//45 93//45 84//45 83//45
f 93//46 92//46 85//46 84//46
f 92//47 91//47 86//47 85//47
f 91//48 90//48 87//48 86//48
f 90//49 88//49 82//49 87//49
f 103//50 108//50 97//50 95//50
f 108//51 107//51 98//51 97//51
f 107//52 106//52 99//52 98//52
f 106//53 105//53 100//53 99//53
f 105//54 104//54 101//54 100//54
f 104//55 102//55 96//55 101//55
f 95//5 97//5 87//5 82//5
f 97//5 98//5 86//5 87//5
f 98//5 99//5 85//5 86//5
f 99//5 100//5 84//5 85//5
f 100//5 101//5 83//5 84//5
f 101//5 96//5 81//5 83//5
f 102//1 104//1 94//1 89//1
f 104//1 105//1 93//1 94//1
f 105//1 106//1 92//1 93//1
f 106//1 107//1 91//1 92//1
f 107//1 108//1 90//1 91//1
f 108//1 103//1 88//1 90//1
f 54//56 89//56 81//56 53//56
