# Blender v2.79 (sub 0) OBJ File: 'Seagull V1.1.blend'
# www.blender.org
mtllib Seagull V1.1_000015.mtl
o Cube
v 0.141318 0.076580 0.053266
v 0.141318 0.076580 -0.053266
v 0.133688 0.032812 0.053266
v 0.133688 0.032812 -0.053266
v 0.276589 0.004728 0.053266
v 0.276590 0.004728 -0.053266
v 0.271177 -0.026320 0.053266
v 0.271177 -0.026320 -0.053266
v 0.019243 -0.031000 -0.053266
v 0.096774 0.016658 -0.053266
v 0.039833 -0.013093 -0.053266
v 0.069210 0.004341 -0.053266
v 0.096865 0.016440 0.053266
v 0.019426 -0.030877 0.053266
v 0.069249 0.004192 0.053266
v 0.039823 -0.013148 0.053266
v 0.022062 0.060990 -0.053266
v 0.107118 0.074071 -0.053266
v 0.049789 0.067354 -0.053266
v 0.080633 0.071874 -0.053266
v 0.107118 0.074071 0.053266
v 0.022687 0.060840 0.053266
v 0.080337 0.072088 0.053266
v 0.049764 0.067366 0.053266
v 0.160895 0.073167 0.053266
v 0.269152 0.012636 0.053266
v 0.178382 0.068699 0.053266
v 0.197871 0.061140 0.053266
v 0.218034 0.051004 0.053266
v 0.237496 0.038984 0.053266
v 0.254932 0.025897 0.053266
v 0.269152 0.012636 -0.053266
v 0.160895 0.073167 -0.053266
v 0.254932 0.025897 -0.053266
v 0.237496 0.038984 -0.053266
v 0.218034 0.051004 -0.053266
v 0.197871 0.061140 -0.053266
v 0.178383 0.068699 -0.053266
v 0.263436 -0.020154 0.053266
v 0.153265 0.029399 0.053266
v 0.248720 -0.009735 0.053266
v 0.230823 0.000705 0.053266
v 0.210965 0.010452 0.053266
v 0.190498 0.018842 0.053266
v 0.170818 0.025305 0.053266
v 0.153265 0.029399 -0.053266
v 0.263436 -0.020154 -0.053266
v 0.170818 0.025305 -0.053266
v 0.190498 0.018842 -0.053266
v 0.210965 0.010452 -0.053266
v 0.230823 0.000705 -0.053266
v 0.248720 -0.009735 -0.053266
v -0.149138 0.059944 0.053266
v -0.149138 0.059944 -0.053266
v -0.136560 0.017333 0.053266
v -0.136560 0.017333 -0.053266
v 0.002966 -0.051781 -0.053266
v 0.002966 -0.051781 0.053266
v -0.002966 0.051781 -0.053266
v -0.002966 0.051781 0.053266
v -0.275321 -0.026883 0.053266
v -0.275321 -0.026884 -0.053266
v -0.266398 -0.057110 0.053266
v -0.266398 -0.057110 -0.053266
v -0.015578 -0.032994 -0.053266
v -0.098043 0.005500 -0.053266
v -0.038078 -0.017556 -0.053266
v -0.069253 -0.003590 -0.053266
v -0.098109 0.005272 0.053266
v -0.015773 -0.032893 0.053266
v -0.069275 -0.003742 0.053266
v -0.038062 -0.017609 0.053266
v -0.028881 0.058072 -0.053266
v -0.114874 0.061356 -0.053266
v -0.057153 0.061229 -0.053266
v -0.088312 0.062198 -0.053266
v -0.114874 0.061356 0.053266
v -0.029485 0.057852 0.053266
v -0.088043 0.062444 0.053266
v -0.057130 0.061244 0.053266
v -0.168197 0.054318 0.053266
v -0.268835 -0.018178 0.053266
v -0.185060 0.047882 0.053266
v -0.203558 0.038147 0.053266
v -0.222432 0.025776 0.053266
v -0.240394 0.011612 0.053266
v -0.256221 -0.003380 0.053266
v -0.268835 -0.018178 -0.053266
v -0.168197 0.054318 -0.053266
v -0.256222 -0.003380 -0.053266
v -0.240394 0.011612 -0.053266
v -0.222432 0.025776 -0.053266
v -0.203558 0.038147 -0.053266
v -0.185060 0.047882 -0.053266
v -0.259412 -0.050101 0.053266
v -0.155620 0.011707 0.053266
v -0.245982 -0.038069 0.053266
v -0.229394 -0.025655 0.053266
v -0.210778 -0.013704 0.053266
v -0.191403 -0.003032 0.053266
v -0.172590 0.005636 0.053266
v -0.155620 0.011707 -0.053266
v -0.259412 -0.050101 -0.053266
v -0.172590 0.005636 -0.053266
v -0.191403 -0.003032 -0.053266
v -0.210778 -0.013704 -0.053266
v -0.229394 -0.025655 -0.053266
v -0.245982 -0.038069 -0.053266
vn 0.0000 0.0000 -1.0000
vn -0.3391 0.9407 0.0017
vn 0.4036 -0.9149 -0.0011
vn -0.0732 0.9973 -0.0000
vn 0.0000 -0.0000 1.0000
vn 0.7285 0.6851 0.0000
vn -0.6230 -0.7822 -0.0000
vn 0.9851 -0.1717 0.0000
vn -0.1717 -0.9851 0.0000
vn 0.4067 -0.9136 -0.0018
vn 0.5090 -0.8608 -0.0009
vn 0.6561 -0.7547 -0.0003
vn -0.2290 0.9734 0.0013
vn -0.1488 0.9889 -0.0013
vn -0.0782 0.9969 -0.0011
vn 0.7865 -0.6176 -0.0003
vn 0.2475 0.9689 -0.0000
vn 0.3616 0.9323 0.0000
vn 0.4491 0.8935 0.0000
vn 0.5255 0.8508 0.0000
vn 0.6003 0.7998 0.0000
vn 0.6820 0.7313 0.0000
vn -0.5779 -0.8161 -0.0000
vn -0.5038 -0.8638 0.0000
vn -0.4406 -0.8977 0.0000
vn -0.3793 -0.9253 0.0000
vn -0.3120 -0.9501 0.0000
vn -0.2271 -0.9739 0.0000
vn 0.1717 0.9851 -0.0000
vn 0.2295 0.9733 0.0017
vn -0.2965 -0.9550 -0.0011
vn -0.0412 0.9992 -0.0000
vn -0.8019 0.5974 0.0000
vn 0.7083 -0.7059 -0.0000
vn -0.9591 -0.2831 0.0000
vn 0.2831 -0.9591 0.0000
vn -0.2997 -0.9540 -0.0018
vn -0.4074 -0.9132 -0.0009
vn -0.5657 -0.8246 -0.0003
vn 0.1163 0.9932 0.0013
vn 0.0349 0.9994 -0.0013
vn -0.0361 0.9993 -0.0011
vn -0.7108 -0.7034 -0.0003
vn -0.3566 0.9343 0.0000
vn -0.4657 0.8849 0.0000
vn -0.5482 0.8363 0.0000
vn -0.6192 0.7852 0.0000
vn -0.6877 0.7260 0.0000
vn -0.7610 0.6487 0.0000
vn 0.6673 -0.7448 -0.0000
vn 0.5992 -0.8006 0.0000
vn 0.5402 -0.8415 0.0000
vn 0.4825 -0.8759 0.0000
vn 0.4184 -0.9083 0.0000
vn 0.3369 -0.9416 0.0000
vn -0.2831 0.9591 -0.0000
usemtl Material
s off
f 47//1 32//1 6//1 8//1
f 17//2 59//2 60//2 22//2
f 17//1 9//1 57//1 59//1
f 13//3 10//3 4//3 3//3
f 18//4 21//4 1//4 2//4
f 14//5 22//5 60//5 58//5
f 21//5 13//5 3//5 1//5
f 10//1 18//1 2//1 4//1
f 26//5 39//5 7//5 5//5
f 32//6 26//6 5//6 6//6
f 39//7 47//7 8//7 7//7
f 8//8 6//8 5//8 7//8
f 4//1 2//1 33//1 46//1
f 3//9 4//9 46//9 40//9
f 1//5 3//5 40//5 25//5
f 10//10 13//10 15//10 12//10
f 12//11 15//11 16//11 11//11
f 11//12 16//12 14//12 9//12
f 9//1 17//1 19//1 11//1
f 11//1 19//1 20//1 12//1
f 12//1 20//1 18//1 10//1
f 13//5 21//5 23//5 15//5
f 15//5 23//5 24//5 16//5
f 16//5 24//5 22//5 14//5
f 17//13 22//13 24//13 19//13
f 19//14 24//14 23//14 20//14
f 20//15 23//15 21//15 18//15
f 9//16 14//16 58//16 57//16
f 33//17 25//17 27//17 38//17
f 38//18 27//18 28//18 37//18
f 37//19 28//19 29//19 36//19
f 36//20 29//20 30//20 35//20
f 35//21 30//21 31//21 34//21
f 34//22 31//22 26//22 32//22
f 47//23 39//23 41//23 52//23
f 52//24 41//24 42//24 51//24
f 51//25 42//25 43//25 50//25
f 50//26 43//26 44//26 49//26
f 49//27 44//27 45//27 48//27
f 48//28 45//28 40//28 46//28
f 39//5 26//5 31//5 41//5
f 41//5 31//5 30//5 42//5
f 42//5 30//5 29//5 43//5
f 43//5 29//5 28//5 44//5
f 44//5 28//5 27//5 45//5
f 45//5 27//5 25//5 40//5
f 46//1 33//1 38//1 48//1
f 48//1 38//1 37//1 49//1
f 49//1 37//1 36//1 50//1
f 50//1 36//1 35//1 51//1
f 51//1 35//1 34//1 52//1
f 52//1 34//1 32//1 47//1
f 2//29 1//29 25//29 33//29
f 103//1 64//1 62//1 88//1
f 73//30 78//30 60//30 59//30
f 73//1 59//1 57//1 65//1
f 69//31 55//31 56//31 66//31
f 74//32 54//32 53//32 77//32
f 70//5 58//5 60//5 78//5
f 77//5 53//5 55//5 69//5
f 66//1 56//1 54//1 74//1
f 82//5 61//5 63//5 95//5
f 88//33 62//33 61//33 82//33
f 95//34 63//34 64//34 103//34
f 64//35 63//35 61//35 62//35
f 56//1 102//1 89//1 54//1
f 55//36 96//36 102//36 56//36
f 53//5 81//5 96//5 55//5
f 66//37 68//37 71//37 69//37
f 68//38 67//38 72//38 71//38
f 67//39 65//39 70//39 72//39
f 65//1 67//1 75//1 73//1
f 67//1 68//1 76//1 75//1
f 68//1 66//1 74//1 76//1
f 69//5 71//5 79//5 77//5
f 71//5 72//5 80//5 79//5
f 72//5 70//5 78//5 80//5
f 73//40 75//40 80//40 78//40
f 75//41 76//41 79//41 80//41
f 76//42 74//42 77//42 79//42
f 65//43 57//43 58//43 70//43
f 89//44 94//44 83//44 81//44
f 94//45 93//45 84//45 83//45
f 93//46 92//46 85//46 84//46
f 92//47 91//47 86//47 85//47
f 91//48 90//48 87//48 86//48
f 90//49 88//49 82//49 87//49
f 103//50 108//50 97//50 95//50
f 108//51 107//51 98//51 97//51
f 107//52 106//52 99//52 98//52
f 106//53 105//53 100//53 99//53
f 105//54 104//54 101//54 100//54
f 104//55 102//55 96//55 101//55
f 95//5 97//5 87//5 82//5
f 97//5 98//5 86//5 87//5
f 98//5 99//5 85//5 86//5
f 99//5 100//5 84//5 85//5
f 100//5 101//5 83//5 84//5
f 101//5 96//5 81//5 83//5
f 102//1 104//1 94//1 89//1
f 104//1 105//1 93//1 94//1
f 105//1 106//1 92//1 93//1
f 106//1 107//1 91//1 92//1
f 107//1 108//1 90//1 91//1
f 108//1 103//1 88//1 90//1
f 54//56 89//56 81//56 53//56
